<?xml version="1.0" encoding="utf-8"?>
<!-- Generator: Adobe Illustrator 15.1.0, SVG Export Plug-In . SVG Version: 6.00 Build 0)  -->
<!DOCTYPE svg PUBLIC "-//W3C//DTD SVG 1.1//EN" "http://www.w3.org/Graphics/SVG/1.1/DTD/svg11.dtd">
<svg opacity="0.5" version="1.1" id="Layer_1" xmlns="http://www.w3.org/2000/svg" xmlns:xlink="http://www.w3.org/1999/xlink" x="0px" y="0px"
	 width="164.034px" height="172.509px" viewBox="0 0 164.034 172.509" enable-background="new 0 0 164.034 172.509"
	 xml:space="preserve">
<g>
	<path fill-rule="evenodd" fill="#8d5f29" clip-rule="evenodd" d="M96.835,80.172c1.078,0.453,2.297,0.438,3.203,0.281
		c18.034-3.109,24.62-17.867,45.57-9.648c7.562,2.966,13.773,14.678,14,22c0.441,14.269-13.516,29.375-28,29
		c-10.048-0.26-14.338-8.471-21-14c-5.944-4.934-20.502-11.318-22-1c-1.208,8.324,19.594,16.565,22,19
		c13.827,13.995,8.929,42.123-15,42c-17.632-0.091-17.416-14.251-18-34c-0.206-6.966,0.574-17.237-7-19
		c-14.103-3.282-15.057,12.339-22,19c-13.818,13.258-47.027,14.66-44-16c0.686-6.938,5.305-13.059,11-16
		c9.738-5.03,38.384,0.45,40-10c1.66-10.736-31.49-12.581-37-19c-6.601-7.689-11.542-37.769,10-42c17.26-3.391,25.961,10.251,31,22
		c1.007,2.348,3.858,15.123,11,15c14.704-0.254,3.537-28.623,7-44c1.15-5.107,9.758-17.968,22-19c20.477-1.726,31.688,18.878,23,40
		c-5.683,13.814-16.222,14.245-25.628,29.123c-0.646,1.021-1.311,2.501-1.604,3.75C95.094,78.886,96.835,80.172,96.835,80.172z
		 M95.289,84.46c0,0-1.925-0.58-2.641-2.179c-6.961-15.563,20.06-22.306,26.961-38.477c14.215-33.305-28.904-47.485-38-22
		c-5.352,14.994,9.277,49.353-11,49c-8.576-0.148-12.145-11.839-16-20c-4.369-9.247-9.441-16.938-20-17
		c-16.84-0.101-26.439,20.179-14,36c7.192,9.147,42.413,5.024,38,24c-3.012,12.952-24.037,5.93-37,9
		c-20.209,4.787-16.781,36.547,3,38c9.543,0.701,17.488-5.586,24-13c6.313-7.188,10.48-18.062,21-17
		c20.674,2.086,1.387,44.836,20,53c21.677,0.812,28.503-10.385,26-23c-3.019-15.216-32.264-21.073-30-35
		c0.834-5.134,4.516-7.535,10-8c16.193-1.374,20.83,18.144,33,20c29.438,4.49,35.579-39.678,13-45
		c-17.973-4.236-24.587,11.365-45.271,11.982L95.289,84.46z"/>
	<path fill-rule="evenodd" fill="#8d5f29" clip-rule="evenodd" d="M72.609,78.805c9.144-2.288,16.379,2.908,15,12
		C84.201,113.283,48.964,84.722,72.609,78.805z M84.609,88.805c0.16-6.395-6.443-9.249-12-7
		C56.688,88.25,84.185,105.65,84.609,88.805z"/>
</g>
</svg>
