<?xml version="1.0" encoding="utf-8"?>
<!-- Generator: Adobe Illustrator 15.1.0, SVG Export Plug-In . SVG Version: 6.00 Build 0)  -->
<!DOCTYPE svg PUBLIC "-//W3C//DTD SVG 1.1//EN" "http://www.w3.org/Graphics/SVG/1.1/DTD/svg11.dtd">
<svg opacity="0.5" version="1.1" id="Layer_1" xmlns="http://www.w3.org/2000/svg" xmlns:xlink="http://www.w3.org/1999/xlink" x="0px" y="0px"
	 width="211px" height="217.1px" viewBox="0 0 211 217.1" enable-background="new 0 0 211 217.1" xml:space="preserve">
<g>
	<path fill-rule="evenodd" fill="#120537" clip-rule="evenodd" d="M95.833,84.809c8.728-10.27-0.007-22.324-2-31c-5.815-25.311,1.853-49.578,27-51
		c20.862-1.182,43.761,24.08,36,48c-2.903,8.946-11.418,12.816-19,19c-2.898,2.363-26.675,27.111-7,30
		c10.383,1.523,17.257-15.547,22-20c7.861-7.383,20.296-15.58,36-12c20.454,4.662,30.63,50.469,3,56
		c-13.586,2.719-52.597-15.086-57,3c-3.336,13.701,14.238,22.215,21,33c12.497,19.932,9.24,49.764-16,54
		c-20.096,3.371-32.881-10.029-34-28c-0.858-13.781,10.109-43.438-4-46c-14.952-2.717-17.557,32.164-27,41
		c-26.02,24.344-78.564-10.541-48-43c12.225-12.982,46.812-8.063,48-24c1.448-19.422-33.814-11.313-51-17
		c-24.726-8.184-31.254-52.75-3-62c17.36-5.685,32.911,2.8,41,10C75.577,57.042,76.28,80.549,95.833,84.809z M112.833,197.809
		c8.264,17.762,37.116,13.529,44,0c17.331-34.063-32.434-48.154-26-73c7.213-27.855,48.815,7.313,68-9
		c13.66-11.616,1.908-41.645-14-44c-13.648-2.021-23.117,7.116-30,14c-4.113,4.113-29.653,33.369-35,9
		c-5.697-25.967,32.449-30.784,34-52c0.938-12.846-10.85-30.586-21-34c-26.858-9.033-41.133,14.334-36,41
		c1.786,9.279,15.924,36.275-1,39c-20.255,3.26-25.608-31.963-38-42c-5.516-4.469-18.933-10.924-31-9
		c-28.854,4.598-25.035,43.304-4,53c17.029,7.85,58.265-2.146,57,23c-0.783,15.574-24.342,15.32-33,18
		c-9.886,3.059-21.084,10.779-23,21c-4.564,24.35,18.55,39.842,42,29c8.443-3.904,12.891-16.955,15-22
		c3.246-7.766,6.363-29.549,25-24C124.017,147.17,104.218,179.293,112.833,197.809z"/>
	<path fill-rule="evenodd" fill="#120537" clip-rule="evenodd" d="M98.833,127.809c-5.866-4.383-9.351-5.988-10-12
		c-2.856-26.443,40.738-21.768,26,4C112.084,124.612,106.166,125.733,98.833,127.809z M99.833,122.809
		c9.739,1.674,16.826-12.277,10-21C93.548,95.059,86.963,120.596,99.833,122.809z"/>
</g>
</svg>
