<?xml version="1.0" encoding="utf-8"?>
<!-- Generator: Adobe Illustrator 15.1.0, SVG Export Plug-In . SVG Version: 6.00 Build 0)  -->
<!DOCTYPE svg PUBLIC "-//W3C//DTD SVG 1.1//EN" "http://www.w3.org/Graphics/SVG/1.1/DTD/svg11.dtd">
<svg version="1.1" id="Layer_1" xmlns="http://www.w3.org/2000/svg" xmlns:xlink="http://www.w3.org/1999/xlink" x="0px" y="0px"
	 width="901px" height="901px" viewBox="0 0 901 901" enable-background="new 0 0 901 901" xml:space="preserve">
<g>
	<defs>
		<path id="SVGID_1_" d="M396,746.667l98.333,3.515l12.709-48.368c5.73-0.478,11.366,0.077,16.768,2.383
			C886.5,859,688.337,573.335,688.337,573.335c3.322-13.591,5.207-28.787,17.379-31.755C907,492.5,717.518,461,717.518,461
			c0.216-15.378-0.101-30.918-0.323-45.476C716.475,368.371,704.304,333.66,683.5,305c-8.156-11.235,10.067-42.896,1.5-53.5
			c-11.078-13.713-51-13-67.427-14.988c-6.846-0.829-11.079-8.393-17.378-11.987c-21.684-12.373-47.577-19.201-73-30
			c-26.121-11.095-55.26-18.482-87-16c-26.06,2.038-50.043,9.849-72,18c-23.59,8.757-42.734,16.864-60,29
			c-35.789,25.156-71.404,55.211-91,87c-44.432,72.08-40.942,221.525,6,285c11.356,15.355,27.737,27.838,42,41
			c15.607,14.403,27.931,29.3,44,40c28.394,18.908,65.734,32.626,107.425,36.06L396,746.667z"/>
	</defs>
	<clipPath id="SVGID_2_">
		<use xlink:href="#SVGID_1_"  overflow="visible"/>
	</clipPath>
	<g clip-path="url(#SVGID_2_)">
		<g>
			<path fill="#F6EE5D" d="M267.307,731.474c1.444-9.164,15.477-7.633,15.477-7.633c-16.539-0.292-15.314,6.92-15.2,10.521
				c0.114,3.601,9.954,11.557,27.438,0.856c17.484-10.699,31.772-9.949,38-9.367c6.228,0.582,8.17,0.933,12.717-5.697
				c4.547-6.631-4.547-13.071-4.547-13.071l-12.883-10.99c0,0-40.416-52.356-44.709-68.201c0,0,10.29,27.115,42.389,64.212
				c0.126,0.147,0.252,0.292,0.378,0.439l14.256-21.834l-17.487-5.647c0,0-46.547-73.544-52.609-49.294s37.258,81.969,37.258,81.969
				s-18.824,1.567-27.094,11.708c0,0-19.012-4.263-21.408,3.064c-2.397,7.33,1.771,8.719,1.771,8.719h0.119
				c6.465-4.208,15.038-4.672,15.038-4.672s-19.427,2.084-17.67,10.798c1.756,8.715,8.754,4.469,8.754,4.469L267.307,731.474z"/>
			<g>
				<path d="M268.442,731.786c1.151-6.332,9.003-7.332,14.341-6.769c0-0.783,0-1.569,0-2.355c-5.58-0.063-14.054,0.303-16.064,6.788
					c-1.04,3.353-0.427,7.019,2.344,9.269c5.433,4.414,13.349,3.379,19.417,1.082c5.441-2.059,10.185-5.579,15.484-7.968
					c4.563-2.058,9.414-3.494,14.341-4.352c3.518-0.611,7.105-0.813,10.672-0.714c2.953,0.082,5.907,0.645,8.859,0.531
					c3.487-0.132,5.777-2.374,7.802-4.996c2.563-3.318,3.279-6.697,1.323-10.512c-1.156-2.257-3.1-4.186-5.12-5.686
					c0.454,0.339-0.585-0.51-0.8-0.693c-0.996-0.851-1.993-1.701-2.99-2.55c-2.317-1.978-4.635-3.954-6.953-5.931
					c-0.605-0.517-1.211-1.034-1.817-1.551c-0.284-0.243,0.228,0.357-0.141-0.122c-5.605-7.287-11.072-14.687-16.445-22.146
					c-8.157-11.33-16.3-22.817-23.136-35.009c-1.872-3.336-3.796-6.816-4.825-10.524c-0.757,0.21-1.514,0.418-2.271,0.626
					c2.443,6.418,5.861,12.544,9.276,18.477c9.597,16.674,21.22,32.162,33.794,46.693c0.521,0.601,1.461,0.356,1.85-0.24
					c4.752-7.276,9.504-14.554,14.256-21.831c0.434-0.664-0.012-1.509-0.704-1.731c-4.601-1.485-9.202-2.973-13.802-4.458
					c-0.971-0.313-1.942-0.626-2.913-0.941c-1.062-0.342-0.468-0.338-0.099,0.244c-0.343-0.54-0.691-1.078-1.039-1.615
					c-4.792-7.403-9.806-14.666-15.034-21.768c-3.573-4.853-30.427-42.876-37.809-27.951c-2.084,4.214-1.637,9.513-0.906,13.991
					c1.045,6.416,3.372,12.602,5.918,18.553c5.577,13.033,12.946,25.315,20.71,37.149c3.46,5.272,7.019,10.506,10.805,15.555
					c0.339-0.591,0.678-1.181,1.017-1.771c-9.828,0.836-21.409,4.263-27.927,12.053c0.382-0.101,0.764-0.202,1.146-0.303
					c-3.309-0.737-6.734-1.143-10.119-1.259c-4.127-0.141-10.215,0.105-12.403,4.324c-1.744,3.361-1.88,9.267,2.215,10.973
					c1.004,0.418,2.416-0.916,3.228-1.341c1.816-0.947,3.781-1.592,5.751-2.134c2.118-0.58,4.337-1.013,6.534-1.142
					c0-0.783,0-1.569,0-2.354c-5.976,0.651-14.305,2.179-17.937,7.475c-2.28,3.325-0.541,9.237,3.186,10.756
					c1.803,0.735,6.93,0.614,7.024-2.134c0.053-1.52-2.303-1.515-2.355,0c-0.004,0.115-0.008,0.233-0.012,0.349
					c0.194-0.338,0.389-0.677,0.583-1.017c-1.51,0.898-3.691,1.344-5.155,0.146c-2.962-2.424-2.267-6.588,0.473-8.645
					c3.856-2.893,9.604-4.073,14.192-4.576c1.477-0.159,1.539-2.445,0-2.354c-4.441,0.258-8.898,1.466-12.922,3.325
					c-0.751,0.347-1.47,0.755-2.182,1.175c-0.125,0.075,0.575,0.361,0.292,0.223c-0.438-0.217-0.774-0.563-1.043-0.965
					c-1.265-1.889-0.652-5.26,0.44-7.069c1.943-3.218,8.121-2.771,11.249-2.608c2.791,0.145,5.604,0.517,8.333,1.123
					c0.387,0.087,0.874,0.023,1.146-0.302c6.112-7.307,17.023-10.576,26.261-11.363c0.785-0.067,1.604-0.99,1.017-1.773
					c-4.463-5.949-8.623-12.145-12.651-18.393c-7.757-12.034-15.111-24.584-20.351-37.941c-2.254-5.746-4.203-11.821-4.618-18.015
					c-0.198-2.956-0.33-8.443,2.5-10.307c2.078-1.367,5.232,0.565,7.169,1.865c3.895,2.613,7.225,6.118,10.378,9.557
					c7.776,8.483,14.617,17.836,21.192,27.261c2.435,3.491,4.821,7.017,7.16,10.573c0.656,0.996,1.307,1.996,1.953,3
					c0.335,0.521,0.662,1.252,1.289,1.454c5.829,1.882,11.658,3.765,17.487,5.647c-0.235-0.576-0.47-1.154-0.704-1.731
					c-4.752,7.279-9.504,14.557-14.257,21.834c0.617-0.078,1.234-0.157,1.85-0.237c-12.361-14.286-23.72-29.498-33.214-45.851
					c-3.369-5.803-6.955-12.248-9.25-18.279c-0.53-1.392-2.685-0.864-2.271,0.626c1.27,4.577,3.766,8.865,6.123,12.951
					c3.429,5.945,7.202,11.693,11.043,17.378c7.322,10.834,15.025,21.412,22.883,31.863c1.573,2.091,3.152,4.179,4.75,6.253
					c0.821,1.064,2.106,1.891,3.122,2.758c2.355,2.009,4.711,4.017,7.066,6.025c3.227,2.754,7.791,5.617,8.355,10.204
					c0.295,2.398-1.296,4.365-2.709,6.117c-1.127,1.397-2.426,2.605-4.2,3.051c-2.791,0.697-6.085-0.208-8.932-0.354
					c-7.922-0.403-15.838,0.998-23.264,3.735c-5.508,2.031-10.329,5.135-15.501,7.828c-4.151,2.161-8.81,3.597-13.523,3.374
					c-2.678-0.126-5.506-0.998-7.519-2.826c-1.274-1.157-1.417-2.161-1.455-3.769c-0.042-1.759,0.249-3.462,1.482-4.794
					c2.356-2.544,6.697-2.817,9.897-2.96c0.9-0.04,1.801-0.032,2.701-0.023c1.55,0.019,1.477-2.197,0-2.355
					c-6.391-0.674-15.264,1.078-16.613,8.498C265.9,732.646,268.171,733.28,268.442,731.786z"/>
			</g>
		</g>
		<g>
			<path fill="#F6EE5D" d="M233.269,297.872c0,0,8.588-5.305,21.219-3.284c12.629,2.021,19.196-0.758,28.543-8.083
				c9.346-7.325,18.945-11.114,32.838-7.325c13.893,3.789,41.885,8.575,69.212-6.82c0,0,17.682-11.367,35.364-5.305
				c17.682,6.063,29.554-1.516,46.73-15.914c17.177-14.397,36.627-5.305,37.889-4.799c1.264,0.505,19.943,9.525,40.164-7.326
				c0,0,8.336-9.346,28.039,0l3.031-1.515c0,0,6.569-2.021,11.874,4.799c5.303,6.82,9.851,7.325,17.177,5.052
				c7.323-2.273,24.502-8.336,31.069,3.536c6.567,11.873,13.387,8.335,21.975,8.083c8.588-0.252,27.029,11.367,16.672,28.543
				c-10.357,17.177,3.074,34.354,3.074,34.354s10.315,12.377-3.832,33.343c-14.145,20.966-1.263,34.858-1.263,34.858
				s15.21,15.577,2.78,44.963c0,0-5.277,13.96,7.338,29.714v16.511l-2.034,1.517c0,0,10.069,11.792,0,37.385l-1.517,21.723
				l2.527,2.779c0,0-8.842,10.356-5.305,18.693c3.536,8.336,8.334,20.46,5.557,27.531c-2.779,7.073-13.464,23.998-6.605,33.345
				l-45.431,64.411c0,0-19.449,7.073-27.786,5.559c-8.336-1.517-8.336,0.252-20.966-6.315c-12.629-6.566-24.502,3.204-30.564,6.527
				c-6.063,3.324-13.135,5.093-24.754,1.303c-11.62-3.79-14.146-6.821-34.859,5.305l-61.381,3.788c0,0-12.883-8.082-30.06,0
				c-17.177,8.084-28.796-1.263-28.796-1.263s-13.136-9.599-30.565,0c0,0-5.052,4.801-9.093,1.769
				c-4.042-3.031-6.568-10.861-5.305-19.955c1.263-9.093,0.253-12.471,0.757-25.938c0.506-13.468-3.536-30.351-16.671-48.559
				l-3.789-34.88c0,0,3.408-14.649-2.084-24.754c-5.493-10.104-6.621-13.639-5.552-28.038c1.069-14.399-0.699-30.565-11.561-41.933
				c-10.862-11.366-9.346-40.162-9.346-40.162s2.274-21.723-12.882-41.932c-15.156-20.208-10.357-33.597-9.347-38.648
				c1.011-5.052,7.073-16.167-15.914-35.364C228.837,315.967,233.269,297.872,233.269,297.872z"/>
			<g>
				<path fill="#8C8F36" d="M235.201,301.177c0.582-0.354,1.205-0.645,1.824-0.927c1.024-0.468-0.753,0.292,0.45-0.184
					c0.412-0.163,0.832-0.308,1.25-0.454c1.184-0.411,2.399-0.724,3.62-1c6.118-1.383,11.987,0.142,18.108,0.42
					c5.45,0.248,10.693-0.968,15.582-3.331c5.083-2.458,9.183-6.419,13.922-9.416c4.454-2.817,9.381-4.556,14.665-4.757
					c5.233-0.199,10.112,1.422,15.145,2.564c10.401,2.362,21.182,3.261,31.816,2.366c12.316-1.038,25.091-4.499,35.71-10.966
					c7.293-4.442,16.128-6.797,24.646-6.305c3.091,0.178,5.98,1.095,8.91,2.021c2.944,0.93,6.01,1.444,9.083,1.697
					c5.33,0.439,10.761-0.669,15.679-2.687c5.635-2.312,10.676-5.669,15.512-9.334c5.318-4.03,10.176-9.118,16.421-11.719
					c7.92-3.3,16.773-2.797,24.704,0.142c0.401,0.149,0.799,0.309,1.195,0.472c-0.471-0.194-0.899-0.363,0.605,0.254
					c-1.965-0.807,1.101,0.465,1.744,0.706c3.061,1.148,6.275,1.734,9.514,2.095c11.712,1.301,22.878-3.376,31.917-10.527
					c0.475-0.376,0.884-0.78,1.342-1.167c0.504-0.425-0.818,0.612-0.226,0.171c0.171-0.128,0.35-0.247,0.526-0.366
					c0.519-0.347,1.067-0.644,1.624-0.922c0.11-0.055,1.057-0.455,0.265-0.133c0.332-0.134,0.67-0.249,1.009-0.362
					c0.762-0.257,1.55-0.438,2.338-0.596c1.62-0.325,4.166-0.27,6.171-0.064c2.701,0.276,5.396,1.185,7.93,2.114
					c1.592,0.585,3.344,1.864,5.066,1.864c1.174,0,2.223-0.668,3.242-1.178c0.526-0.264,2.745-1.044,0.827-0.48
					c0.275-0.081,1.279-0.218,0.141-0.075c1.735-0.217,2.918-0.042,4.538,0.793c2.468,1.274,3.905,3.864,5.821,5.78
					c1.935,1.935,4.294,3.366,6.901,4.176c4.578,1.421,9.441-0.138,13.819-1.504c6.643-2.074,16.903-5.413,22.771,0.08
					c1.893,1.772,2.897,4.405,4.49,6.447c1.618,2.073,3.584,3.876,5.966,5.029c4.103,1.989,8.498,1.604,12.887,1.156
					c3.859-0.395,6.12-0.399,9.374,1.097c3.372,1.55,6.395,3.902,8.395,7.056c2.296,3.624,2.227,7.621,0.777,11.552
					c-1.036,2.813-2.878,5.324-4.004,8.129c-1.214,3.022-1.721,6.333-1.878,9.57c-0.395,8.015,2.634,16.719,7.374,23.162
					c0.235,0.32,0.477,0.641,0.729,0.945c0.214,0.261-0.809-1.083-0.342-0.43c0.456,0.636,0.834,1.324,1.185,2.021
					c0.118,0.235,0.225,0.475,0.332,0.714c-0.418-0.927-0.002,0.015,0.059,0.178c0.241,0.633,0.437,1.283,0.617,1.935
					c0.521,1.883,0.607,2.813,0.651,4.832c0.265,12.38-9.876,21.051-12.991,32.429c-2.175,7.947-1.107,16.823,3.351,23.805
					c0.643,1.006,1.372,1.974,2.176,2.857c0.128,0.143,0.252,0.291,0.376,0.438c0.681,0.815-0.502-0.688,0.088,0.104
					c0.635,0.852,1.202,1.751,1.735,2.669c3.603,6.199,4.714,14.169,3.931,21.879c-0.557,5.504-2.359,10.921-4.473,16.001
					c-0.685,1.644-0.842,3.606-1.053,5.343c-1.241,10.269,3.17,20.189,9.376,28.096c-0.374-0.902-0.748-1.805-1.122-2.707
					c0,5.505,0,11.007,0,16.511c0.632-1.102,1.265-2.204,1.897-3.305c-0.678,0.506-1.357,1.01-2.036,1.516
					c-2.082,1.552-2.487,3.982-0.775,6.013c0.082,0.096-0.777-1.071-0.193-0.23c0.365,0.525,0.685,1.082,0.985,1.647
					c0.195,0.366,0.374,0.742,0.546,1.12c0.401,0.867-0.315-0.795,0.067,0.151c0.12,0.296,0.227,0.596,0.336,0.896
					c0.473,1.311,0.815,2.666,1.093,4.029c0.674,3.288,0.624,7.027,0.277,10.584c-0.24,2.483-0.801,4.941-1.42,7.355
					c-0.34,1.321-0.744,2.626-1.162,3.922c-0.542,1.683-1.525,3.433-1.649,5.202c-0.338,4.84-0.676,9.681-1.015,14.521
					c-0.155,2.25-0.313,4.5-0.471,6.75c-0.172,2.483,2.082,4.252,3.616,5.939c0-1.805,0-3.609,0-5.414
					c-3.952,4.672-6.931,10.551-7.254,16.725c-0.227,4.313,2.099,8.265,3.586,12.17c1.655,4.343,3.223,8.938,3.582,13.599
					c0.13,1.688,0.029,3.29-0.46,4.908c-0.311,1.029-0.155,0.477-0.569,1.396c-0.317,0.706-0.649,1.403-0.981,2.101
					c-1.693,3.57-3.38,7.135-4.815,10.817c-2.723,6.981-4.662,15.855-0.04,22.489c0-1.287,0-2.575,0-3.863
					c-13.429,19.04-26.855,38.078-40.284,57.118c-1.714,2.433-3.431,4.863-5.145,7.296c0.762-0.586,1.525-1.175,2.288-1.761
					c-6.401,2.321-13.067,4.248-19.794,5.309c-4.307,0.679-6.924-0.002-11.067-0.487c-0.71-0.084-1.42-0.155-2.13-0.237
					c-1.111-0.13,0.796,0.122-0.3-0.042c-0.332-0.05-0.662-0.113-0.994-0.176c-1.658-0.32-3.302-0.859-4.855-1.518
					c-6.002-2.54-11.09-5.943-17.846-5.96c-5.719-0.015-11.232,2.309-16.146,5.031c-3.646,2.021-7.012,4.604-10.977,5.99
					c-5.047,1.765-10.303,1.258-15.388-0.076c-5.686-1.491-11.019-4.347-17.035-4.237c-8.328,0.151-16.363,5.118-23.313,9.168
					c0.644-0.174,1.288-0.349,1.932-0.522c-20.46,1.263-40.92,2.524-61.381,3.787c0.644,0.175,1.288,0.349,1.932,0.523
					c-6.327-3.918-14.781-4.712-21.965-3.689c-6.892,0.981-12.74,4.74-19.501,6.087c-4.419,0.88-9.013,0.277-13.194-1.303
					c-0.53-0.202-1.983-0.925-2.973-1.525c-0.312-0.189-0.614-0.391-0.912-0.601c-1.021-0.719,2.175,1.563-0.321-0.237
					c-1.898-1.372-4.208-2.277-6.391-3.057c-4.646-1.66-9.794-2.07-14.663-1.416c-3.21,0.431-6.248,1.258-9.236,2.51
					c-1.624,0.681-3.597,1.352-4.905,2.567c-0.08,0.073-0.162,0.146-0.244,0.217c-0.274,0.225-0.242,0.203,0.095-0.06
					c-0.213,0.158-0.432,0.31-0.655,0.454c-0.825,0.557-1.92,1.217-2.945,0.985c-1.185-0.265-2.116-2.263-2.608-3.193
					c-2.092-3.962-2.145-9.157-1.56-13.477c0.996-7.365,0.57-14.715,0.693-22.122c0.146-8.813-0.225-17.155-2.626-25.71
					c-2.934-10.451-8.159-20.208-14.449-29.004c0.174,0.645,0.348,1.288,0.522,1.933c-1.217-11.199-2.433-22.401-3.65-33.601
					c-0.045-0.422-0.092-0.847-0.138-1.271c0.125,1.153-0.175,1.221-0.016,0.434c0.131-0.649,0.238-1.305,0.339-1.961
					c0.731-4.732,0.967-9.521,0.358-14.283c-0.756-5.899-3.288-10.546-5.844-15.803c-1.748-3.597-2.647-7.307-2.808-11.265
					c-0.238-5.867,0.62-11.723,0.601-17.59c-0.021-6.002-0.743-12.063-2.322-17.857c-1.611-5.914-4.386-11.529-8.209-16.319
					c-1.383-1.732-3-3.248-4.217-5.092c-1.163-1.764-2.052-3.688-2.776-5.666c-2.834-7.733-3.586-16.191-3.711-24.372
					c-0.05-3.269,0.242-6.527,0.163-9.793c-0.253-10.391-3.044-20.636-7.705-29.896c-3.181-6.322-7.913-11.625-11.3-17.822
					c-2.317-4.241-4.085-9.014-4.642-13.818c-0.653-5.635,0.134-9.547,1.565-14.917c1.44-5.404,1.658-10.734-0.289-16.067
					c-1.723-4.717-4.597-8.813-7.837-12.608c-2.175-2.547-4.607-4.868-7.106-7.091c-2.309-2.053-4.425-3.8-5.942-6.53
					c-2.083-3.751-2.512-8.27-2.421-12.483c0.018-0.852,0.077-1.703,0.148-2.551c0.031-0.374,0.073-0.746,0.114-1.118
					c0.083-0.747-0.084,0.5,0.078-0.566c0.105-0.691,0.226-1.385,0.39-2.065c1.157-4.798-6.225-6.833-7.382-2.035
					c-1.521,6.305-1.437,13.37,0.361,19.586c1.611,5.571,4.968,9.447,9.24,13.177c4.215,3.68,8.179,7.768,11.09,12.573
					c0.952,1.57,1.646,3.036,2.165,4.535c0.254,0.737,0.453,1.492,0.628,2.251c0.081,0.353,0.144,0.708,0.206,1.064
					c0.113,0.645-0.021-0.377,0.068,0.667c0.102,1.197,0.06,2.404-0.065,3.597c-0.098,0.949,0.135-0.87-0.008,0.045
					c-0.039,0.251-0.087,0.502-0.135,0.752c-0.103,0.541-0.231,1.077-0.364,1.61c-1.186,4.759-2.326,9.521-2.361,14.459
					c-0.08,11.352,5.335,21.736,11.916,30.639c6.699,9.062,10.778,20.07,11.748,31.288c0.307,3.548,0.059,7.036,0.018,10.576
					c-0.092,7.92,0.597,15.964,2.428,23.678c1.055,4.446,2.666,8.888,5.11,12.766c1.275,2.021,2.932,3.705,4.487,5.503
					c1.982,2.292,3.521,4.975,4.84,7.691c5.284,10.869,4.356,22.953,3.823,34.621c-0.218,4.771-0.031,9.622,1.339,14.226
					c1.397,4.69,4.313,8.643,6.006,13.172c1.784,4.775,1.841,10.033,1.408,15.051c-0.148,1.705-1.032,3.743-0.809,5.8
					c1.238,11.393,2.476,22.788,3.713,34.181c0.169,1.559,0.737,2.647,1.651,3.945c2.183,3.107,4.166,6.349,5.992,9.675
					c3.013,5.487,5.346,11.287,6.981,17.327c2.83,10.462,1.865,21.002,1.997,31.706c0.129,10.475-3.107,21.458,2.463,31.111
					c2.938,5.092,8.298,7.391,13.778,4.849c1.466-0.679,2.811-1.613,4.011-2.697c0.583-0.525,2.896-1.177,3.893-1.54
					c1.678-0.611,3.421-1.025,5.175-1.347c4.392-0.803,8.982-0.086,13.122,1.462c1.231,0.462-0.583-0.275,0.522,0.212
					c0.309,0.137,0.613,0.286,0.917,0.436c0.475,0.233,0.939,0.491,1.396,0.756c0.264,0.155,0.522,0.319,0.776,0.489
					c0.734,0.492-2.243-1.729,0.23,0.166c5.965,4.569,14.595,5.688,21.798,4.602c6.829-1.029,12.677-4.828,19.443-6.093
					c4.589-0.857,9.408-0.349,13.827,1.063c0.333,0.104,2.187,0.814,1.501,0.524c0.473,0.2,0.937,0.423,1.395,0.656
					c0.886,0.447,1.694,1.037,2.764,0.97c1.032-0.063,2.063-0.126,3.095-0.19c13.417-0.828,26.834-1.655,40.251-2.485
					c5.364-0.33,10.728-0.662,16.092-0.992c2.101-0.13,3.452-0.413,5.435-1.557c4.506-2.599,9.165-5.197,14.202-6.606
					c1.852-0.518,2.294-0.576,4.025-0.607c0.691-0.013,1.382,0.042,2.069,0.115c-0.909-0.099,0.204,0.049,0.326,0.069
					c0.451,0.082,0.897,0.189,1.341,0.299c3.705,0.909,7.236,2.455,10.908,3.487c5.659,1.59,11.614,2.006,17.362,0.685
					c4.339-1,8.161-3.305,11.91-5.605c4.252-2.608,8.844-5.19,13.906-5.685c6.241-0.611,11.264,3.191,16.783,5.454
					c3.265,1.338,6.473,1.947,9.966,2.33c3.376,0.369,7.324,1.094,11.237,0.65c7.571-0.856,15.038-3.046,22.202-5.59
					c2.641-0.939,4.435-4.593,5.979-6.781c13.91-19.723,27.821-39.447,41.731-59.17c0.069-0.099,0.139-0.195,0.208-0.295
					c0.725-1.026,0.716-2.834,0-3.863c-3.763-5.4-0.731-12.861,1.492-18.292c2.559-6.254,6.607-11.905,6.452-18.909
					c-0.097-4.345-1.292-8.683-2.639-12.781c-1.294-3.936-3.397-7.71-4.429-11.708c-0.748-2.901,0.674-6.233,1.99-8.757
					c0.634-1.218,1.378-2.38,2.162-3.508c0.158-0.228,1.221-1.616,0.416-0.591c0.101-0.13,0.206-0.256,0.311-0.382
					c1.397-1.653,1.494-3.773,0-5.414c-0.843-0.927-1.683-1.853-2.525-2.779c0.374,0.901,0.748,1.805,1.122,2.706
					c0.305-4.392,0.611-8.782,0.918-13.173c0.17-2.449,0.342-4.898,0.512-7.347c0.021-0.296,0.042-0.59,0.063-0.886
					c0.029-0.425,0.202-0.122,0.216-0.158c1.103-2.849,1.994-5.777,2.716-8.746c2.387-9.8,2.966-23.21-4.034-31.505
					c-0.258,2.005-0.517,4.009-0.775,6.013c1.382-1.03,3.313-2.052,3.794-3.804c0.271-0.986,0.139-2.168,0.139-3.175
					c0-3.582,0-7.165,0-10.75c0-1.111,0-2.225,0-3.337c0-2.624-2.689-5.043-4.006-7.212c-2.668-4.397-4.263-9.419-4.422-14.564
					c-0.088-2.91,0.004-4.237,0.87-6.945c1.639-5.13,3.599-9.886,4.435-15.263c1.405-9.024,0.492-18.145-3.378-26.455
					c-1.34-2.875-3.193-5.253-5.151-7.706c0.941,1.178,0.038,0.023-0.164-0.268c-0.296-0.432-0.569-0.88-0.836-1.332
					c-0.924-1.574-1.172-2.208-1.674-3.673c-1.328-3.886-1.477-7.957-0.641-12.018c1.376-6.676,5.557-11.749,8.7-17.615
					c2.685-5.012,4.403-10.454,4.819-16.129c0.384-5.232-0.767-11.532-4.027-15.811c-1.771-2.322,0.616,0.909-0.542-0.735
					c-0.792-1.127-1.492-2.318-2.149-3.527c-2.103-3.862-3.492-8.192-3.803-12.585c-0.193-2.745,0.122-5.409,0.842-8.056
					c0.866-3.187,2.792-5.804,4.105-8.79c2.084-4.735,2.653-9.969,0.977-14.924c-2.697-7.981-10.618-14.138-18.739-15.86
					c-4.011-0.851-8,0.054-12.027,0.259c-4.363,0.221-7.124-1.533-9.616-5.416c-2.115-3.299-4-6.147-7.533-8.098
					c-3.187-1.759-6.92-2.33-10.515-2.344c-6.485-0.024-12.712,2.06-18.842,3.913c-2.781,0.84-5.731,1.434-8.386-0.019
					c-1.576-0.862-2.79-2.287-3.927-3.645c-1.626-1.938-3.273-3.616-5.481-4.902c-2.922-1.703-6.382-2.174-9.683-1.669
					c-1.735,0.266-3.311,1.311-4.859,2.085c1.288,0,2.576,0,3.863,0c-8.969-4.168-19.529-6.827-28.84-2.166
					c-1.366,0.683-2.809,1.629-3.837,2.765c-2.104,2.321-5.587,4.026-8.337,5.44c-2.611,1.342-5.412,2.249-8.267,2.904
					c-4,0.917-8.569,0.925-12.273,0.279c-1.449-0.252-2.877-0.617-4.282-1.051c-0.517-0.16-1.027-0.339-1.536-0.525
					c-0.355-0.13-1.916-0.78-0.43-0.149c-0.438-0.186-0.875-0.375-1.314-0.557c1.498,0.616,0.078,0.031-0.605-0.254
					c-1.067-0.446-2.159-0.831-3.26-1.18c-3.989-1.266-8.219-1.899-12.395-1.993c-5.751-0.13-11.334,1.203-16.565,3.519
					c-6.296,2.787-11.214,7.905-16.636,12.014c-8.638,6.545-18.409,12.155-29.614,10.104c-2.961-0.542-5.749-1.674-8.662-2.392
					c-3.297-0.813-6.765-1.08-10.152-1.001c-5.587,0.129-11.167,1.444-16.371,3.43c-2.919,1.114-5.82,2.417-8.494,4.045
					c-5.158,3.142-10.947,5.345-16.723,7.036c-11.468,3.357-23.557,3.838-35.375,2.415c-10.035-1.208-19.743-5.538-29.97-4.246
					c-5.669,0.716-10.915,2.837-15.73,5.882c-4.746,3.001-8.803,6.859-13.902,9.323c-4.62,2.233-9.801,2.291-14.795,1.736
					c-6.267-0.696-12.009-1.071-18.192,0.548c-2.487,0.652-5.098,1.587-7.305,2.931
					C227.127,297.129,230.972,303.753,235.201,301.177z"/>
			</g>
		</g>
		<g>
			<g>
				<path fill="#E3E77B" d="M682.137,544.661l-2.527-2.779l1.517-21.723c10.069-25.593,0-37.385,0-37.385l2.034-1.517v-16.511
					c-12.615-15.754-7.338-29.714-7.338-29.714c12.431-29.386-2.78-44.963-2.78-44.963s-12.882-13.893,1.263-34.858
					c14.147-20.966,3.832-33.343,3.832-33.343s-13.431-17.177-3.074-34.354c10.357-17.176-8.084-28.796-16.672-28.543
					c-8.588,0.252-15.408,3.789-21.975-8.083c-6.567-11.872-23.746-5.809-31.069-3.536c-7.326,2.273-11.874,1.768-17.177-5.052
					c-4.794-6.164-10.62-5.106-11.697-4.846c-3.562,8.256-13.048,34.583,0.834,54.355c16.672,23.744,4.546,50.112,2.779,55.873
					c-1.767,5.76-7.123,19.905,5.912,35.567c13.033,15.661,15.054,45.508,7.981,66.959c-7.072,21.451,21.725,44.692,10.609,81.064
					c-11.113,36.374,10.609,43.449,9.095,59.361c-1.517,15.913-14.145,38.646-4.042,53.802c8.935,13.401-3.95,43.071-7.055,49.767
					c8.345,1.503,27.767-5.561,27.767-5.561l45.431-64.411c-6.859-9.347,3.826-26.271,6.605-33.345
					c2.777-7.071-2.021-19.195-5.557-27.531C673.295,555.018,682.137,544.661,682.137,544.661z"/>
				<g>
					<path fill="#8C8F36" d="M684.843,541.955c-0.843-0.927-1.683-1.853-2.525-2.779c0.374,0.901,0.748,1.805,1.122,2.706
						c0.305-4.37,0.609-8.74,0.914-13.109c0.174-2.492,0.347-4.981,0.521-7.473c0.019-0.279,0.04-0.562,0.059-0.841
						c0.029-0.422,0.202-0.099,0.21-0.121c1.08-2.795,1.96-5.662,2.676-8.569c2.431-9.847,3.059-23.355-3.987-31.701
						c-0.258,2.005-0.517,4.009-0.775,6.013c1.382-1.03,3.313-2.052,3.794-3.804c0.26-0.944,0.139-2.069,0.139-3.033
						c0-3.45,0-6.899,0-10.349c0-1.2,0-2.4,0-3.601c0-2.424-1.777-4.05-3.059-5.971c-2.895-4.338-4.88-9.375-5.298-14.595
						c-0.141-1.747-0.09-3.51,0.088-5.251c0.122-1.177-0.12,0.738,0.048-0.335c0.044-0.291,0.101-0.579,0.155-0.869
						c0.099-0.502,0.221-1.002,0.359-1.496c0.298-1.075,0.79-2.084,1.193-3.122c1.218-3.13,2.158-6.363,2.859-9.647
						c1.914-8.944,1.674-18.586-1.84-27.115c-1.441-3.498-3.271-6.75-5.794-9.583c-0.12-0.135-0.233-0.276-0.347-0.417
						c0.952,1.187,0.069,0.073-0.132-0.22c-0.706-1.018-1.302-2.106-1.838-3.222c-0.364-0.758-0.231-0.465-0.607-1.517
						c-0.288-0.802-0.513-1.624-0.716-2.449c-0.481-1.943-0.597-3.814-0.542-5.918c0.147-5.664,2.607-10.982,5.599-15.678
						c3.37-5.289,6.351-10.688,7.71-16.872c1.467-6.669,0.914-14.132-2.687-20.066c-0.374-0.616-0.817-1.173-1.259-1.741
						c1.12,1.438,0.114,0.123-0.248-0.414c-1.914-2.845-3.376-5.952-4.395-9.221c-1.576-5.056-1.681-10.274-0.107-15.339
						c0.87-2.804,2.622-5.168,3.803-7.831c1.164-2.622,1.83-5.292,2.013-8.158c0.576-9.012-6.183-16.817-13.838-20.594
						c-3.372-1.663-6.987-2.657-10.76-2.463c-3.729,0.191-7.931,1.157-11.212,0.253c-4.391-1.208-6.088-6.74-8.954-9.965
						c-3.202-3.603-7.996-5.056-12.637-5.461c-4.435-0.387-9.036,0.512-13.315,1.6c-3.733,0.949-7.487,2.696-11.33,3.077
						c-5.473,0.542-7.572-4.108-11.126-7.322c-3.546-3.206-8.16-4.424-12.817-3.709c-3.436,0.527-4.587,6.154-5.557,9.001
						c-1.443,4.234-2.525,8.587-3.256,12.999c-1.859,11.25-1.118,22.754,3.909,33.12c1.33,2.743,3.168,5.154,4.764,7.737
						c1.723,2.791,3.071,5.767,4.109,8.874c1.782,5.325,2.376,10.881,2.206,16.472c-0.246,7.981-2.496,15.629-5.158,23.096
						c-2.477,6.949-3.968,14.176-2.905,21.561c0.868,6.033,3.429,11.646,6.981,16.566c3.069,4.256,6.13,8.104,8.153,13.021
						c4.21,10.233,5.374,21.544,4.84,32.519c-0.267,5.495-1.115,10.925-2.485,16.252c-1.09,4.24-2.496,8.12-2.54,12.561
						c-0.082,8.135,3.16,16.009,6.057,23.455c3.365,8.65,6.798,17.452,7.889,26.736c0.611,5.195,0.515,10.502-0.378,15.657
						c-1.036,5.987-3.237,11.679-4.2,17.695c-1.407,8.799-0.945,17.75,2.345,26.086c1.248,3.162,2.788,6.177,4.418,9.153
						c0.668,1.223,1.342,2.443,1.987,3.679c0.309,0.591,0.607,1.189,0.895,1.79c0.143,0.296,0.277,0.595,0.412,0.893
						c0.254,0.563-0.145-0.391,0.233,0.571c0.462,1.181,0.817,2.397,1.069,3.637c0.032,0.153,0.189,1.204,0.061,0.235
						c0.042,0.317,0.065,0.637,0.09,0.958c0.055,0.767,0.036,1.54-0.015,2.307c-0.319,4.922-1.906,9.847-3.2,14.576
						c-2.937,10.727-6.345,22.079-3.874,33.241c1.017,4.597,4.177,8.161,5.368,12.411c1.126,4.018,0.828,8.443,0.315,12.591
						c-1.061,8.548-4.088,17.002-7.351,24.931c-0.309,0.748-0.405,0.975-0.889,2.073c-0.317,0.721-0.641,1.439-0.973,2.153
						c-0.931,2.015-0.357,5.195,2.288,5.624c8.435,1.365,17.567-1.595,25.54-4.124c2.168-0.688,5.187-1.261,6.559-3.206
						c0.458-0.648,0.914-1.296,1.37-1.943c6.895-9.772,13.788-19.546,20.681-29.318c7.79-11.047,15.582-22.095,23.372-33.142
						c0.725-1.026,0.716-2.834,0-3.863c-3.805-5.455-0.679-13.037,1.582-18.512c2.529-6.127,6.473-11.679,6.365-18.54
						c-0.065-4.237-1.206-8.481-2.496-12.485c-1.317-4.084-3.485-7.981-4.565-12.113c-0.782-2.992,0.716-6.418,2.09-9.002
						c0.622-1.171,1.342-2.29,2.101-3.374c0.162-0.233,1.204-1.584,0.378-0.536c0.099-0.124,0.197-0.246,0.298-0.365
						c3.168-3.746-2.221-9.189-5.414-5.414c-3.874,4.58-6.714,10.235-7.231,16.254c-0.382,4.445,1.968,8.469,3.504,12.481
						c1.622,4.245,3.174,8.737,3.607,13.287c0.355,3.735-0.54,5.847-1.945,8.81c-1.664,3.51-3.324,7.017-4.75,10.632
						c-2.775,7.04-4.815,16.029-0.137,22.741c0-1.287,0-2.575,0-3.863c-13.143,18.637-26.288,37.273-39.431,55.908
						c-2,2.836-4,5.67-5.998,8.506c0.762-0.586,1.525-1.175,2.288-1.761c-3.361,1.219-6.792,2.261-10.237,3.204
						c-2.838,0.779-5.708,1.445-8.607,1.951c-1.195,0.208-2.391,0.341-3.603,0.425c-0.618,0.044-1.237,0.053-1.857,0.053
						c-0.288-0.005-0.576-0.013-0.865-0.029c-0.027-0.003-1.345-0.171-0.563-0.042c0.762,1.873,1.525,3.747,2.288,5.623
						c3.107-6.718,5.763-13.672,7.769-20.798c2.468-8.769,4.361-18.838,1.632-27.767c-0.611-1.998-1.561-3.851-2.689-5.599
						c-1.401-2.17-2.168-4.578-2.662-7.099c-0.987-5.02-0.111-10.431,0.912-15.37c1.147-5.55,2.809-10.983,4.254-16.462
						c1.198-4.544,2.454-9.351,2.479-14.08c0.032-6.05-3.006-11.453-5.828-16.601c-3.309-6.04-5.832-11.704-6.397-18.706
						c-0.916-11.365,3.865-21.634,5.244-32.712c1.273-10.216-0.611-20.563-3.782-30.269c-2.699-8.264-6.504-16.153-8.823-24.542
						c-1.015-3.668-1.496-6.618-1.265-10.41c0.227-3.734,2.22-8.482,3.107-12.646c2.42-11.36,2.548-23.127,0.702-34.575
						c-0.882-5.476-2.414-10.816-4.582-15.921c-2.124-4.999-5.063-9.052-8.302-13.357c-6.092-8.098-7.601-17.514-4.945-27.039
						c1.653-5.936,4.04-11.6,5.399-17.631c2.427-10.761,2.405-22.119-1.284-32.594c-1.05-2.984-2.418-5.865-3.987-8.609
						c-1.645-2.875-3.674-5.471-5.179-8.433c-2.448-4.823-3.528-10.313-3.794-15.679c-0.298-5.989,0.516-11.948,1.931-17.756
						c0.592-2.436,1.321-4.838,2.128-7.211c0.353-1.037,0.733-2.064,1.128-3.086c0.168-0.439,0.345-0.875,0.521-1.311
						c0.08-0.198,0.162-0.396,0.244-0.594c-0.191,0.451-0.206,0.486-0.042,0.106c-0.763,0.586-1.525,1.172-2.288,1.759
						c1.057-0.243-0.66,0,0.59-0.083c0.796-0.053,1.361,0.006,1.828,0.097c2.668,0.517,4.405,2.409,6.034,4.451
						c3.334,4.184,7.979,6.907,13.41,6.773c4.309-0.107,8.418-1.857,12.515-3.01c3.979-1.12,8.015-1.912,12.164-1.735
						c3.828,0.163,7.124,1.804,9.078,5.182c2.662,4.599,6.128,8.666,11.424,10.124c4.021,1.107,8.24,0.239,12.301-0.066
						c3.315-0.248,5.552,0.357,8.611,2.005c7.044,3.795,11.027,11.128,7.323,18.86c-1.366,2.851-2.987,5.435-4.019,8.457
						c-1.008,2.947-1.397,6.159-1.437,9.261c-0.067,5.246,1.383,10.322,3.414,15.103c1.055,2.482,2.382,4.907,3.985,7.082
						c0.233,0.316,0.473,0.634,0.721,0.936c0.218,0.265-0.809-1.083-0.351-0.446c0.435,0.607,0.8,1.263,1.139,1.928
						c0.116,0.224,0.221,0.453,0.326,0.682c0.391,0.851-0.317-0.803,0.048,0.128c0.237,0.604,0.433,1.224,0.613,1.847
						c0.55,1.893,0.637,2.692,0.716,4.568c0.2,4.703-1.168,9.345-3.176,13.554c-1.458,3.051-3.403,5.785-5.162,8.658
						c-1.761,2.875-3.143,6.012-4.191,9.212c-1.594,4.86-1.849,9.974-1.08,14.999c0.697,4.565,2.784,9.687,6.036,13.084
						c0.229,0.239,0.439,0.495,0.647,0.751c0.5,0.617-0.592-0.812,0.126,0.18c0.315,0.434,0.609,0.881,0.897,1.332
						c1.704,2.666,2.46,4.512,3.319,7.286c3.004,9.691,1.25,19.968-2.246,29.278c-4.727,12.589-0.777,25.474,7.359,35.834
						c-0.374-0.902-0.748-1.805-1.122-2.707c0,5.505,0,11.007,0,16.511c0.632-1.102,1.265-2.204,1.897-3.305
						c-0.678,0.506-1.357,1.01-2.036,1.516c-2.08,1.552-2.487,3.982-0.775,6.013c-0.17-0.204-0.704-0.975-0.141-0.154
						c0.366,0.533,0.685,1.099,0.985,1.672c0.191,0.366,0.368,0.739,0.538,1.116c0.393,0.861-0.317-0.799,0.057,0.139
						c0.115,0.293,0.223,0.589,0.328,0.886c0.458,1.286,0.794,2.614,1.067,3.952c0.681,3.328,0.624,7.233,0.246,10.896
						c-0.254,2.436-0.819,4.847-1.433,7.213c-0.336,1.296-0.735,2.573-1.147,3.847c-0.536,1.653-1.5,3.369-1.62,5.111
						c-0.336,4.807-0.672,9.615-1.006,14.422c-0.16,2.292-0.321,4.582-0.481,6.874c-0.17,2.462,2.097,4.239,3.618,5.914
						C682.757,551.028,688.156,545.598,684.843,541.955z"/>
				</g>
			</g>
		</g>
		
			<ellipse transform="matrix(0.9967 -0.0809 0.0809 0.9967 -37.7141 28.2586)" fill="#D75328" cx="330.07" cy="479.808" rx="4.547" ry="2.652"/>
		
			<ellipse transform="matrix(0.9967 -0.0807 0.0807 0.9967 -38.1317 29.6457)" fill="#D75328" cx="347.728" cy="486.612" rx="3.915" ry="2.526"/>
		
			<ellipse transform="matrix(0.9967 -0.081 0.081 0.9967 -37.3613 30.2663)" fill="#D75328" cx="354.167" cy="475.383" rx="3.41" ry="2.463"/>
		
			<ellipse transform="matrix(0.9857 -0.1684 0.1684 0.9857 -68.4842 94.8178)" fill="#D75328" cx="524.775" cy="451.171" rx="3.982" ry="2.757"/>
		
			<ellipse transform="matrix(0.9857 -0.1684 0.1684 0.9857 -67.2726 97.602)" fill="#D75328" cx="541.83" cy="445.444" rx="4.21" ry="2.879"/>
		
			<ellipse transform="matrix(0.9857 -0.1684 0.1684 0.9857 -69.9966 97.0804)" fill="#D75328" cx="537.22" cy="461.12" rx="3.884" ry="2.526"/>
		
			<ellipse transform="matrix(0.7098 0.7044 -0.7044 0.7098 363.6277 -90.8129)" fill="#AFBF36" cx="292.021" cy="395.881" rx="9.851" ry="11.493"/>
		
			<ellipse transform="matrix(0.7766 -0.63 0.63 0.7766 -146.7258 268.3912)" fill="#AFBF36" cx="305.082" cy="341.086" rx="30.11" ry="19.693"/>
		
			<ellipse transform="matrix(0.9776 0.2103 -0.2103 0.9776 75.3979 -103.5945)" fill="#AFBF36" cx="524.909" cy="302.802" rx="31.743" ry="17.842"/>
		
			<ellipse transform="matrix(0.5426 0.84 -0.84 0.5426 539.5106 -372.0902)" fill="#8C8F36" cx="611.434" cy="309.37" rx="31.743" ry="17.841"/>
		
			<ellipse transform="matrix(0.8086 0.5884 -0.5884 0.8086 358.3311 -90.5356)" fill="#AFBF36" cx="318.305" cy="505.433" rx="8.966" ry="11.24"/>
		
			<ellipse transform="matrix(0.8138 -0.5811 0.5811 0.8138 -158.3099 413.8067)" fill="#AFBF36" cx="566.656" cy="453.971" rx="8.588" ry="11.971"/>
		
			<ellipse transform="matrix(0.9388 0.3445 -0.3445 0.9388 238.3768 -82.6038)" fill="#AFBF36" cx="351.635" cy="629.49" rx="12.48" ry="8.588"/>
		
			<ellipse transform="matrix(-0.5849 0.8111 -0.8111 -0.5849 1413.3894 494.615)" fill="#AFBF36" cx="580.128" cy="608.979" rx="14.032" ry="9.657"/>
		
			<ellipse transform="matrix(0.5872 0.8094 -0.8094 0.5872 747.8119 -283.4129)" fill="#8C8F36" cx="651.78" cy="591.491" rx="13.029" ry="8.966"/>
		
			<ellipse transform="matrix(0.4587 0.8886 -0.8886 0.4587 736.3247 -312.0541)" fill="#8C8F36" cx="624.305" cy="448.37" rx="13.029" ry="8.968"/>
		
			<ellipse transform="matrix(0.4587 0.8886 -0.8886 0.4587 685.2411 -370.758)" fill="#8C8F36" cx="646.932" cy="377.055" rx="15.556" ry="10.707"/>
		
			<ellipse transform="matrix(0.9957 -0.0923 0.0923 0.9957 -61.1029 39.949)" fill="#AFBF36" cx="401.246" cy="680.419" rx="12.63" ry="6.695"/>
		<path fill="#AFBF36" d="M579.999,666.304c0.389,4.183-5.693,8.163-13.58,8.895c-7.889,0.731-14.598-2.063-14.985-6.243
			c-0.388-4.184,5.693-8.164,13.58-8.896C572.902,659.328,579.61,662.125,579.999,666.304z"/>
		
			<ellipse transform="matrix(0.9897 0.143 -0.143 0.9897 101.2549 -44.3194)" fill="#AFBF36" cx="359.025" cy="682.425" rx="7.435" ry="4.689"/>
		<g>
			<path fill="#F6EE5D" d="M294.717,538.497c0,0-39.27,12.317-80.695,43.513c0,0-6.703-5.397-9.579-5.396
				c0,0,3.928,1.093,10.188,5.726c6.259,4.632,21.163,7.789,31.267,4.252c0,0,23.474-19.315,44.196-19.005
				c20.723,0.313,32.517,15.644,29.651,24.271c-2.866,8.626-6.034,7.363-6.034,7.363s0.262-13.135-12.62-19.323
				c0,0,19.91,10.287,10.378,30.964c-7.852,17.029-14.798,7.79-14.798,7.79s7.767-21.578-10.23-30.292c0,0,18.88,8.588,8.715,33.471
				c-4.799,11.745-18.313-1.644-18.313-1.644s0-12.869-6.487-18.522c-0.671-0.584-1.411-1.091-2.228-1.5
				c0,0-12.77,21.272-24.004,6.376c0,0-2.232-3.412-2.817-6.376c0,0-46.306,4.867-55.526-8.899
				c-9.22-13.767,22.398-29.042,108.282-71.353"/>
			<g>
				<path d="M294.404,537.362c-8.513,2.675-16.788,6.326-24.87,10.071c-19.802,9.177-38.657,20.454-56.107,33.56
					c0.476,0.061,0.952,0.123,1.427,0.185c-2.843-2.279-6.62-5.54-10.411-5.742c-1.356-0.071-1.566,1.956-0.313,2.313
					c2.692,0.771,5.219,2.418,7.531,3.937c1.778,1.166,3.407,2.463,5.309,3.431c1.907,0.974,3.945,1.693,5.992,2.305
					c4.539,1.355,9.355,1.95,14.085,1.849c2.199-0.046,4.399-0.329,6.547-0.794c1.117-0.241,2.414-0.468,3.32-1.197
					c4.145-3.336,8.661-6.261,13.262-8.92c7.857-4.544,16.541-8.383,25.639-9.393c10.941-1.219,23.398,2.648,30.06,11.816
					c2.023,2.786,3.667,6.45,2.957,9.96c-0.471,2.328-1.676,5.045-3.407,6.723c-0.351,0.341-0.761,0.563-1.237,0.656
					c-0.099,0.021,0.05,0.044-0.162-0.034c0.288,0.378,0.576,0.757,0.864,1.135c0.132-8.647-5.676-16.613-13.203-20.341
					c-1.353-0.67-2.542,1.33-1.189,2.034c2.958,1.54,5.566,3.918,7.682,6.46c4.87,5.853,5.699,13.33,3.276,20.418
					c-1.445,4.229-6.524,15.473-12.711,11.219c-0.39-0.267-0.733-0.613-1.049-0.965c-0.567-0.63-0.089,1.549,0.226,0.576
					c0.498-1.538,0.841-3.126,1.105-4.719c0.758-4.569,0.692-9.307-0.675-13.756c-1.77-5.757-5.984-10.153-11.315-12.805
					c-0.396,0.679-0.792,1.354-1.189,2.033c8.856,4.067,12.223,14.517,10.718,23.559c-0.383,2.303-1.054,4.551-1.835,6.746
					c-0.712,2.004-1.529,4.093-3.435,5.233c-2.56,1.531-5.983-0.133-8.248-1.452c-1.874-1.09-3.61-2.447-5.187-3.933
					c-0.482-0.454,0.16,0.42,0.161,0.609c-0.001-0.227-0.01-0.454-0.019-0.681c-0.046-1.219-0.167-2.433-0.323-3.641
					c-0.815-6.309-2.995-13.439-8.957-16.67c-0.57-0.31-1.272-0.139-1.611,0.422c-2.226,3.688-5.335,7.212-9.017,9.467
					c-2.697,1.65-5.819,2.187-8.714,0.718c-3.646-1.851-6.056-6.048-6.938-9.903c-0.107-0.468-0.638-0.916-1.135-0.863
					c-9.072,0.947-18.321,1.107-27.418,0.553c-6.565-0.399-13.286-1.221-19.471-3.563c-3.527-1.336-7.417-3.743-8.645-7.3
					c-1.577-4.571,2.588-8.998,6.055-12.084c7.939-7.069,17.704-12.257,26.964-17.341c24.825-13.632,50.467-25.811,75.866-38.323
					c1.363-0.672,0.168-2.701-1.189-2.033c-19.547,9.63-39.138,19.183-58.518,29.146c-12.17,6.257-24.443,12.574-35.854,20.162
					c-5.49,3.649-12.441,8.146-15.157,14.473c-2.666,6.21,1.623,11.586,7.1,14.369c9.149,4.651,20.588,5.011,30.636,5.122
					c6.535,0.073,13.126-0.145,19.631-0.825c-0.379-0.288-0.757-0.576-1.136-0.866c0.997,4.355,3.571,8.401,7.301,10.889
					c3.139,2.095,6.874,1.969,10.227,0.532c4.787-2.053,8.798-6.75,11.446-11.139c-0.537,0.141-1.074,0.281-1.611,0.422
					c6.298,3.414,7.911,12.009,8.124,18.588c0.043,1.332,1.1,1.969,2.066,2.775c2.107,1.757,4.427,3.355,6.988,4.368
					c2.636,1.044,5.539,1.371,8.064-0.139c3.401-2.036,4.554-6.99,5.479-10.517c1.783-6.79,1.467-14.127-2.121-20.275
					c-2.045-3.505-5.355-6.92-9.099-8.639c-1.36-0.626-2.561,1.351-1.189,2.033c6.959,3.462,10.866,9.691,11.28,17.397
					c0.207,3.838-0.322,7.872-1.574,11.515c-0.325,0.945,0.854,1.865,1.494,2.374c1.432,1.134,3.174,1.809,5.021,1.634
					c2.919-0.277,5.248-2.498,6.905-4.748c2.854-3.873,4.96-8.535,5.86-13.269c1.946-10.245-4.043-20.659-13.146-25.399
					c-0.396,0.679-0.793,1.355-1.189,2.034c6.808,3.37,12.157,10.445,12.037,18.307c-0.008,0.557,0.373,0.954,0.864,1.137
					c1.307,0.483,2.76-0.41,3.691-1.228c2.404-2.111,3.905-6.086,4.224-9.197c0.619-6.033-3.88-11.844-8.2-15.485
					c-6.651-5.604-15.484-8.113-24.083-8.037c-8.94,0.079-17.693,3.479-25.557,7.475c-4.966,2.522-9.712,5.487-14.242,8.723
					c-1.208,0.863-2.396,1.754-3.565,2.67c-1.39,1.093-3.807,1.21-5.726,1.439c-7.232,0.859-15.227-0.441-21.781-3.635
					c-4.618-2.25-8.347-6.157-13.403-7.604c-0.104,0.771-0.208,1.541-0.313,2.313c1.926,0.103,3.91,1.635,5.457,2.66
					c1.128,0.747,2.233,1.546,3.289,2.393c0.381,0.305,0.978,0.521,1.427,0.183c17.329-13.013,36.026-24.175,55.655-33.349
					c8.035-3.754,16.283-7.38,24.759-10.044C296.475,539.18,295.857,536.904,294.404,537.362L294.404,537.362z"/>
			</g>
		</g>
		<g>
			<path fill="#F6EE5D" d="M648.541,480.25c0,0-7.666-33.007,109.88-2.78c106.092,27.281-66.685,59.613-66.685,59.613
				s-1.263,14.146-17.176,9.347l-7.832-1.517c0,0,8.84,21.219-5.557,22.229c-14.399,1.011-17.681-32.586-5.053-37.636
				c0,0-8.462,3.283-8.714,19.701c0,0-4.294,7.199-9.977-4.168c0,0-10.357-20.208,4.924-31.573c0,0-8.697,5.872-8.603,16.103
				c0.095,10.231-7.342,0.378-4.689-9c2.653-9.376,9.567-16.197,16.197-17.334c6.632-1.137,19.702-3.221,41.868,18.567
				c0,0,31.828-0.759,81.842-23.683c0,0-7.008-10.609-96.809-13.64"/>
			<g>
				<path d="M649.677,479.936c-0.034-0.141-0.08-0.522-0.006,0.023c-0.034-0.254-0.048-0.51-0.053-0.767
					c-0.021-1.144-0.002-1.195,0.347-2.352c0.29-0.968,1.025-2.291,1.672-3.075c1.263-1.531,2.597-2.486,4.307-3.438
					c6.08-3.387,13.597-4.08,20.408-4.351c14.363-0.569,28.834,1.49,42.933,4.006c10.8,1.929,21.515,4.324,32.166,6.945
					c7.777,1.914,15.554,3.908,23.065,6.719c4.309,1.613,8.624,3.519,12.363,6.233c2.042,1.48,4.057,3.482,4.668,5.893
					c0.483,1.899-0.216,3.817-1.441,5.575c-1.632,2.345-4.059,4.156-6.406,5.725c-7.094,4.742-15.248,7.931-23.233,10.817
					c-17.84,6.445-36.365,11.069-54.876,15.131c-4.71,1.033-9.429,2.04-14.168,2.926c-0.544,0.104-0.819,0.644-0.866,1.137
					c0,0.007-0.042,0.312-0.134,0.759c-0.166,0.803-0.414,1.586-0.712,2.349c-0.91,2.334-2.63,4.208-4.897,5.267
					c-3.357,1.567-6.907,0.425-10.3-0.233c-2.489-0.483-4.981-0.964-7.473-1.445c-0.771-0.151-1.824,0.542-1.447,1.447
					c1.443,3.483,2.414,7.326,2.62,11.089c0.139,2.553-0.147,5.422-1.887,7.431c-1.817,2.097-5.172,2.653-7.756,1.971
					c-5.412-1.429-7.662-8.349-8.582-13.164c-1.116-5.821-0.834-12.695,2.191-17.931c0.979-1.695,2.424-3.212,4.252-3.981
					c1.37-0.573,0.798-2.836-0.626-2.271c-3.265,1.298-5.584,4.664-6.991,7.716c-1.792,3.885-2.414,8.195-2.572,12.438
					c-0.015,0.365-0.067,0.437-0.523,0.893c-0.567,0.563-1.347,0.973-2.164,0.841c-2.653-0.434-4.359-4.169-5.351-6.31
					c-0.853-1.84-1.481-3.79-1.996-5.748c-1.893-7.199-1.368-15.113,3.697-20.924c0.903-1.036,1.95-1.96,3.04-2.792
					c1.174-0.897,0.09-2.907-1.189-2.036c-4.628,3.162-8.017,8.485-8.943,13.979c-0.338,1.996,0.017,4.103-0.572,6.044
					c-0.145,0.481-0.361,0.208,0.116,0.275c-0.164-0.023-0.311-0.202-0.418-0.305c-0.616-0.586-1-1.487-1.307-2.261
					c-1.912-4.8-0.693-9.851,1.51-14.311c2.118-4.29,5.462-8.063,9.731-10.277c2.097-1.088,4.517-1.438,6.843-1.675
					c5.086-0.521,10.054,0.463,14.775,2.359c3.811,1.531,7.363,3.717,10.714,6.069c2.143,1.502,4.181,3.143,6.17,4.838
					c1.078,0.919,2.128,1.87,3.17,2.828c0.878,0.809,2.101,2.605,3.265,2.925c1.525,0.42,3.777-0.188,5.292-0.349
					c12.76-1.357,25.351-4.425,37.605-8.158c13.622-4.149,26.905-9.376,39.853-15.294c0.561-0.256,0.754-1.115,0.422-1.611
					c-0.83-1.241-2.536-1.973-3.83-2.563c-5.559-2.526-11.714-3.8-17.676-4.938c-25.046-4.779-50.901-5.855-76.319-6.721
					c-1.519-0.053-1.515,2.305,0,2.355c19.679,0.671,39.389,1.712,58.943,4.088c9.489,1.153,19.094,2.542,28.281,5.259
					c2.695,0.798,5.019,1.548,7.342,2.886c0.265,0.153,0.523,0.315,0.775,0.49c0.452,0.313-0.074-0.093,0.3,0.23
					c0.176,0.153,0.447,0.551,0.149,0.104c0.141-0.538,0.281-1.074,0.422-1.611c-18.477,8.445-37.701,15.442-57.542,19.911
					c-7.691,1.731-15.628,3.292-23.534,3.604c-0.05,0.002-0.101,0.004-0.153,0.006c0.685-0.021-1.181-1.575-1.389-1.771
					c-2.164-2.042-4.42-3.983-6.748-5.832c-3.462-2.75-7.136-5.24-11.067-7.27c-5.074-2.621-10.656-4.332-16.397-4.336
					c-5.29-0.004-10.286,1.228-14.511,4.54c-6.956,5.456-11.645,15.75-8.821,24.435c0.571,1.755,1.905,4.805,4.185,4.688
					c3.063-0.16,2.462-5.355,2.599-7.235c0.37-5.124,3.735-10.479,7.952-13.359c-0.395-0.679-0.792-1.357-1.189-2.036
					c-6.422,4.899-9.378,12.06-8.865,20.057c0.286,4.469,1.504,9.051,3.489,13.074c1.343,2.723,3.347,6.174,6.548,6.949
					c1.868,0.452,3.702-0.525,4.891-1.916c0.336-0.393,0.75-0.857,0.763-1.403c0.061-2.683,0.322-5.325,0.937-7.943
					c0.721-3.063,2.032-6.071,4.158-8.424c0.611-0.677,1.298-1.286,2.061-1.786c0.189-0.124,1.246-0.632,0.693-0.414
					c-0.208-0.756-0.416-1.515-0.626-2.271c-5.149,2.161-7.431,7.611-8.288,12.807c-0.996,6.033-0.357,12.637,2.076,18.267
					c2.023,4.687,5.771,9.002,11.271,8.895c6.267-0.121,9.576-4.831,9.725-10.697c0.111-4.367-1.057-9.015-2.725-13.04
					c-0.483,0.483-0.967,0.967-1.45,1.45c2.603,0.504,5.204,1.006,7.807,1.51c4.208,0.815,8.002,1.698,12.078-0.208
					c3.824-1.785,6.229-6.17,6.616-10.269c-0.29,0.378-0.578,0.757-0.866,1.137c11.412-2.139,22.752-4.756,34.006-7.607
					c9.79-2.479,19.527-5.21,29.111-8.398c8.66-2.881,17.334-6.097,25.357-10.483c4.979-2.723,11.191-6.435,13.12-12.146
					c1.954-5.787-3.233-10.389-7.628-13.113c-4.33-2.684-9.177-4.554-13.973-6.21c-8.601-2.971-17.506-5.055-26.349-7.146
					c-17.788-4.206-35.876-7.803-54.132-9.147c-9.697-0.715-19.845-0.913-29.347,1.483c-4.483,1.131-9.281,3.057-12.302,6.721
					c-1.838,2.229-3.183,5.451-2.508,8.391C647.747,482.041,650.018,481.414,649.677,479.936L649.677,479.936z"/>
			</g>
		</g>
		<g>
			<path fill="#F6EE5D" d="M620.44,698.746c0,0,3.977,9.355,19.134-10.041c11.679-14.945,28.416-50.33,28.416-50.33
				s-33.847,63.403-34.605,65.929c-0.758,2.526-10.861,8.84-7.074,15.155c3.79,6.314,9.095,5.305,16.168,5.811
				c7.072,0.504,56.076,19.956,66.181,16.166c10.103-3.788,9.599-13.137,1.515-17.177l-10.357-4.8c0,0,21.344,5.937,15.914,17.809
				c0,0,9.347,1.011,9.221-6.945c-0.126-7.958-9.979-12.504-15.029-13.515c0,0,8.903,1.515,14.208,8.777
				c0,0,3.475,2.399,5.683-1.452c2.21-3.853,1.58-8.272-1.515-10.104s-9.41-4.483-16.229-3.284
				c-6.819,1.2-25.134-21.851-56.582-12.566c0,0,51.718-95.292,21.407-82.599c-30.313,12.692-51.979,76.623-51.979,76.623"/>
			<g>
				<path d="M619.423,699.341c0.773,1.782,2.786,2.763,4.632,2.837c2.166,0.088,4.292-1.049,6.034-2.211
					c3.651-2.435,6.628-5.865,9.374-9.241c4.973-6.109,9.025-12.956,12.926-19.777c3.973-6.951,7.7-14.044,11.311-21.188
					c1.809-3.576,3.592-7.169,5.309-10.79c0.641-1.355-1.311-2.544-2.036-1.189c-9.378,17.569-18.741,35.147-27.96,52.798
					c-1.912,3.664-3.834,7.324-5.668,11.025c-0.38,0.77-0.802,1.547-1.086,2.357c-0.332,0.941-1.397,1.775-2.065,2.475
					c-1.271,1.328-2.506,2.668-3.613,4.141c-2.12,2.824-3.069,6.25-1.286,9.477c1.922,3.479,5.286,5.359,9.124,5.896
					c3.002,0.42,6.334,0.107,9.097,0.666c1.92,0.389,3.809,0.975,5.683,1.54c13.092,3.951,25.958,8.617,39.206,12.057
					c5.403,1.403,11.067,2.853,16.685,2.891c5.714,0.04,11.777-3.983,12.317-9.973c0.412-4.569-3.33-8.355-7.162-10.13
					c-3.277-1.52-6.555-3.038-9.832-4.558c-0.302,0.719-0.605,1.436-0.907,2.154c6.544,1.834,19.008,7.363,15.21,16.077
					c-0.374,0.859,0.071,1.677,1.017,1.773c5.343,0.544,10.345-2.381,10.399-8.124c0.073-8.015-9.048-13.21-15.895-14.651
					c-0.208,0.759-0.418,1.515-0.626,2.273c2.254,0.395,4.447,1.292,6.466,2.34c1.956,1.017,3.721,2.332,5.292,3.874
					c1.126,1.104,1.744,2.42,3.261,2.977c3.985,1.463,6.529-2,7.422-5.495c1.076-4.213-1.013-7.586-4.672-9.45
					c-4.473-2.274-9.588-3.327-14.58-2.737c-1.779,0.213-3.067-0.157-4.763-1.01c-5.109-2.576-9.802-5.864-14.996-8.297
					c-12.015-5.628-25.086-6.798-37.868-3.103c0.445,0.575,0.889,1.153,1.332,1.729c7.689-14.17,14.786-28.745,21.048-43.601
					c2.189-5.197,19.195-42.729,3.649-41.92c-4.714,0.244-9.397,3.353-13.059,6.04c-5.624,4.126-10.384,9.349-14.624,14.853
					c-8.893,11.542-15.784,24.571-21.735,37.83c-2.924,6.515-5.706,13.149-8.002,19.916c-0.489,1.443,1.786,2.057,2.271,0.626
					c2.355-6.938,5.219-13.727,8.235-20.397c6.023-13.321,13.044-26.48,22.183-37.947c4.334-5.438,9.265-10.561,15.097-14.401
					c2.834-1.869,7.489-4.856,11.013-4.086c0.916,0.202,1.441,0.655,1.899,1.463c0.511,0.9,0.695,2.199,0.748,3.336
					c0.179,3.789-0.767,7.637-1.735,11.269c-2.834,10.63-7.244,20.87-11.748,30.878c-4.139,9.195-8.58,18.256-13.202,27.215
					c-1.336,2.59-2.683,5.178-4.071,7.739c-0.483,0.889,0.307,2.027,1.33,1.73c9.082-2.626,18.447-2.861,27.569-0.311
					c6.597,1.845,12.601,5.117,18.454,8.601c1.989,1.186,3.966,2.42,6.078,3.378c1.992,0.906,3.475,0.996,5.62,0.742
					c4.687-0.557,10.973,0.71,14.761,3.729c3.149,2.509,1.321,11.744-3.338,9.248c-0.403-0.216-0.775-0.962-1.111-1.354
					c-0.742-0.866-1.595-1.635-2.469-2.366c-1.502-1.254-3.178-2.281-4.928-3.151c-1.933-0.96-4.063-1.781-6.2-2.157
					c-1.475-0.259-2.126,1.956-0.626,2.273c5.8,1.218,12.857,4.943,14.078,11.267c0.977,5.069-3.643,7.319-7.956,6.878
					c0.34,0.591,0.679,1.183,1.017,1.773c4.588-10.523-8.29-17.204-16.618-19.538c-1.258-0.353-2.141,1.58-0.908,2.151
					c2.078,0.964,4.156,1.927,6.231,2.889c2.271,1.053,4.75,1.958,6.687,3.582c2.813,2.354,3.794,6.042,1.834,9.243
					c-1.536,2.509-4.811,4.307-7.727,4.521c-5.319,0.393-10.92-1.189-16.023-2.467c-7.076-1.771-14.051-3.941-20.998-6.151
					c-6.181-1.968-12.332-4.035-18.531-5.943c-1.996-0.615-4.002-1.223-6.04-1.695c-2.624-0.606-5.349-0.487-8.023-0.645
					c-4.168-0.244-8.593-1.853-9.874-6.309c-1.019-3.547,2.943-7.149,5.101-9.401c2.349-2.447,2.916-4.131,4.391-7.044
					c9.973-19.704,20.519-39.128,30.905-58.615c0.618-1.156,1.235-2.313,1.853-3.471c-0.679-0.396-1.357-0.792-2.036-1.189
					c-4.918,10.391-10.214,20.626-15.859,30.639c-3.889,6.899-7.939,13.823-12.849,20.057c-2.79,3.542-5.885,7.137-9.666,9.657
					c-1.45,0.967-3.385,2.013-5.193,1.609c-1.004-0.225-1.603-0.79-1.95-1.59C620.854,696.762,618.824,697.963,619.423,699.341
					L619.423,699.341z"/>
			</g>
		</g>
		<g>
			<path fill="#8C8F36" d="M570.714,238.911c-7.741,14.749-8.301,33.438-1.408,48.5c2.654,5.801,6.95,10.583,9.213,16.605
				c1.937,5.16,2.76,10.565,2.767,16.058c0.008,8.091-2.032,15.853-4.79,23.607c-2.229,6.266-3.981,12.723-3.67,19.441
				c0.269,5.824,2.076,11.393,4.893,16.469c2.782,5.012,6.609,8.679,9.244,13.778c4.754,9.2,6.271,20.032,6.326,30.271
				c0.027,5.381-0.447,10.756-1.454,16.042c-0.861,4.531-2.708,8.866-3.336,13.424c-1.122,8.164,1.199,16.021,4.029,23.604
				c3.16,8.469,6.718,16.771,8.649,25.639c1.025,4.713,1.412,9.334,1.233,14.286c-0.204,5.681-1.744,10.945-3.227,16.391
				c-2.622,9.611-3.46,19.834-0.891,29.544c1.704,6.439,5.13,12.099,8.172,17.949c0.302,0.585,0.592,1.173,0.874,1.766
				c0.139,0.292,0.271,0.586,0.401,0.88c0.456,1.023-0.397-0.987,0.015,0.046c0.502,1.259,0.887,2.557,1.153,3.883
				c0.057,0.283,0.2,1.376,0.023-0.017c0.04,0.314,0.061,0.63,0.084,0.945c0.046,0.646,0.036,1.296,0.006,1.943
				c-0.095,2.079-0.553,4.077-1.055,6.353c-2.422,10.954-6.536,21.551-6.908,32.885c-0.183,5.559,0.943,11.092,3.548,16.017
				c0.952,1.8,2.156,3.522,2.618,4.817c0.767,2.141,1.036,3.933,1.17,5.672c0.573,7.396-1.078,14.197-3.364,21.393
				c-0.876,2.763-1.886,5.485-2.991,8.166c-0.229,0.553,0.384-0.885-0.154,0.355c-0.157,0.363-0.317,0.723-0.481,1.084
				c-0.124,0.272-0.248,0.548-0.38,0.819c-1.113,2.313-0.655,5.071,1.691,6.445c2.08,1.218,5.332,0.624,6.445-1.689
				c6.036-12.533,10.714-27.971,7.937-41.878c-0.435-2.175-1.248-4.248-2.191-6.248c-0.958-2.033-2.405-3.805-3.166-5.903
				c-1.634-4.504-1.527-9.493-0.821-14.252c1.624-10.939,5.918-21.277,7.351-32.261c0.823-6.3-1.532-12.022-4.458-17.462
				c-1.433-2.664-2.927-5.29-4.21-8.029c-0.164-0.353-0.323-0.71-0.481-1.067c-0.534-1.208,0.361,0.897-0.141-0.342
				c-0.309-0.763-0.588-1.536-0.855-2.313c-0.62-1.809-1.088-3.664-1.452-5.54c-0.296-1.519-0.441-2.971-0.527-5.149
				c-0.099-2.485,0.052-4.977,0.321-7.445c0.62-5.72,2.672-11.104,3.924-16.685c2.366-10.542,1.668-21.365-1.067-31.758
				c-2.256-8.572-5.967-16.639-8.887-24.985c-0.624-1.782-1.187-3.584-1.681-5.408c-0.235-0.873-0.439-1.754-0.626-2.64
				c-0.092-0.434-0.172-0.87-0.25-1.306c-0.05-0.288-0.097-0.577-0.139-0.866c0.067,0.534,0.065,0.521-0.002-0.04
				c-0.198-1.689-0.227-3.393-0.116-5.09c0.01-0.143,0.168-1.531,0.017-0.421c0.057-0.419,0.137-0.834,0.219-1.249
				c0.204-1.048,0.525-2.063,0.853-3.076c3.449-10.622,4.504-22.193,3.783-33.301c-0.708-10.93-3.265-22.019-8.821-31.546
				c-2.931-5.026-7.034-9.07-9.458-14.44c-1.916-4.25-2.267-8.635-1.876-13.205c0.002-0.022,0.2-1.629,0.065-0.678
				c0.065-0.458,0.147-0.914,0.231-1.369c0.153-0.847,0.349-1.686,0.555-2.521c0.363-1.469,0.819-2.911,1.273-4.354
				c0.744-2.362,1.637-4.674,2.403-7.029c2.943-9.028,4.49-18.686,3.55-28.174c-0.624-6.306-2.336-12.257-5.031-17.986
				c-2.708-5.758-6.962-10.52-9.136-16.566c-2.919-8.124-2.901-16.96-1.135-24.962c0.654-2.97,1.563-5.887,2.668-8.719
				c0.074-0.186,0.147-0.372,0.223-0.557c0.384-0.953-0.437,1.016-0.065,0.147c0.16-0.373,0.328-0.743,0.5-1.111
				c0.13-0.279,0.263-0.559,0.405-0.832C581.671,238.292,573.539,233.529,570.714,238.911L570.714,238.911z"/>
		</g>
		<g>
			<path d="M370.252,329.774c-0.418,0.332,0.439-0.314,0.65-0.46c0.83-0.575,1.689-1.108,2.558-1.623
				c3.276-1.939,6.747-3.55,10.284-4.948c13.62-5.383,28.37-7.608,42.944-8.073c10.794-0.344,21.607,0.387,32.307,1.808
				c1.502,0.2,1.483-2.158,0-2.355c-19.186-2.548-38.826-2.799-57.854,1.083c-9.844,2.008-19.708,5.17-28.448,10.206
				c-1.415,0.815-2.825,1.68-4.106,2.697C367.397,329.053,369.076,330.708,370.252,329.774L370.252,329.774z"/>
		</g>
		<g>
			<path d="M338.424,364.633c0.847-0.722,1.089-0.881,1.98-1.54c2.083-1.542,4.243-2.979,6.438-4.355
				c8-5.015,16.553-9.149,25.334-12.594c31.355-12.3,65.68-15.425,99.037-12.186c9.738,0.946,19.412,2.483,28.992,4.456
				c1.483,0.306,2.113-1.965,0.626-2.271c-36.945-7.606-75.624-8.254-112.136,1.991c-17.44,4.893-35.017,12.185-49.65,23.052
				c-0.774,0.576-1.551,1.157-2.286,1.783C335.601,363.954,337.275,365.612,338.424,364.633L338.424,364.633z"/>
		</g>
		<g>
			<path fill="#FFFFFF" d="M432.194,355.215c0,0-27.158,33.591-3.92,65.418c23.239,31.828,81.336,14.651,93.462-6.567
				c12.124-21.219,8.979-49.35-9.655-66.102"/>
			<g>
				<path d="M431.361,354.382c-6.457,8.015-10.845,18.325-12.742,28.368c-3.317,17.571,3.017,36.605,17.556,47.445
					c11.882,8.857,27.704,10.332,41.966,8.382c13.471-1.84,27.422-6.983,37.817-15.941c9.626-8.295,13.695-21.839,14.136-34.184
					c0.552-15.502-5.688-30.867-17.182-41.32c-1.121-1.019-2.792,0.642-1.666,1.666c14.366,13.066,19.55,33.359,14.681,51.973
					c-1.853,7.082-5.012,13.941-10.353,19.038c-4.664,4.45-10.414,7.731-16.269,10.342c-13.508,6.026-29.364,8.593-43.962,5.713
					c-7.217-1.424-14.136-4.416-19.803-9.149c-7.291-6.088-12.229-15.004-14.382-24.18c-2.562-10.923-0.508-22.461,3.879-32.634
					c1.522-3.529,3.354-6.929,5.422-10.168c0.604-0.946,1.235-1.875,1.892-2.784c0.331-0.458,0.573-0.774,0.675-0.902
					C433.97,354.878,432.314,353.2,431.361,354.382L431.361,354.382z"/>
			</g>
		</g>
		<g>
			<path fill="#FFFFFF" d="M337.591,382.301c0,0-19.449,31.261,0,50.963c0,0,50.267,16.671,73.507,10.104
				c0,0,13.352-7.892,13.433-28.638c0,0-7.699-13.423-4.63-32.429c0,0-2.677-13.645-16.918-21.472"/>
			<g>
				<path d="M336.575,381.707c-5.677,9.159-9.231,20.745-8.757,31.522c0.177,4.033,1.091,7.958,2.662,11.671
					c0.826,1.953,1.918,3.781,3.149,5.501c0.85,1.189,2.236,3.532,3.664,4.004c2.838,0.939,5.708,1.782,8.582,2.606
					c14.143,4.058,28.662,7.403,43.343,8.678c7.004,0.609,14.266,0.737,21.146-0.909c3.184-0.761,5.805-3.975,7.725-6.419
					c4.878-6.205,7.171-13.892,7.574-21.703c0.114-2.226-0.456-3.046-1.295-4.976c-1.304-2.997-2.206-6.18-2.886-9.37
					c-1.057-4.956-1.313-10.048-0.978-15.096c0.172-2.585,0.802-4.622,0.032-7.059c-2.027-6.418-6.093-12.16-11.236-16.457
					c-1.775-1.482-3.708-2.759-5.722-3.889c-1.326-0.744-2.514,1.291-1.189,2.034c6.985,3.918,12.532,10.046,15.395,17.559
					c0.301,0.79,0.563,1.596,0.787,2.412c0.223,0.811,0.057,1.015-0.06,1.918c-0.667,5.169-0.68,10.39,0.065,15.552
					c0.787,5.449,2.234,11.065,4.882,15.937c0.062,0.114-0.138,1.108-0.151,1.435c-0.049,1.299-0.172,2.6-0.347,3.89
					c-0.311,2.293-0.861,4.549-1.579,6.748c-1.1,3.372-2.804,6.531-4.931,9.363c-1.333,1.776-2.928,3.39-4.658,4.78
					c-1.146,0.921-2.014,1.084-3.505,1.391c-7.148,1.471-14.723,0.984-21.925,0.229c-14.279-1.499-28.406-4.94-42.16-8.987
					c-1.6-0.47-5.217-1.062-6.186-2.062c-5.647-5.827-8.023-13.694-7.879-21.677c0.169-9.408,3.515-19.439,8.472-27.438
					C339.411,381.601,337.373,380.418,336.575,381.707L336.575,381.707z"/>
			</g>
		</g>
		<g>
			<ellipse fill="#25B8EB" cx="401.345" cy="389.313" rx="17.528" ry="17.681"/>
			<g>
				<path d="M417.695,389.313c-0.137,9.036-7.27,16.364-16.35,16.503c-9.08,0.14-16.217-7.678-16.351-16.503
					c-0.137-9.037,7.476-16.368,16.351-16.504C410.426,372.669,417.561,380.487,417.695,389.313c0.023,1.518,2.378,1.52,2.355,0
					c-0.13-8.598-5.812-16.073-14.155-18.298c-8.338-2.223-17.113,2.066-21.116,9.532c-4.09,7.627-2.082,17.268,4.268,22.974
					c6.41,5.761,16.207,6.066,23.162,1.139c4.964-3.517,7.75-9.325,7.841-15.347C420.074,387.793,417.718,387.795,417.695,389.313z"
					/>
			</g>
		</g>
		<ellipse cx="404.152" cy="388.541" rx="8.209" ry="7.34"/>
		<g>
			
				<ellipse transform="matrix(0.9839 -0.1786 0.1786 0.9839 -58.9673 96.3594)" fill="#25B8EB" cx="505.571" cy="375.607" rx="19.956" ry="17.467"/>
			<g>
				<path d="M524.068,372.355c1.619,9.838-6.679,17.547-15.691,19.303c-9.128,1.777-19.407-3.242-21.307-12.799
					c-1.94-9.776,6.929-17.596,15.693-19.302C511.892,357.781,522.169,362.798,524.068,372.355c0.296,1.49,2.567,0.857,2.272-0.626
					c-1.697-8.542-9.327-13.817-17.635-14.748c-8.774-0.983-17.991,3.566-22.178,11.378c-3.992,7.449-1.714,16.492,4.839,21.611
					c7.07,5.521,17.138,5.543,24.84,1.374c7.068-3.826,11.453-11.596,10.133-19.616C526.094,370.233,523.825,370.87,524.068,372.355
					z"/>
			</g>
		</g>
		<ellipse transform="matrix(0.9839 -0.1786 0.1786 0.9839 -58.8366 96.6317)" cx="507.273" cy="375.094" rx="9.139" ry="7.231"/>
		<g>
			<path d="M423.937,439.321c-1.042,0.568-1.959,0.853-3.359,1.296c-3.644,1.151-7.445,1.808-11.237,2.222
				c-16.556,1.808-33.51-0.822-49.601-4.607c-7.8-1.835-15.425-4.526-23.454-5.196c-4.112-0.342-8.526-0.18-12.392,1.401
				c-5.839,2.389-8.196,8.055-5.662,13.849c3.425,7.834,12.126,12.569,19.726,15.417c13.924,5.219,29.51,5.364,44.08,3.478
				c5.724-0.741,11.392-1.852,16.996-3.225c1.475-0.361,0.849-2.633-0.627-2.271c-16.565,4.057-34.221,5.956-51.047,2.302
				c-9.117-1.98-19.558-5.899-25.28-13.739c-3.306-4.527-3.785-10.286,1.697-13.181c3.474-1.834,7.75-1.952,11.577-1.739
				c7.889,0.435,15.446,3.172,23.067,5.011c16.206,3.912,33.273,6.523,49.973,4.953c5.519-0.519,11.648-1.333,16.666-3.901
				c0.022-0.012,0.045-0.022,0.066-0.035C426.46,440.627,425.271,438.593,423.937,439.321L423.937,439.321z"/>
		</g>
		<g>
			<path d="M455.242,446.036c6.313,1.676,12.919,2.542,19.412,3.09c12.811,1.081,26.206,0.373,38.335-4.19
				c10.342-3.891,19.08-10.929,24.415-20.675c0.729-1.333-1.305-2.522-2.034-1.189c-13.42,24.518-45.159,26.425-69.78,22.622
				c-3.256-0.503-6.534-1.083-9.722-1.93C454.399,443.375,453.775,445.646,455.242,446.036L455.242,446.036z"/>
		</g>
		<g>
			<path d="M320.76,392.855c6.698-4.787,14.516-8.311,22.004-11.617c22.508-9.939,46.486-16.542,70.554-21.415
				c37.386-7.571,75.622-10.605,113.723-10.964c1.519-0.014,1.52-2.37,0-2.355c-40.576,0.382-81.3,3.828-121.003,12.443
				c-22.934,4.976-45.69,11.685-67.081,21.432c-6.6,3.007-13.456,6.205-19.386,10.443
				C318.347,391.696,319.521,393.741,320.76,392.855L320.76,392.855z"/>
		</g>
		<g>
			<path fill="#F2CBBA" d="M332.288,557.417c0,0-8.842,4.42-13.894,3.916c-5.052-0.506-5.815-0.759-4.676-3.916
				c1.139-3.157,0.634-27.407,29.936-44.584c0,0-0.695-0.314-1.263,0c-0.568,0.315,28.543-53.55,96.367-58.477
				c67.823-4.925,124.374,30.312,127.215,33.344l-2.369,0.379c0,0,42.815,14.777,35.618,30.122
				c-7.2,15.347-21.788,1.137-21.788,1.137s3.032,4.104,9.032,5.811c0,0-3.46,111.139-124.847,111.458
				C353.505,636.892,332.288,557.417,332.288,557.417z"/>
			<g>
				<path fill="#B76E57" d="M331.545,556.146c-2.413,1.199-4.951,2.168-7.532,2.931c-1.826,0.537-3.709,0.924-5.618,0.783
					c-1.036-0.075-2.082-0.206-3.097-0.427c-0.273-0.061-0.487-0.132-0.727-0.269c0.308,0.175,0.114,0.359,0.159,0.044
					c0.18-1.269,0.67-2.522,0.866-3.813c0.291-1.91,0.619-3.81,1.049-5.693c3.548-15.54,14.243-27.601,27.754-35.599
					c1.15-0.681,0.824-2.282-0.352-2.691c-0.683-0.237-1.366-0.217-2.05,0.002c0.378,0.049,0.756,0.099,1.135,0.149
					c-0.001-0.002-0.002-0.002-0.003-0.002c0.226,0.292,0.451,0.586,0.677,0.878c0.098,0.409-0.191,1.166,0.007,0.769
					c0.136-0.272,0.286-0.54,0.435-0.805c0.513-0.913,1.067-1.805,1.633-2.685c1.967-3.065,4.141-5.998,6.435-8.825
					c7.655-9.433,16.739-17.723,26.786-24.547c13.98-9.496,29.855-15.845,46.468-18.869c21.185-3.857,43.498-2.412,64.53,1.687
					c17.39,3.388,34.404,8.905,50.552,16.186c5.415,2.443,10.739,5.102,15.912,8.025c1.718,0.972,3.419,1.979,5.086,3.038
					c0.571,0.362,1.139,0.733,1.698,1.114c0.22,0.151,0.441,0.306,0.658,0.462c0.108,0.075,0.739,0.554,0.379,0.273
					c0.191,0.148,0.38,0.302,0.548,0.477c0.216-0.819,0.433-1.641,0.649-2.46c-0.79,0.126-1.579,0.252-2.368,0.378
					c-1.561,0.25-1.24,2.41,0,2.84c8.624,2.983,17.177,6.945,24.771,12.009c4.187,2.792,9.313,6.622,10.458,11.838
					c0.632,2.878-1.076,5.823-2.905,7.896c-2.284,2.581-5.481,3.044-8.666,2.143c-3.088-0.874-6.094-2.859-8.395-5.086
					c-1.162-1.124-3.347,0.407-2.313,1.783c2.41,3.204,6.13,5.341,9.91,6.487c-0.359-0.475-0.721-0.947-1.08-1.42
					c-0.282,8.867-2.25,17.712-4.744,26.411c-5.456,19.049-15.132,36.965-29.191,51.038c-20.363,20.383-48.288,29.987-76.591,32.067
					c-33.089,2.435-68.111-3.155-96.328-21.399c-16.603-10.733-30.342-25.854-39.247-43.519c-2.094-4.153-3.969-8.181-5.185-12.721
					c-0.491-1.834-3.332-1.055-2.84,0.781c2.574,9.607,7.93,18.857,13.561,26.935c13.706,19.662,33.343,34.266,55.607,42.923
					c16.096,6.258,33.32,9.269,50.521,10.155c17.663,0.912,35.606-0.349,52.726-4.956c24.652-6.637,46.36-20.971,61.33-41.718
					c10.519-14.578,17.437-31.708,21.05-49.27c1.126-5.473,2.097-11.128,2.275-16.729c0.021-0.664-0.469-1.233-1.082-1.42
					c-2.227-0.677-4.296-1.706-6.116-3.166c-0.54-0.433-1.042-0.914-1.525-1.412c-0.132-0.139-0.819-0.967-0.511-0.555
					c-0.771,0.595-1.54,1.189-2.311,1.784c3.076,2.977,7.193,5.521,11.443,6.239c6.813,1.151,12.748-4.456,13.62-11.055
					c0.677-5.122-3.403-9.71-6.958-12.803c-4.769-4.149-10.42-7.271-16.076-10.031c-4.677-2.284-9.506-4.369-14.428-6.071
					c0,0.946,0,1.893,0,2.84c0.789-0.126,1.579-0.254,2.369-0.38c1.143-0.183,1.349-1.734,0.649-2.46
					c-1.644-1.707-4.061-2.931-6.065-4.135c-4.53-2.725-9.231-5.168-13.99-7.464c-15.07-7.272-30.963-12.895-47.229-16.808
					c-20.851-5.016-42.63-7.109-64.018-5.111c-17.576,1.642-34.68,6.946-50.038,15.652c-11.531,6.537-21.991,15.006-30.929,24.784
					c-4.847,5.303-9.49,11.069-13.041,17.34c-0.195,0.345-0.394,0.693-0.553,1.057c-0.187,0.425-0.304,0.761-0.187,1.246
					c0.333,1.383,1.446,0.735,2.299,1.033c-0.117-0.896-0.234-1.794-0.352-2.69c-13.829,8.185-24.795,20.449-28.832,36.223
					c-0.803,3.139-0.856,6.586-1.918,9.636c-1.153,3.312,0.93,4.726,3.974,5.127c4.231,0.559,7.96-0.25,11.935-1.729
					c1.683-0.626,3.353-1.33,4.961-2.13C334.731,557.844,333.239,555.304,331.545,556.146z"/>
			</g>
		</g>
		<g>
			<path fill="#B76E57" d="M339.012,532.314c5.147-5.589,11.462-9.973,17.775-14.082c16.978-11.051,36.076-18.626,55.703-23.435
				c31.471-7.713,64.392-8.007,96.395-3.771c24.071,3.188,47.758,9.099,70.811,16.66c1.809,0.592,2.578-2.252,0.781-2.841
				c-38.504-12.628-78.991-20.569-119.648-19.367c-26.709,0.79-53.485,5.697-78.222,15.964
				c-14.16,5.876-27.779,13.458-39.619,23.254c-2.096,1.735-4.211,3.529-6.059,5.536
				C335.646,531.625,337.723,533.714,339.012,532.314L339.012,532.314z"/>
		</g>
		<g>
			<path fill="#FFFFFF" d="M354.263,520.159c0,0-1.516,42.185,24.502,70.475c0,0-17.397-35.71-2.526-81.584"/>
			<g>
				<path d="M353.085,520.159c-0.289,8.309,0.896,16.825,2.537,24.94c3.434,16.992,10.546,33.471,22.31,46.366
					c0.951,1.044,2.407-0.28,1.85-1.427c-3.406-7.02-5.289-15.162-6.641-22.843c-3.393-19.277-1.735-39.229,4.234-57.834
					c0.466-1.449-1.81-2.066-2.271-0.626c-6.023,18.771-7.578,38.693-4.394,58.151c1.344,8.21,3.38,16.805,7.038,24.34
					c0.617-0.475,1.233-0.951,1.85-1.426c-11.522-12.633-18.285-28.725-21.704-45.328c-1.628-7.901-2.734-16.218-2.452-24.314
					C355.494,518.64,353.138,518.645,353.085,520.159L353.085,520.159z"/>
			</g>
		</g>
		<g>
			<path fill="#FFFFFF" d="M518.453,492.877c0,0,15.156,32.332,10.357,80.58c0,0,18.943-24.502,17.428-74.769"/>
			<g>
				<path d="M517.436,493.472c3.086,6.605,5.193,14.593,6.859,21.916c4.319,18.994,5.225,38.708,3.336,58.069
					c-0.128,1.313,1.574,1.401,2.195,0.595c3.933-5.104,6.584-11.443,8.872-17.399c6.362-16.571,8.766-34.55,8.804-52.225
					c0.004-1.914-0.031-3.828-0.086-5.739c-0.043-1.517-2.399-1.521-2.356,0c0.526,18.659-1.545,37.54-7.839,55.19
					c-2.327,6.523-5.198,13.381-9.408,18.956c-0.008,0.009-0.015,0.02-0.022,0.027c0.732,0.197,1.463,0.397,2.195,0.595
					c1.911-19.595,0.895-39.471-3.421-58.695c-1.704-7.588-3.789-15.399-7.097-22.477
					C518.827,490.909,516.796,492.106,517.436,493.472L517.436,493.472z"/>
			</g>
		</g>
		<g>
			<path fill="#C7942C" d="M447.978,652.207c0,0-12.125,51.497-41.426,86.373c0,0,21.38-7.057,50.095-4.531
				c28.716,2.525,26.189,2.438,26.189,2.438s13.135-26.688,21.218-87.817"/>
			<g>
				<path fill="#8B4820" d="M446.842,651.894c-1.934,8.193-4.63,16.25-7.491,24.157c-6.255,17.286-14.166,34.107-24.417,49.399
					c-2.854,4.257-5.927,8.365-9.216,12.296c-0.698,0.837-0.068,2.368,1.146,1.969c3.685-1.21,7.536-1.993,11.341-2.704
					c9.732-1.813,19.667-2.508,29.558-2.285c9.592,0.216,19.194,1.393,28.745,2.283c1.671,0.155,3.344,0.312,5.014,0.485
					c0.319,0.034,0.64,0.067,0.959,0.105c0.452,0.053-0.23-0.053,0.076,0.011c0.198,0.042,0.304,0.437-0.498-0.297
					c-0.101-0.382-0.202-0.763-0.303-1.145c0.079-0.557,0.908-0.868,1.08-0.861c0.339,0.59,0.678,1.181,1.017,1.771
					c2.285-4.651,3.959-9.661,5.587-14.569c4.945-14.901,8.473-30.271,11.352-45.692c1.743-9.339,3.188-18.731,4.44-28.147
					c0.199-1.502-2.16-1.483-2.356,0c-2.654,19.971-6.252,39.865-11.54,59.317c-2.374,8.735-5.125,17.76-8.641,25.958
					c-0.28,0.653-0.563,1.307-0.876,1.947c-0.396,0.805,0.083,1.739,1.017,1.771c0.903,0.029,1.544-0.973,1.073-1.775
					c-0.344-0.588-0.95-0.588-1.54-0.657c-3.855-0.445-7.731-0.752-11.596-1.103c-11.084-1.004-22.117-2.133-33.262-1.653
					c-8.36,0.361-16.725,1.443-24.89,3.285c-2.141,0.483-4.295,1-6.383,1.686c0.382,0.655,0.764,1.313,1.146,1.968
					c12.332-14.745,21.624-31.838,29.055-49.502c4.786-11.374,8.912-23.077,12.07-35.012c0.209-0.79,0.416-1.582,0.604-2.379
					C449.462,651.041,447.191,650.415,446.842,651.894L446.842,651.894z"/>
			</g>
		</g>
		
			<ellipse transform="matrix(0.9832 0.1826 -0.1826 0.9832 137.8067 -68.5095)" fill="#8A4720" cx="440.928" cy="714.072" rx="3.153" ry="3.505"/>
		<circle fill="#8A4720" cx="448.179" cy="706.691" r="2.627"/>
		<circle fill="#8A4720" cx="441.906" cy="700.18" r="2.628"/>
		<g>
			<path d="M327.993,662.919c8.666-0.708,17.331-1.414,25.997-2.12c20.96-1.71,41.92-3.42,62.881-5.13
				c25.701-2.097,51.402-4.193,77.103-6.29c22.887-1.865,45.773-3.733,68.661-5.599c12.518-1.023,25.037-2.044,37.556-3.065
				c3.145-0.256,6.267-0.705,9.399-1.103c11.918-1.504,23.836-3.011,35.754-4.515c3.605-0.456,7.21-0.912,10.815-1.367
				c1.487-0.188,1.504-2.545,0-2.355c-17.935,2.265-35.87,4.531-53.804,6.796c-7.992,1.009-16.13,1.328-24.156,1.983
				c-20.569,1.679-41.14,3.355-61.709,5.033c-25.65,2.093-51.299,4.186-76.95,6.277c-23.175,1.889-46.351,3.779-69.527,5.671
				c-13.147,1.073-26.295,2.145-39.442,3.216c-0.859,0.071-1.718,0.141-2.578,0.21C326.49,660.686,326.478,663.043,327.993,662.919
				L327.993,662.919z"/>
		</g>
	</g>
</g>
</svg>
