<?xml version="1.0" encoding="utf-8"?>
<!-- Generator: Adobe Illustrator 15.1.0, SVG Export Plug-In . SVG Version: 6.00 Build 0)  -->
<!DOCTYPE svg PUBLIC "-//W3C//DTD SVG 1.1//EN" "http://www.w3.org/Graphics/SVG/1.1/DTD/svg11.dtd">
<svg version="1.1" id="Layer_1" xmlns="http://www.w3.org/2000/svg" xmlns:xlink="http://www.w3.org/1999/xlink" x="0px" y="0px"
	 width="70px" height="70px" viewBox="0 0 70 70" enable-background="new 0 0 70 70" xml:space="preserve">
<g>
	<g>
		<g>
			<path fill="#FAE373" d="M36.884,0.343c-0.524,0.065-1.312-0.128-1.673,0.098C35.734,0.377,36.52,0.569,36.884,0.343z"/>
			<path fill="#FAE373" d="M54.297,6.331c1.665,1.286,3.021,2.956,4.428,4.514c4.387,4.861,8.242,9.535,9.737,17.276
				c0.978,5.05,0.738,11.379-0.588,16.291c-0.795,2.936-2.47,5.754-3.937,8.441c-0.701,1.278-1.787,2.239-2.756,3.434
				c-0.969,1.195-1.754,2.529-2.755,3.436c-2.683,2.428-6.424,3.721-9.935,5.201c-1.815,0.766-3.717,1.35-5.51,2.063
				c-1.932,0.771-3.563,1.564-5.709,1.865c-4.365,0.613-9.251-0.01-13.181-1.571c-2.593-1.027-5.17-2.746-7.574-3.826
				c-0.925-0.416-1.912-0.621-2.755-1.08c-2.065-1.119-3.612-3.365-5.215-5.299c-3.096-3.736-4.927-7.953-6.394-13.056
				C-0.17,35.934,1.26,26.292,4.321,19.482c2.106-4.694,4.289-8.898,7.967-11.58c1.688-1.234,3.963-2.365,6.099-3.435
				c5.882-2.95,13.706-4.123,23.021-3.435C46.915,1.438,50.87,3.687,54.297,6.331z M41.604,2.11
				c-8.796-0.608-16.953,0.602-22.921,3.435c-0.995,0.472-1.992,0.997-2.952,1.473c-1.325,0.658-2.494,1.25-3.54,2.06
				c-2.472,1.912-4.028,4.371-5.607,7.264c-1.584,2.902-2.522,5.617-3.247,9.617c-0.681,3.76-1.437,7.811-1.082,11.58
				c0.822,8.729,3.709,15.023,8.362,20.318c1.046,1.191,1.677,2.357,2.854,3.142c0.755,0.5,1.725,0.797,2.656,1.176
				c2.448,0.994,5.001,2.531,7.575,3.634c3.807,1.627,8.645,2.496,12.593,2.061c2.015-0.221,3.781-0.953,5.806-1.766
				c1.891-0.756,3.811-1.283,5.508-1.963c3.404-1.365,7.451-2.627,10.23-4.812c1.028-0.81,1.844-2.179,2.854-3.437
				c0.776-0.969,1.711-1.91,2.263-2.844c0.81-1.373,1.356-2.996,2.065-4.516c0.725-1.549,1.521-3.064,1.869-4.713
				c0.481-2.279,0.668-5.125,0.786-7.754c0.128-2.8,0.04-5.646-0.396-8.146c-0.854-4.955-3.059-8.264-5.407-11.68
				c-2.239-3.246-4.683-6.543-8.067-9.028c-3.133-2.299-7.048-5.228-12.002-5.104C41.736,2.112,41.671,2.114,41.604,2.11z"/>
			<path fill="#C09B56" d="M41.803,2.11c4.954-0.123,8.869,2.805,12.002,5.104c3.387,2.485,5.828,5.782,8.067,9.028
				c2.351,3.416,4.554,6.725,5.407,11.68c0.436,2.5,0.521,5.346,0.396,8.146c-0.118,2.629-0.305,5.474-0.786,7.752
				c-0.348,1.648-1.146,3.164-1.869,4.714c-0.709,1.521-1.256,3.143-2.065,4.516c-0.552,0.935-1.485,1.875-2.263,2.845
				c-1.01,1.258-1.824,2.627-2.854,3.436c-2.779,2.184-6.826,3.445-10.23,4.811c-1.697,0.68-3.617,1.207-5.508,1.963
				c-2.023,0.813-3.791,1.545-5.806,1.767c-3.948,0.437-8.786-0.435-12.593-2.062c-2.574-1.102-5.127-2.639-7.575-3.633
				C15.194,61.797,14.225,61.5,13.47,61c-1.177-0.783-1.808-1.949-2.854-3.141c-4.653-5.295-7.54-11.592-8.362-20.319
				C1.9,33.77,2.655,29.72,3.336,25.96c0.725-4,1.663-6.715,3.247-9.617c1.579-2.893,3.136-5.352,5.607-7.264
				c1.046-0.81,2.215-1.402,3.54-2.06c0.96-0.476,1.957-1.001,2.952-1.473c5.969-2.833,14.125-4.043,22.921-3.435
				C41.671,2.114,41.736,2.112,41.803,2.11z M41.212,2.601c-8.905-0.524-16.813,0.565-22.627,3.533
				c-2.073,1.06-4.478,2.021-6.101,3.239c-1.412,1.062-2.818,2.706-3.837,4.22C6.803,16.342,4.92,20.289,4.025,24.88
				c-0.869,4.471-1.722,9.624-1.08,14.134c0.957,6.758,3.056,12.532,6.687,17.079c1.328,1.658,2.748,3.597,4.429,4.611
				c0.808,0.487,1.797,0.766,2.755,1.18c5.472,2.339,13.112,7.195,21.149,5.201c1.727-0.433,3.359-1.317,5.116-1.965
				c1.746-0.646,3.515-1.19,5.215-1.865c3.216-1.271,7.183-2.604,9.738-4.709c0.836-0.688,1.536-2.028,2.265-2.944
				c0.819-1.037,1.688-1.863,2.264-2.847c0.778-1.342,1.301-2.944,1.965-4.418c0.701-1.549,1.434-3.024,1.771-4.612
				c0.859-4.043,1.204-9.087,0.69-13.741c-0.482-4.356-1.883-7.864-3.84-10.992c-1.854-2.97-4.045-5.901-6.394-8.44
				c-1.163-1.257-2.471-2.515-3.935-3.533C49.667,4.82,46.329,2.902,41.212,2.601z"/>
			<path fill="#FAE373" d="M41.212,2.601c-8.905-0.524-16.813,0.565-22.627,3.533c-2.073,1.06-4.478,2.021-6.101,3.239
				c-1.412,1.062-2.818,2.706-3.837,4.22C6.803,16.342,4.92,20.289,4.025,24.88c-0.869,4.471-1.722,9.624-1.08,14.134
				c0.957,6.758,3.056,12.532,6.687,17.079c1.328,1.658,2.748,3.597,4.429,4.611c0.808,0.487,1.797,0.766,2.755,1.18
				c5.472,2.339,13.112,7.195,21.149,5.201c1.727-0.433,3.359-1.317,5.116-1.965c1.746-0.646,3.515-1.19,5.215-1.865
				c3.216-1.271,7.183-2.604,9.738-4.709c0.836-0.688,1.536-2.028,2.265-2.944c0.819-1.037,1.688-1.863,2.264-2.847
				c0.778-1.342,1.301-2.944,1.965-4.418c0.701-1.549,1.434-3.024,1.771-4.612c0.859-4.043,1.204-9.087,0.69-13.741
				c-0.482-4.356-1.883-7.864-3.84-10.992c-1.854-2.97-4.045-5.901-6.394-8.44c-1.163-1.257-2.471-2.515-3.935-3.533
				C49.667,4.82,46.329,2.902,41.212,2.601z"/>
			<path fill="#C09B56" d="M69.544,36.657c-0.379,2.646-0.519,5.018-0.983,7.262c-0.465,2.236-1.584,4.021-2.459,5.892
				c-0.869,1.86-1.73,3.645-3.147,5.2c-1.347,1.479-2.288,3.296-3.64,4.712c-2.318,2.426-6.543,4.028-10.133,5.596
				c-1.812,0.789-3.781,1.266-5.806,2.061c-2.024,0.797-3.806,1.797-5.804,2.061c-10.694,1.404-17.579-3.828-24.398-6.772
				c-0.202-0.026-0.192-0.263-0.393-0.293c-2.965-2.502-5.559-5.738-7.574-9.226c-1.773-3.065-2.802-5.932-3.838-9.815
				c-1.417-5.304-1.028-10.79,0.099-16.193c1.354-6.481,3.758-11.932,7.083-16.293c0.397-0.521,0.762-1.023,1.18-1.471
				c2.236-2.391,4.596-3.255,7.575-4.907c4.741-2.63,10.581-4.235,17.905-4.025c0.523-0.064,1.309,0.128,1.673-0.098
				c4.166-0.06,8.644,0.273,11.705,1.67c1.285,0.583,2.654,1.556,3.937,2.453c1.276,0.892,2.629,1.741,3.641,2.749
				C62.363,13.399,69,21.294,69.544,32.438C69.544,33.845,69.544,35.25,69.544,36.657z M41.409,1.031
				C32.095,0.343,24.27,1.515,18.388,4.466c-2.136,1.07-4.411,2.201-6.099,3.435c-3.678,2.681-5.86,6.886-7.967,11.58
				C1.261,26.292-0.169,35.932,2.156,44.02c1.467,5.102,3.298,9.317,6.394,13.055c1.603,1.934,3.149,4.18,5.215,5.299
				c0.843,0.459,1.83,0.664,2.755,1.08c2.404,1.08,4.981,2.799,7.574,3.826c3.929,1.563,8.814,2.186,13.181,1.572
				c2.145-0.302,3.777-1.097,5.709-1.865c1.793-0.713,3.693-1.297,5.509-2.063c3.511-1.479,7.252-2.772,9.935-5.2
				c1.002-0.906,1.786-2.24,2.756-3.437c0.969-1.193,2.055-2.154,2.756-3.435c1.467-2.688,3.141-5.506,3.936-8.44
				c1.326-4.912,1.564-11.241,0.588-16.291c-1.495-7.741-5.352-12.415-9.738-17.276c-1.406-1.558-2.762-3.228-4.427-4.514
				C50.87,3.687,46.915,1.438,41.409,1.031z"/>
		</g>
	</g>
	<g>
		<g>
			<path fill="#C7A35A" d="M17.748,10.814l1.98,2.315c0.712,0.831,0.414,1.805-0.892,2.923l1.066,1.247l-1.78,1.524l-4.877-5.698
				l2.85-2.438L17.748,10.814z M14.594,12.897l2.896,3.383l0.178-0.152l0.738-0.94l-2.438-2.849l-0.661-0.052L14.594,12.897z"/>
			<path fill="#C7A35A" d="M21.715,10.071l0.477-0.258l1.536-1.142l0.773,1.43l-0.105,0.368l0.128,0.236l-1.317,0.408l-0.953,0.516
				l0.901,1.666l0.403,1.319l-0.953,0.516l-0.128-0.236l-2.686-4.398l1.666-0.902L21.715,10.071z"/>
			<path fill="#C7A35A" d="M25.036,6.078c0.691-0.243,1.344,0.236,1.957,1.435l-1.811,0.635l-0.474-1.35L25.036,6.078z
				 M27.259,8.269l1.161,4.141l-1.553,0.544l-1.42-4.05L27.259,8.269z"/>
			<path fill="#C7A35A" d="M30.695,6.334l0.088,0.747c0.578-0.573,1.296-0.91,2.152-1.01l0.253-0.03l0.335,0.718l2.157-1.011
				c0.406,0.611,0.68,1.505,0.816,2.682l0.293,2.493l-1.241,0.146l-0.322-2.74l-1.498,0.176l-0.1,1.275l0.175,1.494l-1.993,0.234
				l-0.045-2.521L31.618,7.74l-1.246,0.146l-0.437,0.558l0.381,3.24l-0.752,0.088l-0.833-4.956L30.695,6.334z"/>
			<path fill="#C7A35A" d="M39.785,7.087l-0.698,4.244l-1.638-0.164l0.427-4.271L39.785,7.087z M38.699,4.162
				c0.729,0.073,1.117,0.783,1.166,2.129L37.956,6.1l0.142-1.424L38.699,4.162z"/>
			<path fill="#C7A35A" d="M42.18,5.568l1.487,0.371c-0.165,0.664-0.082,1.036,0.249,1.119l0.936,0.494l-0.248,0.995l-1.494-0.372
				l-0.926,3.724l-1.242-0.309l0.804-3.227l-0.743-0.185l0.434-1.739l0.744,0.185l0.123-0.498l-0.185-0.313L42.18,5.568z"/>
			<path fill="#C7A35A" d="M47.796,9.288l-1.88,3.868l-1.521-0.624l1.627-3.972L47.796,9.288z M47.588,6.174
				c0.678,0.278,0.85,1.068,0.512,2.373L46.324,7.82l0.542-1.324L47.588,6.174z"/>
			<path fill="#C7A35A" d="M50.977,9.639c0.266,0.167,0.119,1.24-0.438,3.222l0.454,0.287c1.26-1.326,2.04-1.894,2.344-1.703
				l0.683,0.43l-0.287,0.455c-2.197,2.216-3.541,3.17-4.027,2.863l-0.455-0.287c-0.911-0.575-1.032-1.392-0.363-2.452
				c-0.205-0.187,0.064-1.288,0.813-3.303l0.369-0.084L50.977,9.639z"/>
			<path fill="#C7A35A" d="M56.741,14.298l0.491,0.495c1.088,1.094,1.031,2.239-0.172,3.435c-0.707-0.273-1.524-0.877-2.453-1.81
				l-0.649-0.654l-0.166,0.165c-0.222,0.435-0.06,0.925,0.485,1.473l0.492,0.495l0.328-0.327l1.145,1.149l-0.163,0.162
				c-0.769,0.543-1.261,0.705-1.479,0.486l-2.285-2.299c-0.258-0.259,0.018-0.857,0.824-1.796
				C54.67,13.748,55.872,13.423,56.741,14.298z M54.941,14.455l-0.819,0.816l0.325,0.66c0.873,0.656,1.419,0.875,1.639,0.658
				l0.162-0.162l0.002-0.656L54.941,14.455z"/>
		</g>
		<g>
			<path fill="#C7A35A" d="M21.25,51.504l0.603,0.348l2.907,1.947l-0.233,0.402l-1.014,1.29l-2.071-1.996l-0.403-0.233l-0.634,0.17
				l-0.232,0.401l2.179,3.674l-0.295,1.438c-0.542,0.94-2.425,0.48-5.648-1.377l0.232-0.402l1.017-1.294l1.895,1.365
				c0.697,0.4,1.215,0.432,1.558,0.09c-1.759-2.225-2.319-3.89-1.682-4.996C19.799,51.689,20.407,51.411,21.25,51.504z"/>
			<path fill="#C7A35A" d="M24.817,56.385l3.174,0.897c0.948,0.379,1.367,0.76,1.26,1.145l-0.689,2.442l-0.629,0.352l-1.953-0.552
				l-1.151-0.591l-0.898,3.173l-1.222-0.343l0.315-0.177L24.817,56.385z M26.808,57.736l-0.483,1.713l0.348,0.623l1.221,0.345
				l0.62-2.198L26.808,57.736z"/>
			<path fill="#C7A35A" d="M32.94,57.684l-0.007,0.245l0.252-0.235l1.214,0.292l0.733,0.027l0.199,1.232l-0.046,1.224
				c-0.51,1.779-1.116,2.657-1.813,2.632L32,63.043c-1.304-0.048-1.905-1.46-1.8-4.236C30.223,58.153,31.136,57.779,32.94,57.684z
				 M31.929,58.382l-0.517,0.714l-0.009,0.245c-0.044,1.205,0.174,1.869,0.66,1.989l0.985,0.039
				c0.396,0.015,0.671-0.794,0.825-2.424L31.929,58.382z"/>
			<path fill="#C7A35A" d="M36.877,57.805l1.219-0.52c0.105,0.51,0.414,0.712,0.928,0.606c1.568-0.105,2.401,0.077,2.498,0.548
				l0.316,1.531c0.257,1.248,0.143,1.98-0.345,2.192l-1.02,0.208l-0.613-0.402l-0.523-2.55l-0.77,0.157l0.63,3.059l-2.035,0.42
				l0.126-4.541l-0.306-0.202L36.877,57.805z"/>
			<path fill="#C7A35A" d="M42.58,56.915l0.733-0.343l1.82-0.563l-0.217-0.467l1.466-0.684c0.474,1.289,0.602,1.986,0.381,2.089
				c-0.815,0.382-1.367,0.261-1.659-0.362l-0.488,0.229l-0.271,0.694l0.651,1.395l0.707,0.237l0.733-0.342l-0.787-1.049l1.576-0.451
				l1.192,2.554c0.506,1.086-0.382,2.161-2.664,3.227l-0.487,0.229l-0.111-0.234l-0.787-1.049l-0.079-0.809
				c1.142-0.532,1.892-0.412,2.253,0.36l0.734-0.342L46.98,59.96l-0.327-0.697l-2.2,1.026c-0.563,0.071-1.023-0.28-1.383-1.052
				L42.58,56.915z"/>
			<path fill="#C7A35A" d="M48.459,53.146l0.561-0.441c1.243-0.975,2.4-0.776,3.471,0.588c-0.363,0.687-1.074,1.445-2.134,2.274
				l-0.745,0.583l0.15,0.188c0.415,0.276,0.933,0.171,1.553-0.317l0.563-0.439l-0.293-0.374l1.307-1.021l0.146,0.184
				c0.458,0.847,0.565,1.367,0.314,1.563l-2.612,2.047c-0.291,0.23-0.868-0.122-1.727-1.054
				C47.649,55.183,47.465,53.923,48.459,53.146z M48.402,54.992l0.73,0.932l0.71-0.251c0.77-0.808,1.06-1.337,0.863-1.586
				l-0.144-0.185l-0.666-0.081L48.402,54.992z"/>
		</g>
	</g>
	<g>
		<path fill="#C09B57" d="M19.165,27.258c0-0.074,0-0.147,0-0.221c0.146-0.296,0.414-0.493,0.632-0.711
			c1.338-1.338,2.678-2.678,4.03-4.03c0.215-0.215,0.437-0.503,0.695-0.648c0.392-0.221,1.153-0.143,1.818-0.143
			c7.808,0,15.475,0,23.248,0c0.607,0,1.137-0.053,1.186,0.458c0.035,0.373-0.373,0.642-0.601,0.869
			c-1.38,1.38-2.71,2.726-4.077,4.093c-0.234,0.233-0.473,0.527-0.728,0.648c-0.437,0.206-1.312,0.095-1.929,0.095
			c-7.685,0-15.38,0-23.059,0C19.76,27.669,19.271,27.754,19.165,27.258z"/>
		<path fill="#C09B57" d="M19.165,31.383c0-0.074,0-0.147,0-0.221c0.08-0.203,0.182-0.347,0.395-0.396
			c0.414-0.095,1.042-0.016,1.581-0.016c7.491,0,14.899,0,22.347,0c0.537,0,1.102-0.061,1.58,0.016
			c0.524,0.084,0.779,0.51,1.105,0.838c1.342,1.341,2.648,2.649,3.999,3.998c0.21,0.211,0.576,0.478,0.601,0.743
			c0.023,0.269-0.137,0.497-0.379,0.554c-0.408,0.095-1.045,0.017-1.58,0.017c-7.515,0-14.893,0-22.348,0
			c-0.534,0-1.107,0.062-1.596,0c-0.513-0.065-0.8-0.532-1.106-0.838c-1.337-1.337-2.673-2.673-3.983-3.983
			C19.562,31.875,19.293,31.683,19.165,31.383z"/>
		<path fill="#C09B57" d="M19.165,45.876c0-0.074,0-0.147,0-0.222c0.126-0.297,0.396-0.49,0.616-0.711
			c1.33-1.33,2.667-2.684,3.999-4.016c0.232-0.23,0.458-0.496,0.695-0.646c0.382-0.244,1.207-0.158,1.896-0.158
			c7.564,0,15,0,22.568,0c0.824,0,1.901-0.204,1.834,0.568c-0.023,0.259-0.408,0.551-0.617,0.759
			c-1.393,1.393-2.741,2.741-4.125,4.125c-0.247,0.248-0.454,0.521-0.742,0.632c-0.453,0.176-1.271,0.079-1.881,0.079
			c-7.436,0-14.842,0-22.268,0c-0.56,0-1.157,0.079-1.581-0.017C19.353,46.225,19.225,46.052,19.165,45.876z"/>
	</g>
</g>
</svg>
