<?xml version="1.0" encoding="utf-8"?>
<!-- Generator: Adobe Illustrator 15.1.0, SVG Export Plug-In . SVG Version: 6.00 Build 0)  -->
<!DOCTYPE svg PUBLIC "-//W3C//DTD SVG 1.1//EN" "http://www.w3.org/Graphics/SVG/1.1/DTD/svg11.dtd">
<svg version="1.1" id="Layer_1" xmlns="http://www.w3.org/2000/svg" xmlns:xlink="http://www.w3.org/1999/xlink" x="0px" y="0px"
	 width="70px" height="70px" viewBox="0 0 70 70" enable-background="new 0 0 70 70" xml:space="preserve">
<g>
	<g>
		<g>
			<path fill-rule="evenodd" clip-rule="evenodd" fill="#FAE373" d="M36.884,0.343c-0.525,0.065-1.311-0.128-1.673,0.098
				C35.735,0.377,36.52,0.569,36.884,0.343z"/>
			<path fill-rule="evenodd" clip-rule="evenodd" fill="#FAE373" d="M54.297,6.331c1.665,1.286,3.021,2.956,4.427,4.514
				c4.388,4.861,8.243,9.535,9.738,17.276c0.977,5.05,0.738,11.379-0.588,16.291c-0.795,2.936-2.469,5.754-3.936,8.441
				c-0.701,1.279-1.787,2.24-2.756,3.434c-0.969,1.195-1.754,2.529-2.755,3.436c-2.683,2.428-6.424,3.721-9.935,5.201
				c-1.815,0.766-3.716,1.35-5.509,2.063c-1.932,0.77-3.564,1.564-5.709,1.865c-4.366,0.613-9.252-0.01-13.181-1.572
				c-2.593-1.027-5.17-2.746-7.574-3.826c-0.925-0.416-1.912-0.621-2.755-1.08c-2.065-1.119-3.612-3.365-5.215-5.299
				c-3.096-3.736-4.927-7.953-6.394-13.055c-2.325-8.087-0.895-17.728,2.166-24.538c2.106-4.694,4.289-8.898,7.967-11.58
				c1.688-1.234,3.963-2.365,6.099-3.435c5.882-2.95,13.706-4.123,23.021-3.435C46.915,1.438,50.87,3.687,54.297,6.331z
				 M41.604,2.11c-8.797-0.608-16.953,0.602-22.922,3.435c-0.995,0.472-1.992,0.997-2.952,1.473c-1.325,0.658-2.494,1.25-3.54,2.06
				c-2.472,1.912-4.028,4.371-5.607,7.264c-1.584,2.902-2.522,5.617-3.247,9.617c-0.681,3.76-1.437,7.811-1.082,11.58
				c0.822,8.728,3.709,15.024,8.362,20.319c1.046,1.191,1.677,2.357,2.854,3.141c0.755,0.5,1.725,0.797,2.656,1.176
				c2.448,0.994,5.001,2.531,7.575,3.633c3.807,1.627,8.645,2.496,12.593,2.061c2.014-0.221,3.781-0.953,5.805-1.766
				c1.891-0.756,3.811-1.283,5.508-1.963c3.405-1.365,7.451-2.627,10.231-4.811c1.028-0.809,1.843-2.178,2.854-3.436
				c0.776-0.969,1.71-1.91,2.262-2.844c0.81-1.373,1.356-2.996,2.065-4.516c0.725-1.549,1.522-3.064,1.869-4.713
				c0.482-2.279,0.668-5.124,0.787-7.753c0.127-2.801,0.04-5.646-0.395-8.146c-0.854-4.955-3.059-8.264-5.408-11.68
				c-2.239-3.246-4.682-6.543-8.068-9.028c-3.132-2.299-7.047-5.228-12.001-5.104C41.737,2.112,41.671,2.114,41.604,2.11z"/>
			<path fill-rule="evenodd" clip-rule="evenodd" fill="#C09B56" d="M41.803,2.11c4.954-0.123,8.869,2.805,12.001,5.104
				c3.387,2.485,5.829,5.782,8.068,9.028c2.35,3.416,4.554,6.725,5.408,11.68c0.435,2.5,0.521,5.346,0.395,8.146
				c-0.119,2.629-0.305,5.474-0.787,7.753c-0.347,1.648-1.145,3.164-1.869,4.713c-0.709,1.52-1.256,3.143-2.065,4.516
				c-0.552,0.934-1.485,1.875-2.262,2.844c-1.011,1.258-1.825,2.627-2.854,3.436c-2.78,2.184-6.826,3.445-10.231,4.811
				c-1.697,0.68-3.617,1.207-5.508,1.963c-2.023,0.813-3.791,1.545-5.805,1.766c-3.948,0.436-8.786-0.434-12.593-2.061
				c-2.574-1.102-5.127-2.639-7.575-3.633c-0.932-0.379-1.901-0.676-2.656-1.176c-1.177-0.783-1.808-1.949-2.854-3.141
				c-4.653-5.295-7.54-11.592-8.362-20.319c-0.354-3.77,0.401-7.82,1.082-11.58c0.725-4,1.663-6.715,3.247-9.617
				c1.579-2.893,3.136-5.352,5.607-7.264c1.046-0.81,2.215-1.402,3.54-2.06c0.96-0.476,1.957-1.001,2.952-1.473
				c5.969-2.833,14.125-4.043,22.922-3.435C41.671,2.114,41.737,2.112,41.803,2.11z M41.212,2.601
				c-8.905-0.524-16.813,0.565-22.627,3.533c-2.073,1.06-4.478,2.021-6.101,3.239c-1.412,1.062-2.818,2.706-3.837,4.22
				C6.803,16.342,4.92,20.289,4.025,24.88c-0.869,4.471-1.722,9.624-1.08,14.134c0.957,6.757,3.056,12.532,6.687,17.079
				c1.328,1.658,2.748,3.596,4.429,4.611c0.808,0.488,1.797,0.766,2.755,1.18c5.472,2.338,13.112,7.195,21.149,5.201
				c1.727-0.432,3.359-1.318,5.116-1.965c1.746-0.645,3.514-1.191,5.215-1.865c3.215-1.271,7.183-2.604,9.738-4.709
				c0.836-0.689,1.537-2.029,2.265-2.945c0.819-1.037,1.688-1.863,2.263-2.846c0.779-1.342,1.302-2.945,1.965-4.418
				c0.701-1.549,1.434-3.025,1.771-4.613c0.859-4.043,1.204-9.087,0.691-13.74c-0.483-4.356-1.883-7.864-3.84-10.992
				c-1.855-2.97-4.045-5.901-6.394-8.44c-1.163-1.257-2.471-2.515-3.935-3.533C49.667,4.82,46.329,2.902,41.212,2.601z"/>
			<path fill-rule="evenodd" clip-rule="evenodd" fill="#FAE373" d="M41.212,2.601c-8.905-0.524-16.813,0.565-22.627,3.533
				c-2.073,1.06-4.478,2.021-6.101,3.239c-1.412,1.062-2.818,2.706-3.837,4.22C6.803,16.342,4.92,20.289,4.025,24.88
				c-0.869,4.471-1.722,9.624-1.08,14.134c0.957,6.757,3.056,12.532,6.687,17.079c1.328,1.658,2.748,3.596,4.429,4.611
				c0.808,0.488,1.797,0.766,2.755,1.18c5.472,2.338,13.112,7.195,21.149,5.201c1.727-0.432,3.359-1.318,5.116-1.965
				c1.746-0.645,3.514-1.191,5.215-1.865c3.215-1.271,7.183-2.604,9.738-4.709c0.836-0.689,1.537-2.029,2.265-2.945
				c0.819-1.037,1.688-1.863,2.263-2.846c0.779-1.342,1.302-2.945,1.965-4.418c0.701-1.549,1.434-3.025,1.771-4.613
				c0.859-4.043,1.204-9.087,0.691-13.74c-0.483-4.356-1.883-7.864-3.84-10.992c-1.855-2.97-4.045-5.901-6.394-8.44
				c-1.163-1.257-2.471-2.515-3.935-3.533C49.667,4.82,46.329,2.902,41.212,2.601z"/>
			<path fill-rule="evenodd" clip-rule="evenodd" fill="#C09B56" d="M69.544,36.657c-0.379,2.646-0.518,5.018-0.983,7.262
				c-0.466,2.236-1.585,4.02-2.46,5.891c-0.868,1.861-1.73,3.645-3.147,5.201c-1.347,1.479-2.288,3.295-3.639,4.711
				c-2.319,2.426-6.544,4.029-10.133,5.596c-1.812,0.789-3.782,1.266-5.806,2.061c-2.025,0.797-3.805,1.797-5.803,2.061
				c-10.695,1.404-17.58-3.828-24.399-6.773c-0.202-0.027-0.192-0.262-0.393-0.293c-2.965-2.502-5.559-5.738-7.574-9.225
				c-1.773-3.066-2.802-5.932-3.838-9.816c-1.417-5.304-1.028-10.79,0.099-16.193c1.354-6.481,3.758-11.932,7.083-16.293
				c0.397-0.521,0.762-1.023,1.18-1.471c2.236-2.391,4.596-3.255,7.575-4.907c4.741-2.63,10.581-4.235,17.905-4.025
				c0.524-0.064,1.309,0.128,1.673-0.098c4.166-0.06,8.643,0.273,11.705,1.67c1.285,0.583,2.654,1.556,3.936,2.453
				c1.277,0.892,2.63,1.741,3.641,2.749C62.364,13.399,69,21.294,69.544,32.438C69.544,33.845,69.544,35.25,69.544,36.657z
				 M41.409,1.031c-9.314-0.688-17.139,0.484-23.021,3.435c-2.136,1.07-4.411,2.201-6.099,3.435
				c-3.678,2.681-5.86,6.886-7.967,11.58c-3.061,6.811-4.491,16.451-2.166,24.538c1.467,5.102,3.298,9.318,6.394,13.055
				c1.603,1.934,3.149,4.18,5.215,5.299c0.843,0.459,1.83,0.664,2.755,1.08c2.404,1.08,4.981,2.799,7.574,3.826
				c3.929,1.563,8.814,2.186,13.181,1.572c2.145-0.301,3.777-1.096,5.709-1.865c1.793-0.713,3.693-1.297,5.509-2.063
				c3.511-1.48,7.252-2.773,9.935-5.201c1.001-0.906,1.786-2.24,2.755-3.436c0.969-1.193,2.055-2.154,2.756-3.434
				c1.467-2.688,3.141-5.506,3.936-8.441c1.326-4.912,1.564-11.241,0.588-16.291c-1.495-7.741-5.351-12.415-9.738-17.276
				c-1.406-1.558-2.762-3.228-4.427-4.514C50.87,3.687,46.915,1.438,41.409,1.031z"/>
		</g>
	</g>
	<g>
		<g>
			<path fill="#C7A35A" d="M17.748,10.814l1.98,2.315c0.712,0.831,0.414,1.805-0.892,2.923l1.066,1.247l-1.78,1.524l-4.877-5.698
				l2.85-2.438L17.748,10.814z M14.594,12.897l2.896,3.383l0.178-0.152l0.738-0.94l-2.438-2.849l-0.661-0.052L14.594,12.897z"/>
			<path fill="#C7A35A" d="M21.715,10.071l0.477-0.258l1.536-1.142l0.773,1.43l-0.105,0.368l0.128,0.236l-1.317,0.408l-0.953,0.516
				l0.901,1.666l0.403,1.319l-0.953,0.516l-0.128-0.236l-2.686-4.398l1.666-0.902L21.715,10.071z"/>
			<path fill="#C7A35A" d="M25.036,6.078c0.691-0.243,1.344,0.236,1.957,1.435l-1.811,0.635l-0.474-1.35L25.036,6.078z
				 M27.259,8.269l1.161,4.141l-1.553,0.544l-1.42-4.05L27.259,8.269z"/>
			<path fill="#C7A35A" d="M30.695,6.334l0.088,0.747c0.578-0.573,1.296-0.91,2.152-1.01l0.253-0.03l0.335,0.718l2.157-1.011
				c0.406,0.611,0.679,1.505,0.816,2.682l0.293,2.493l-1.241,0.146l-0.322-2.74l-1.498,0.176L33.628,9.78l0.175,1.494l-1.993,0.234
				l-0.045-2.521L31.618,7.74l-1.246,0.146l-0.437,0.558l0.381,3.24l-0.752,0.088l-0.833-4.956L30.695,6.334z"/>
			<path fill="#C7A35A" d="M39.785,7.087l-0.698,4.244l-1.638-0.164l0.427-4.271L39.785,7.087z M38.699,4.162
				c0.729,0.073,1.117,0.783,1.166,2.129L37.956,6.1l0.142-1.424L38.699,4.162z"/>
			<path fill="#C7A35A" d="M42.179,5.568l1.488,0.371c-0.165,0.664-0.082,1.036,0.249,1.119l0.935,0.494l-0.248,0.995l-1.493-0.372
				l-0.927,3.724l-1.241-0.309l0.803-3.227l-0.743-0.185l0.433-1.739l0.744,0.185l0.124-0.498l-0.185-0.313L42.179,5.568z"/>
			<path fill="#C7A35A" d="M47.796,9.288l-1.88,3.868l-1.522-0.624l1.627-3.972L47.796,9.288z M47.588,6.174
				c0.678,0.278,0.849,1.068,0.512,2.373l-1.776-0.727l0.542-1.324L47.588,6.174z"/>
			<path fill="#C7A35A" d="M50.977,9.639c0.265,0.167,0.118,1.24-0.438,3.222l0.454,0.287c1.26-1.326,2.04-1.894,2.344-1.703
				l0.682,0.43l-0.287,0.455c-2.197,2.216-3.54,3.17-4.027,2.863l-0.455-0.287c-0.911-0.575-1.032-1.392-0.364-2.452
				c-0.205-0.187,0.065-1.288,0.813-3.303l0.37-0.084L50.977,9.639z"/>
			<path fill="#C7A35A" d="M56.741,14.298l0.492,0.495c1.088,1.094,1.031,2.239-0.172,3.435c-0.708-0.273-1.525-0.877-2.453-1.81
				l-0.65-0.654l-0.166,0.165c-0.221,0.435-0.059,0.925,0.485,1.473l0.492,0.495l0.329-0.327l1.144,1.149l-0.163,0.162
				c-0.769,0.543-1.261,0.705-1.479,0.486l-2.285-2.299c-0.258-0.259,0.017-0.857,0.823-1.796
				C54.67,13.748,55.872,13.423,56.741,14.298z M54.942,14.455l-0.82,0.816l0.325,0.66c0.873,0.656,1.419,0.875,1.639,0.658
				l0.162-0.162l0.002-0.656L54.942,14.455z"/>
		</g>
		<g>
			<path fill="#C7A35A" d="M16.271,46.04l0.408,0.563l1.859,2.965l-0.377,0.272l-1.452,0.764l-1.076-2.669l-0.273-0.377
				l-0.648-0.104l-0.376,0.272l0.489,4.243l-0.856,1.193c-0.879,0.638-2.41-0.55-4.594-3.563l0.376-0.272l1.457-0.766l1.173,2.019
				c0.472,0.65,0.933,0.89,1.385,0.719c-0.697-2.749-0.528-4.498,0.504-5.247C14.871,45.617,15.539,45.612,16.271,46.04z"/>
			<path fill="#C7A35A" d="M17.535,51.952l2.531,2.114c0.711,0.733,0.938,1.253,0.683,1.56l-1.627,1.948l-0.718,0.064l-1.557-1.301
				l-0.811-1.009l-2.114,2.53l-0.975-0.813l0.359-0.032L17.535,51.952z M18.801,53.999l-1.14,1.365l0.063,0.711l0.974,0.813
				l1.464-1.753L18.801,53.999z"/>
			<path fill="#C7A35A" d="M24.42,56.454l-0.107,0.22l0.327-0.111l0.99,0.761l0.658,0.325l-0.322,1.206l-0.541,1.098
				c-1.192,1.417-2.103,1.971-2.73,1.662l-1.321-0.652c-1.171-0.577-1.143-2.112,0.086-4.604
				C21.748,55.773,22.735,55.805,24.42,56.454z M23.213,56.678l-0.764,0.441l-0.108,0.22c-0.533,1.082-0.604,1.777-0.21,2.086
				l0.883,0.436c0.355,0.176,0.937-0.45,1.743-1.875L23.213,56.678z"/>
			<path fill="#C7A35A" d="M27.965,58.17l1.325,0.026c-0.112,0.507,0.087,0.817,0.598,0.931c1.476,0.544,2.162,1.051,2.059,1.519
				l-0.337,1.527c-0.275,1.245-0.679,1.866-1.21,1.861l-1.015-0.225l-0.396-0.619l0.562-2.542l-0.766-0.169l-0.674,3.049
				l-2.029-0.448l1.969-4.094l-0.197-0.31L27.965,58.17z"/>
			<path fill="#C7A35A" d="M33.534,59.688l0.81-0.014l1.892,0.229l-0.008-0.515l1.618-0.026c-0.094,1.371-0.263,2.058-0.506,2.062
				c-0.899,0.015-1.354-0.32-1.365-1.007l-0.54,0.009l-0.531,0.523l0.025,1.539l0.548,0.505l0.81-0.013l-0.291-1.279l1.623,0.233
				l0.046,2.817c0.02,1.199-1.23,1.818-3.748,1.859l-0.539,0.009l-0.005-0.26l-0.29-1.279l0.257-0.769
				c1.259-0.021,1.896,0.396,1.909,1.248l0.81-0.013l0.249-1.283l-0.013-0.77l-2.428,0.039c-0.542-0.164-0.82-0.673-0.834-1.525
				L33.534,59.688z"/>
			<path fill="#C7A35A" d="M40.439,58.646l0.693-0.173c1.532-0.382,2.508,0.27,2.927,1.953c-0.611,0.479-1.57,0.881-2.876,1.206
				l-0.917,0.228l0.059,0.233c0.266,0.421,0.782,0.536,1.548,0.345l0.693-0.172l-0.114-0.461l1.609-0.4l0.057,0.228
				c0.074,0.96-0.042,1.478-0.35,1.555l-3.219,0.801c-0.362,0.091-0.744-0.465-1.146-1.666
				C38.869,60.176,39.215,58.95,40.439,58.646z M39.634,60.308l0.286,1.149l0.751,0.06c1.034-0.422,1.514-0.786,1.437-1.094
				l-0.057-0.228l-0.575-0.346L39.634,60.308z"/>
			<path fill="#C7A35A" d="M47.525,53.995l0.886,1.69c0.139,0.466-0.244,0.935-1.146,1.407l0.223,0.425
				c1.269-0.664,2.271-0.293,3.009,1.114l0.334,0.638c0.146,0.28,0.008,0.531-0.417,0.754l-3.903,2.315l-3.542-6.763l2.961-1.551
				C46.818,53.672,47.351,53.662,47.525,53.995z M44.356,55.655l0.997,1.903l1.266-0.663l-0.223-0.425l0.213-0.111l-0.321-0.097
				l-0.665-1.271L44.356,55.655z M45.703,59.259l0.554,1.058l0.646,0.198l1.69-0.886l0.949-0.762l-0.334-0.638
				c-0.362-0.348-0.896-0.337-1.602,0.032L45.703,59.259z"/>
			<path fill="#C7A35A" d="M51.282,52.99l0.162,0.184l0.022-0.346l1.079-0.626l0.551-0.486l0.994,0.756l0.81,0.918
				c0.857,1.643,1.023,2.694,0.499,3.157l-1.105,0.975c-0.979,0.864-2.388,0.254-4.225-1.829
				C49.637,55.203,50.042,54.302,51.282,52.99z M51.03,54.191l0.119,0.875l0.161,0.184c0.798,0.904,1.414,1.233,1.85,0.986
				l0.738-0.65c0.298-0.263-0.06-1.038-1.071-2.326L51.03,54.191z"/>
			<path fill="#C7A35A" d="M53.392,48.431l-0.058-0.326l0.132-0.188l0.192,0.135l2.406,2.251l0.135-0.192l1.008-1.85l0.536-0.766
				l1.911,1.338c0.683,0.478,0.949,1.044,0.799,1.699l-1.068,1.527l-1.527,1.772L56.85,52.84l-4.526-2.882L53.392,48.431z
				 M56.237,51.276l1.202,1.122l0.381,0.267l0.132-0.188l1.015-1.852l-1.146-0.802l-0.646,0.114L56.237,51.276z"/>
		</g>
	</g>
	<g>
		<path fill-rule="evenodd" clip-rule="evenodd" fill="#C09B57" d="M19.165,27.258c0-0.074,0-0.147,0-0.221
			c0.146-0.296,0.414-0.493,0.632-0.711c1.338-1.338,2.678-2.678,4.03-4.03c0.215-0.215,0.437-0.503,0.695-0.648
			c0.392-0.221,1.153-0.143,1.818-0.143c7.808,0,15.474,0,23.248,0c0.607,0,1.136-0.053,1.186,0.458
			c0.035,0.373-0.373,0.642-0.601,0.869c-1.38,1.38-2.71,2.726-4.078,4.093c-0.233,0.233-0.472,0.527-0.727,0.648
			c-0.437,0.206-1.312,0.095-1.929,0.095c-7.684,0-15.38,0-23.058,0C19.76,27.669,19.271,27.754,19.165,27.258z"/>
		<path fill-rule="evenodd" clip-rule="evenodd" fill="#C09B57" d="M19.165,31.383c0-0.074,0-0.147,0-0.221
			c0.08-0.203,0.182-0.347,0.395-0.396c0.414-0.095,1.042-0.016,1.581-0.016c7.491,0,14.899,0,22.347,0
			c0.538,0,1.102-0.061,1.58,0.016c0.525,0.084,0.779,0.51,1.106,0.838c1.341,1.341,2.649,2.649,3.999,3.998
			c0.21,0.21,0.576,0.477,0.601,0.743c0.023,0.268-0.137,0.497-0.38,0.553c-0.407,0.095-1.045,0.017-1.58,0.017
			c-7.514,0-14.892,0-22.347,0c-0.534,0-1.107,0.062-1.596,0c-0.513-0.065-0.8-0.532-1.106-0.838
			c-1.337-1.337-2.673-2.673-3.983-3.983C19.562,31.875,19.293,31.683,19.165,31.383z"/>
		<path fill-rule="evenodd" clip-rule="evenodd" fill="#C09B57" d="M19.165,45.876c0-0.074,0-0.147,0-0.222
			c0.126-0.297,0.396-0.49,0.616-0.711c1.33-1.33,2.667-2.683,3.999-4.015c0.232-0.231,0.458-0.496,0.695-0.647
			c0.382-0.244,1.207-0.158,1.896-0.158c7.564,0,15,0,22.568,0c0.825,0,1.902-0.204,1.834,0.568
			c-0.023,0.259-0.408,0.551-0.617,0.759c-1.393,1.393-2.741,2.741-4.125,4.125c-0.247,0.248-0.454,0.521-0.742,0.632
			c-0.453,0.176-1.272,0.079-1.881,0.079c-7.435,0-14.842,0-22.268,0c-0.56,0-1.157,0.079-1.581-0.016
			C19.353,46.225,19.225,46.052,19.165,45.876z"/>
	</g>
</g>
</svg>
