<svg version="1.2" xmlns="http://www.w3.org/2000/svg" viewBox="0 0 601 103" width="601" height="103">
	<title>coinmarketcap-svg</title>
	<style>
		.s0 { fill: #ffffff } 
	</style>
	<g id="Layer">
		<path id="Layer" fill-rule="evenodd" class="s0" d="m93.3 69.8c-4.7 2.9-10.4 3.2-14.9 0.6-5-2.8-7.9-8.6-7.9-15.8v-9.8c-0.4 0.4-0.7 1-1.1 1.6l-11.9 19.3c-4.1 6.5-7.9 7-10.4 6.3-2.5-0.7-5.5-3.2-5.5-10.9v-16.1l-21.7 34.8c7.6 8.6 18.6 14 30.9 14 10.5 0 20.7-4.1 28.3-11.3 0.1-0.1 0.1-0.1 0.1-0.1 1.9-1.7 4.8-1.6 6.5 0.3 1.8 1.9 1.7 4.8-0.2 6.6-9.4 8.9-21.6 13.8-34.5 13.8-28 0-50.8-23.2-50.8-51.6 0-28.5 22.8-51.6 50.8-51.6 27.9 0 50.7 23.1 50.8 51.4v0.2c0.4 7.9-2.7 14.5-8.5 18.3zm-0.7-18.1v-0.2c0-23.3-18.7-42.2-41.6-42.2-22.9 0-41.6 18.9-41.6 42.2 0 6.9 1.7 13.7 4.9 19.8l24.1-38.6c2.9-4.4 5.9-4.7 7.9-4.1 3 0.9 4.6 3.8 4.7 8.7v21.3l10.8-17.3c1.7-2.8 6.3-10.3 12.4-8.5 3.6 1 5.7 4.9 5.7 10.3v11.3c0 3.7 1.2 6.4 3.2 7.6 1.6 0.9 3.7 0.7 5.5-0.4 2.8-1.8 4.2-5.4 4-9.9zm80-17.8c1.2 0.7 2.3 2.4 2.3 3.9 0 2.4-2 4.4-4.3 4.4-0.6 0-1.1-0.2-1.6-0.3-2.7-2-6.1-3.3-9.7-3.3-8.5 0-14.3 6.9-14.3 15.5 0 8.6 5.9 15.4 14.3 15.4 4.2 0 8-1.7 10.8-4.4 0.7-0.5 1.6-0.8 2.5-0.8 2.3 0 4.1 1.8 4.1 4.1 0 1.5-0.9 2.8-2 3.5-4.1 3.5-9.6 5.8-15.3 5.8-13 0-23.6-10.7-23.6-23.9 0-13.2 10.6-23.9 23.6-23.9 4.8-0.1 9.4 1.4 13.2 4zm23.8 10c8.9 0 16.3 7.5 16.3 16.8 0 9.2-7.5 17.1-16.3 17.1-9.3 0-17-7.8-17-17.1 0-9.3 7.7-16.8 17-16.8zm-0.1 25.6c3.9 0 7.2-3.7 7.2-8.7 0-5-3.3-8.2-7.2-8.2-4.2 0-7.7 3.1-7.7 8.2 0 4.9 3.5 8.7 7.7 8.7zm22 3.1v-23.6c0-2.6 2-4.7 4.6-4.7 2.5 0 4.6 2.1 4.6 4.7v23.6c0 2.6-2.1 4.7-4.6 4.7-2.5 0-4.6-2.2-4.6-4.7zm-0.7-37.2c0-3.1 2.4-5.5 5.3-5.5 3 0 5.4 2.5 5.4 5.5 0 3-2.4 5.4-5.4 5.4-3-0.1-5.3-2.5-5.3-5.4zm27.5 24.4v12.8c0 2.6-2.1 4.7-4.6 4.7-2.5 0-4.6-2.1-4.6-4.7v-24.7c0-2 1.6-3.6 3.6-3.6 2 0 3.5 1.7 3.5 3.6 3.7-3.5 7-4 10.1-4 9.2 0 13.3 6.9 13.3 14.8v13.9c0 2.6-2.1 4.7-4.6 4.7-2.5 0-4.6-2.1-4.6-4.7v-12.8c0-4-0.5-7.4-6.3-7.4-4.1 0-5.8 3.4-5.8 7.4zm51.1 4.9c-1.1 0-1.8-0.5-2.4-1.2l-10.7-11.6v20.7c0 2.6-2.1 4.7-4.6 4.7-2.5 0-4.6-2.1-4.6-4.7v-41c0.3-0.7 1-1.2 1.7-1.2 0.8 0 1.5 0.7 2 1.2l17.1 19.2c0.5 0.6 1.1 0.9 1.5 0.9 0.3 0 1-0.3 1.5-0.9l17.1-19.2c0.5-0.5 1.1-1.2 2-1.2 0.8 0 1.5 0.5 1.7 1.2v41c0 2.6-2 4.7-4.6 4.7-2.5 0-4.6-2.1-4.6-4.7v-20.7l-10.7 11.6c-0.8 0.7-1.5 1.2-2.4 1.2zm54 9l-0.2-1.1c-1.8 3.5-7.5 5.1-11.1 5.1-8.6 0-15-7.8-15-17.1 0-9.2 6.5-16.8 15.5-16.8 1.5 0 6.7 0.4 10.7 5.1l0.2-1.1c0-2 1.5-3.6 3.5-3.6 2 0 3.6 1.7 3.6 3.6v25.8c0 2-1.6 3.6-3.6 3.6-2.1 0.1-3.6-1.6-3.6-3.5zm-9.8-4.2c4.1 0 7.6-3.7 7.6-8.7 0-5-3.6-8.3-7.6-8.3-4 0-7.3 3.4-7.3 8.3 0 4.8 3.2 8.7 7.3 8.7zm42.3-17.1h-1c-5.8 0.3-6.9 3.6-6.9 7.4v12.8c0 2.6-2.1 4.7-4.6 4.7-2.5 0-4.6-2.1-4.6-4.7v-24.7c0-2 1.6-3.6 3.6-3.6 2 0 3.5 1.7 3.5 3.6 3.4-3.2 6.2-3.9 9-4h0.9c2.2 0 4.2 1.9 4.2 4.3 0.1 2.2-1.9 4.2-4.1 4.2zm35.5 18c0.4 0.7 0.7 1.4 0.7 2.2 0 2.4-2.2 4.6-4.6 4.6-1.6 0-3-1.2-4.1-2.6l-10.6-12.3v10.2c0 2.6-2.1 4.7-4.6 4.7-2.5 0-4.6-2.1-4.6-4.7v-37.5c0-2.6 2-4.7 4.6-4.7 2.6 0 4.6 2.1 4.6 4.7v23.4l10.6-11.7c1.1-1.2 2.4-2.5 4-2.5 2.3 0 4.4 2.1 4.4 4.5 0 0.7-0.2 1.5-0.6 2.1l-8.4 9.2zm30-6.8h-18.6c0 5.5 5.3 6.4 7.6 6.4 1.7 0 4.1-0.3 6-1.2 0.6-0.4 1.5-0.7 2.4-0.7 2 0 3.7 1.7 3.7 3.8 0 1.4-0.9 2.6-2 3.3-2.8 2.1-6.5 2.6-10 2.6-9.3 0-17-5-17-16.7 0-9.2 4.7-17.2 15.7-17.2 8.9 0 15.6 5.8 15.8 16.1 0 1.9-1.6 3.6-3.6 3.6zm-12-11.1c-2.5 0-6.6 1.3-6.6 5.2h13.3c-0.1-3.9-4.3-5.2-6.7-5.2zm37.6 25.2h-2.5c-7 0-11.1-3.1-11.1-14v-11.3h-2.4c-2.2 0-4.1-2-4.1-4.2 0-2.4 2-4.3 4.1-4.3h2.4v-8.7c0-2.6 2-4.7 4.6-4.7 2.5 0 4.6 2.1 4.6 4.7v8.7h3.8c2.2 0 4.1 1.9 4.1 4.3 0 2.2-2 4.2-4.1 4.2h-3.8v9.5c0 6.3 0.3 7.6 3.1 7.6h1.3c2.2 0 4.1 1.8 4.1 4.1 0 2.2-1.9 4.1-4.1 4.1zm44.5-43.8c1.2 0.7 2.3 2.4 2.3 3.9 0 2.4-2 4.4-4.3 4.4-0.6 0-1.1-0.2-1.6-0.3-2.7-2-6.1-3.3-9.7-3.3-8.5 0-14.3 6.9-14.3 15.5 0 8.6 5.9 15.4 14.3 15.4 4.2 0 8-1.7 10.8-4.4 0.7-0.5 1.6-0.8 2.5-0.8 2.3 0 4.1 1.8 4.1 4.1 0 1.5-0.9 2.8-2 3.5-4.1 3.5-9.6 5.8-15.3 5.8-13 0-23.6-10.7-23.6-23.9 0-13.2 10.6-23.9 23.6-23.9 4.8-0.1 9.5 1.4 13.2 4zm33.1 39.8l-0.2-1.1c-1.8 3.5-7.5 5.1-11.1 5.1-8.6 0-15-7.8-15-17.1 0-9.2 6.5-16.8 15.5-16.8 1.5 0 6.7 0.4 10.7 5.1l0.2-1.1c0-2 1.5-3.6 3.5-3.6 2 0 3.6 1.7 3.6 3.6v25.8c0 2-1.6 3.6-3.6 3.6-2.1 0.1-3.6-1.6-3.6-3.5zm-9.8-4.2c4.1 0 7.6-3.7 7.6-8.7 0-5-3.6-8.3-7.6-8.3-4.1 0-7.3 3.4-7.3 8.3 0 4.8 3.3 8.7 7.3 8.7zm34.5 5.5v11.7c0 2.6-2.1 4.7-4.6 4.7-2.5 0-4.6-2.1-4.6-4.7v-38.8c0-2 1.6-3.6 3.6-3.6 2 0 3.5 1.7 3.5 4 3.4-3.5 7.6-4.4 10.8-4.4 8.9 0 15.5 7.5 15.5 16.8 0 9.2-6.3 17.1-15 17.1-2.7-0.1-6.7-0.9-9.2-2.8zm7.6-5.5c4.1 0 7.3-3.9 7.3-8.7 0-5-3.3-8.3-7.3-8.3-4.1 0-7.6 3.3-7.6 8.3 0 5 3.5 8.7 7.6 8.7z"/>
	</g>
</svg>