<?xml version="1.0" standalone="no"?>
<!DOCTYPE svg PUBLIC "-//W3C//DTD SVG 20010904//EN"
 "http://www.w3.org/TR/2001/REC-SVG-20010904/DTD/svg10.dtd">
<svg version="1.0" xmlns="http://www.w3.org/2000/svg"
 width="2000.000000pt" height="471.000000pt" viewBox="0 0 2000.000000 471.000000"
 preserveAspectRatio="xMidYMid meet">

<g transform="translate(0.000000,471.000000) scale(0.100000,-0.100000)"
fill="#ffffff" stroke="none">
<path d="M2155 4704 c-410 -43 -751 -163 -1080 -380 -153 -101 -251 -182 -391
-325 -358 -367 -580 -817 -661 -1339 -25 -162 -25 -539 0 -698 74 -463 253
-863 546 -1213 278 -333 699 -614 1100 -733 l51 -15 15 30 c35 67 157 459 209
669 59 239 114 531 140 745 9 72 19 151 22 176 l5 46 -127 7 c-70 3 -197 15
-283 26 -875 111 -1382 405 -1236 718 74 159 331 305 718 407 72 19 134 38
138 42 3 5 69 220 145 480 76 259 141 470 143 467 3 -2 62 -199 132 -437 l127
-432 33 2 c171 10 671 13 789 5 79 -6 146 -9 147 -8 2 2 61 200 132 441 70
241 130 434 133 429 3 -5 68 -221 144 -481 l138 -472 90 -22 c231 -56 464
-150 593 -237 86 -58 168 -150 188 -213 35 -105 7 -188 -99 -294 -112 -110
-299 -203 -562 -279 -245 -70 -595 -128 -869 -142 l-127 -7 6 -71 c32 -343
133 -847 241 -1201 35 -114 129 -383 138 -391 2 -2 58 14 123 36 692 237 1245
800 1478 1505 86 261 119 475 120 760 0 291 -35 519 -120 774 -250 752 -864
1342 -1610 1546 -210 58 -344 76 -574 80 -113 2 -223 1 -245 -1z"/>
<path d="M14987 3636 c-128 -46 -201 -166 -175 -289 25 -119 137 -207 262
-207 114 0 200 46 254 138 22 39 27 59 27 117 0 58 -5 78 -27 117 -68 115
-215 169 -341 124z"/>
<path d="M5958 3504 c-5 -4 -8 -513 -8 -1131 l0 -1123 478 0 c605 0 697 12
917 120 280 137 453 370 526 705 26 121 36 352 19 481 -24 197 -91 390 -179
518 -115 167 -291 296 -496 365 -176 59 -223 63 -760 68 -269 3 -493 2 -497
-3z m1015 -488 c201 -56 313 -181 359 -404 17 -83 19 -123 15 -272 -7 -245
-43 -363 -145 -472 -110 -118 -253 -158 -567 -158 l-135 0 0 666 0 666 208 -5
c146 -3 224 -10 265 -21z"/>
<path d="M8220 2380 l0 -1130 785 0 785 0 0 220 0 220 -515 0 -515 0 2 233 3
232 470 2 470 2 3 221 2 220 -475 0 -475 0 0 230 0 230 515 0 515 0 -2 223 -3
222 -782 3 -783 2 0 -1130z"/>
<path d="M10070 3504 c0 -3 151 -256 336 -562 185 -306 338 -559 339 -562 1
-3 -154 -257 -345 -565 l-347 -560 301 -3 c165 -1 306 0 312 2 6 2 105 164
220 360 115 196 213 355 218 353 5 -2 104 -164 219 -360 l210 -357 313 0 314
0 -25 40 c-89 141 -656 1054 -665 1070 -9 17 39 102 325 575 184 306 335 560
335 566 0 6 -112 8 -302 7 l-302 -3 -207 -355 c-113 -195 -210 -355 -215 -357
-5 -2 -102 158 -215 355 l-207 357 -306 3 c-168 1 -306 0 -306 -4z"/>
<path d="M12327 3503 c-3 -7 89 -282 609 -1820 l146 -433 363 0 363 0 86 252
c294 863 673 1994 669 2001 -2 4 -139 7 -303 7 l-299 0 -21 -67 c-12 -38 -126
-410 -254 -828 -127 -418 -236 -760 -241 -760 -5 0 -122 371 -261 825 l-251
825 -301 3 c-165 1 -302 -1 -305 -5z"/>
<path d="M16270 2944 c-314 -67 -526 -270 -612 -586 -20 -73 -23 -106 -23
-273 0 -167 3 -200 23 -273 64 -236 194 -403 387 -498 151 -74 219 -88 440
-88 167 0 200 2 274 22 221 60 377 176 461 342 27 54 66 168 58 174 -1 2 -114
6 -250 9 -242 6 -247 6 -253 -14 -12 -35 -66 -89 -119 -117 -46 -25 -61 -27
-161 -27 -96 0 -116 3 -159 24 -98 48 -163 146 -173 262 l-6 59 564 2 564 3
-3 135 c-5 233 -47 391 -143 535 -110 164 -276 270 -487 311 -92 18 -296 17
-382 -2z m356 -407 c87 -44 154 -144 154 -229 l0 -28 -311 0 -312 0 7 41 c17
105 95 195 205 236 60 22 195 12 257 -20z"/>
<path d="M14810 2095 l0 -845 270 0 270 0 0 845 0 845 -270 0 -270 0 0 -845z"/>
<path d="M17420 2936 c0 -2 70 -273 156 -602 86 -329 184 -707 218 -839 l63
-240 290 -3 290 -2 38 142 c160 598 223 829 229 835 3 3 9 4 12 0 3 -3 55
-189 115 -414 60 -224 119 -443 130 -485 l21 -78 288 0 c266 0 289 1 294 18 3
9 100 382 216 827 116 446 213 818 216 828 5 16 -12 17 -265 17 l-271 0 -5
-22 c-3 -13 -53 -252 -110 -532 -58 -280 -107 -512 -110 -514 -3 -3 -7 -3 -9
-1 -2 2 -59 243 -127 534 l-124 530 -265 3 -265 2 -119 -527 c-65 -291 -122
-535 -126 -543 -8 -13 -9 -13 -14 0 -3 8 -53 245 -111 525 -59 281 -109 518
-111 528 -5 16 -27 17 -275 17 -148 0 -269 -2 -269 -4z"/>
<path d="M1418 2516 c-95 -34 -141 -95 -146 -195 -3 -60 0 -71 30 -121 83
-136 278 -141 366 -8 24 36 27 51 27 119 0 70 -3 82 -30 121 -35 51 -120 98
-174 98 -20 -1 -53 -7 -73 -14z"/>
<path d="M3062 2517 c-165 -63 -194 -285 -50 -383 114 -77 262 -35 319 91 43
93 5 215 -82 268 -54 33 -136 43 -187 24z"/>
</g>
</svg>
