<?xml version="1.0" encoding="utf-8"?>
<!-- Generator: Adobe Illustrator 15.1.0, SVG Export Plug-In . SVG Version: 6.00 Build 0)  -->
<!DOCTYPE svg PUBLIC "-//W3C//DTD SVG 1.1//EN" "http://www.w3.org/Graphics/SVG/1.1/DTD/svg11.dtd">
<svg version="1.1" id="Layer_1" xmlns="http://www.w3.org/2000/svg" xmlns:xlink="http://www.w3.org/1999/xlink" x="0px" y="0px"
	 width="70px" height="70px" viewBox="0 0 70 70" enable-background="new 0 0 70 70" xml:space="preserve">
<g>
	<g>
		<path fill-rule="evenodd" clip-rule="evenodd" fill="#FAE373" d="M33.116,0.343c0.526,0.065,1.311-0.128,1.673,0.098
			C34.264,0.377,33.48,0.569,33.116,0.343z"/>
		<path fill-rule="evenodd" clip-rule="evenodd" fill="#FAE373" d="M28.591,1.031c9.314-0.688,17.138,0.484,23.02,3.435
			c2.136,1.07,4.411,2.201,6.099,3.435c3.678,2.681,5.86,6.886,7.967,11.58c3.061,6.81,4.491,16.451,2.166,24.537
			c-1.467,5.103-3.298,9.318-6.394,13.055c-1.603,1.934-3.149,4.18-5.215,5.3c-0.843,0.458-1.83,0.663-2.755,1.079
			c-2.404,1.081-4.981,2.8-7.574,3.826c-3.929,1.563-8.814,2.186-13.181,1.572c-2.145-0.301-3.777-1.096-5.709-1.864
			c-1.793-0.714-3.693-1.297-5.509-2.063c-3.511-1.48-7.252-2.774-9.935-5.201c-1.001-0.906-1.786-2.24-2.755-3.436
			c-0.968-1.193-2.055-2.155-2.755-3.434c-1.468-2.688-3.141-5.507-3.936-8.442C0.8,39.498,0.562,33.169,1.538,28.12
			c1.495-7.741,5.351-12.415,9.739-17.276c1.406-1.558,2.762-3.228,4.426-4.514C19.129,3.687,23.085,1.438,28.591,1.031z
			 M28.197,2.11c-4.954-0.123-8.869,2.805-12,5.104c-3.387,2.485-5.83,5.782-8.068,9.027c-2.351,3.417-4.554,6.726-5.409,11.681
			c-0.434,2.5-0.521,5.345-0.395,8.146c0.12,2.629,0.306,5.474,0.788,7.753c0.347,1.648,1.145,3.163,1.869,4.712
			c0.709,1.52,1.256,3.144,2.065,4.516c0.551,0.934,1.485,1.875,2.262,2.845c1.011,1.257,1.825,2.627,2.854,3.436
			c2.78,2.184,6.826,3.445,10.231,4.811c1.698,0.679,3.618,1.206,5.509,1.962c2.023,0.813,3.79,1.546,5.804,1.767
			c3.948,0.436,8.786-0.434,12.593-2.061c2.574-1.102,5.127-2.64,7.575-3.633c0.932-0.379,1.901-0.677,2.656-1.177
			c1.177-0.782,1.808-1.949,2.854-3.14c4.653-5.295,7.54-11.592,8.362-20.319c0.354-3.769-0.401-7.821-1.082-11.58
			c-0.725-4-1.663-6.716-3.247-9.618c-1.579-2.892-3.136-5.351-5.607-7.263c-1.046-0.81-2.215-1.402-3.54-2.06
			c-0.96-0.476-1.957-1.001-2.952-1.473C45.349,2.712,37.192,1.501,28.395,2.11C28.33,2.114,28.262,2.112,28.197,2.11z"/>
		<path fill-rule="evenodd" clip-rule="evenodd" fill="#C09B56" d="M28.395,2.11c8.797-0.608,16.954,0.602,22.922,3.435
			c0.995,0.472,1.992,0.997,2.952,1.473c1.325,0.658,2.494,1.25,3.54,2.06c2.472,1.912,4.028,4.371,5.607,7.263
			c1.584,2.902,2.522,5.618,3.247,9.618c0.681,3.759,1.437,7.811,1.082,11.58c-0.822,8.728-3.709,15.024-8.362,20.319
			c-1.046,1.19-1.677,2.357-2.854,3.14c-0.755,0.5-1.725,0.798-2.656,1.177c-2.448,0.993-5.001,2.531-7.575,3.633
			c-3.807,1.627-8.645,2.496-12.593,2.061c-2.014-0.221-3.781-0.954-5.804-1.767c-1.891-0.756-3.811-1.283-5.509-1.962
			c-3.405-1.365-7.451-2.627-10.231-4.811c-1.028-0.809-1.843-2.179-2.854-3.436c-0.777-0.97-1.71-1.911-2.262-2.845
			c-0.81-1.372-1.356-2.996-2.065-4.516c-0.724-1.549-1.522-3.063-1.869-4.712c-0.482-2.279-0.668-5.124-0.788-7.753
			c-0.126-2.801-0.04-5.646,0.395-8.146c0.855-4.955,3.059-8.264,5.409-11.681c2.239-3.246,4.682-6.542,8.068-9.027
			c3.131-2.299,7.046-5.228,12-5.104C28.262,2.112,28.33,2.114,28.395,2.11z M17.179,7.018c-1.464,1.019-2.772,2.276-3.935,3.533
			c-2.349,2.539-4.538,5.47-6.394,8.44c-1.957,3.128-3.356,6.636-3.839,10.992c-0.513,4.654-0.167,9.696,0.691,13.74
			c0.338,1.588,1.071,3.064,1.771,4.612c0.664,1.474,1.186,3.076,1.966,4.418c0.574,0.982,1.443,1.809,2.262,2.846
			c0.728,0.917,1.428,2.256,2.264,2.945c2.556,2.105,6.523,3.438,9.739,4.709c1.701,0.674,3.468,1.221,5.214,1.866
			c1.757,0.646,3.39,1.532,5.117,1.964c8.037,1.994,15.678-2.862,21.149-5.201c0.958-0.413,1.947-0.69,2.755-1.18
			c1.681-1.015,3.101-2.952,4.429-4.611c3.631-4.547,5.729-10.322,6.687-17.078c0.642-4.51-0.211-9.663-1.08-14.134
			c-0.895-4.591-2.777-8.539-4.622-11.287c-1.019-1.514-2.425-3.158-3.837-4.22c-1.623-1.218-4.027-2.18-6.101-3.239
			c-5.813-2.968-13.722-4.057-22.627-3.533C23.67,2.902,20.333,4.82,17.179,7.018z"/>
		<path fill-rule="evenodd" clip-rule="evenodd" fill="#FAE373" d="M28.788,2.601c8.905-0.524,16.813,0.565,22.627,3.533
			c2.073,1.06,4.478,2.021,6.101,3.239c1.412,1.062,2.818,2.706,3.837,4.22c1.845,2.749,3.728,6.696,4.622,11.287
			c0.869,4.471,1.722,9.624,1.08,14.134c-0.957,6.756-3.056,12.531-6.687,17.078c-1.328,1.659-2.748,3.597-4.429,4.611
			c-0.808,0.489-1.797,0.767-2.755,1.18c-5.472,2.339-13.112,7.195-21.149,5.201c-1.727-0.432-3.359-1.317-5.117-1.964
			c-1.746-0.646-3.513-1.192-5.214-1.866c-3.216-1.271-7.183-2.604-9.739-4.709c-0.836-0.689-1.536-2.028-2.264-2.945
			c-0.819-1.037-1.688-1.863-2.262-2.846c-0.78-1.342-1.302-2.944-1.966-4.418c-0.7-1.548-1.434-3.024-1.771-4.612
			c-0.858-4.044-1.204-9.086-0.691-13.74c0.483-4.356,1.883-7.864,3.839-10.992c1.856-2.97,4.045-5.901,6.394-8.44
			c1.163-1.257,2.471-2.515,3.935-3.533C20.333,4.82,23.67,2.902,28.788,2.601z"/>
		<path fill-rule="evenodd" clip-rule="evenodd" fill="#C09B56" d="M0.456,32.438C1,21.294,7.636,13.399,13.835,7.214
			c1.01-1.008,2.363-1.857,3.64-2.749c1.282-0.897,2.651-1.87,3.935-2.453c3.063-1.396,7.539-1.73,11.705-1.67
			c0.365,0.227,1.148,0.034,1.673,0.098c7.324-0.21,13.164,1.395,17.905,4.025c2.979,1.652,5.339,2.517,7.575,4.907
			c0.418,0.448,0.782,0.95,1.18,1.471c3.325,4.362,5.729,9.813,7.083,16.293c1.127,5.403,1.516,10.89,0.099,16.193
			c-1.036,3.884-2.064,6.75-3.838,9.815c-2.016,3.487-4.609,6.723-7.574,9.226c-0.2,0.03-0.19,0.266-0.393,0.293
			c-6.819,2.944-13.704,8.178-24.399,6.772c-1.998-0.263-3.778-1.264-5.804-2.061c-2.023-0.794-3.994-1.271-5.805-2.061
			c-3.589-1.565-7.814-3.169-10.133-5.595c-1.351-1.416-2.292-3.232-3.639-4.711c-1.417-1.557-2.279-3.34-3.147-5.201
			c-0.875-1.872-1.994-3.654-2.46-5.891c-0.466-2.245-0.604-4.615-0.983-7.262C0.456,35.25,0.456,33.845,0.456,32.438z
			 M15.703,6.331c-1.665,1.286-3.021,2.956-4.426,4.514c-4.388,4.861-8.244,9.535-9.739,17.276C0.562,33.169,0.8,39.498,2.126,44.41
			c0.795,2.936,2.468,5.754,3.936,8.442c0.7,1.278,1.787,2.24,2.755,3.434c0.97,1.195,1.754,2.529,2.755,3.436
			c2.682,2.427,6.424,3.721,9.935,5.201c1.815,0.766,3.716,1.349,5.509,2.063c1.932,0.769,3.564,1.563,5.709,1.864
			c4.366,0.613,9.252-0.009,13.181-1.572c2.593-1.026,5.17-2.745,7.574-3.826c0.925-0.416,1.912-0.621,2.755-1.079
			c2.065-1.12,3.612-3.366,5.215-5.3c3.096-3.736,4.927-7.952,6.394-13.055c2.325-8.086,0.895-17.727-2.166-24.537
			c-2.106-4.694-4.289-8.899-7.967-11.58c-1.688-1.234-3.963-2.365-6.099-3.435c-5.882-2.95-13.706-4.123-23.02-3.435
			C23.085,1.438,19.129,3.687,15.703,6.331z"/>
	</g>
	<g>
		<g>
			<path fill="#C7A45A" d="M26.901,57.56l-1.172,2.256c-0.421,0.81-1.268,0.885-2.54,0.223l-0.632,1.214l-1.735-0.9l2.886-5.554
				l2.776,1.442L26.901,57.56z M24.306,55.77l-1.714,3.298l0.174,0.091l0.958,0.277l1.442-2.777L25,56.131L24.306,55.77z"/>
			<path fill="#C7A45A" d="M28.646,57.153l0.547,0.145l2.706,0.911l-0.098,0.366l-0.521,1.231l-2.058-1.128l-0.366-0.098
				l-0.463,0.271l-0.096,0.366l2.5,2.426l0.077,1.194c-0.227,0.857-1.806,0.898-4.74,0.124l0.096-0.366l0.524-1.236l1.783,0.67
				c0.633,0.165,1.049,0.078,1.244-0.262c-1.86-1.376-2.656-2.566-2.39-3.573C27.545,57.609,27.964,57.262,28.646,57.153z"/>
			<path fill="#C7A45A" d="M36.536,58.921l-0.051,1.558c-0.088,0.387-0.548,0.564-1.38,0.536l-0.013,0.392
				c1.168,0.038,1.73,0.705,1.688,2l-0.02,0.587c-0.01,0.257-0.208,0.38-0.599,0.367l-3.702,0.073l0.205-6.225l2.726,0.091
				C36.166,58.41,36.548,58.616,36.536,58.921z M33.126,61.926l-0.032,0.974l0.377,0.398l1.557,0.052l0.979-0.159l0.02-0.585
				c-0.116-0.394-0.501-0.601-1.15-0.621L33.126,61.926z M33.622,58.825l-0.058,1.752l1.165,0.039l0.013-0.391l0.196,0.007
				l-0.188-0.198l0.039-1.169L33.622,58.825z"/>
			<path fill="#C7A45A" d="M40.163,57.858l0.395-0.077c1.053-0.206,1.783,0.742,2.197,2.846l0.309,1.574
				c0.183,0.92-0.517,1.534-2.095,1.846l-0.983,0.193c-0.92,0.181-1.495-0.321-1.728-1.505l-0.194-0.983
				c-0.413-2.102-0.357-3.205,0.166-3.308L40.163,57.858z M39.286,61.715l0.27,1.379l0.471,0.319l1.381-0.271l0.004-1.026
				c-0.387-1.969-0.909-2.891-1.568-2.76l-0.195,0.038C39.122,59.496,39.002,60.271,39.286,61.715z"/>
			<path fill="#C7A45A" d="M46.419,56.254l0.642,1.419c0.091,0.385-0.242,0.75-0.999,1.091l0.161,0.357
				c1.064-0.482,1.863-0.133,2.398,1.048l0.241,0.533c0.107,0.236-0.019,0.435-0.374,0.595l-3.286,1.704l-2.57-5.673l2.484-1.123
				C45.857,55.958,46.293,55.975,46.419,56.254z M43.761,57.457l0.723,1.597l1.062-0.479l-0.161-0.357l0.18-0.08l-0.259-0.094
				l-0.481-1.065L43.761,57.457z M44.688,60.455l0.402,0.889l0.516,0.191l1.419-0.643l0.808-0.576l-0.243-0.533
				c-0.279-0.301-0.714-0.316-1.305-0.05L44.688,60.455z"/>
		</g>
	</g>
	<g>
		<polygon fill="#FFFFFF" points="30.306,17.912 28.89,18.599 27.398,20.049 27.216,21.85 27.216,23.198 29.136,24.297 
			33.508,26.188 35.934,25.392 36.915,24.894 38.168,26.188 39.17,27.103 40.586,27.962 42.865,28.402 44.918,28.402 46.906,28.308 
			48.841,27.103 50.438,25.802 51.33,23.825 51.33,22.244 51.122,20.224 50.528,20.049 46.149,19.691 41.407,19.554 36.662,18.961 
			31.389,17.912 		"/>
		<polygon fill="#E7B2A2" points="26.65,27.218 19.581,29.885 15.248,31.573 9.911,33.489 7.333,35.814 7.539,37.889 10.572,39.896 
			14.745,40.832 17.801,41.06 18.691,44.002 20.857,47.673 25.351,51.23 27.791,52.349 29.957,53.033 32.505,53.58 34.222,54.036 
			36.594,54.378 38.533,54.47 41.931,54.014 44.691,53.033 47.473,51.459 49.799,49.567 51.443,46.967 51.966,43.796 51.966,40.844 
			52.125,40.307 54.246,39.715 52.81,36.544 50.278,33.625 46.333,31.047 42.068,28.905 39.514,27.962 37.12,27.649 27.745,27.103 
					"/>
		<path fill="#8A6328" d="M49.529,14.548c0.088,0.664-1.235,0.442-1.889,0.497c-2.481,0.206-6.293-0.354-8.049-1.292
			c0.099-0.004,0.077-0.122,0.101-0.199c0.079-0.02,0.098-0.1,0.198-0.1c2.182,0.671,5.312,1.283,8.146,1.093
			C48.497,14.518,49.195,14.187,49.529,14.548z"/>
		<path fill="#8A6328" d="M38.896,15.343c1.799,0.479,4.46,1.082,6.857,1.092c1.438,0.004,2.741-0.48,3.975-0.299
			c-0.435,0.662-1.873,0.731-2.882,0.796c-2.765,0.175-6.049-0.494-8.146-1.092C38.742,15.651,38.912,15.59,38.896,15.343z"/>
		<path fill="#57C7E5" d="M31.347,19.316c1.501-0.231,2.998,0.124,3.079,1.49c0.152,2.559-5.458,3.089-5.563,0.596
			C28.812,20.186,29.875,19.542,31.347,19.316z"/>
		<path fill="#57C7E5" d="M41.877,20.31c2.2-0.404,3.194,0.673,3.278,1.986c0.22,3.466-6.18,3.528-5.463-0.2
			C39.854,21.262,40.663,20.533,41.877,20.31z"/>
		<path fill="#8A6328" d="M55.29,28.357c0.079,1.033-1.623,1.093-2.186,0.597C52.916,28.194,54.748,27.498,55.29,28.357z"/>
		<path fill="#8A6328" d="M50.521,29.35c0.819-0.25,1.469-0.034,1.49,0.596C52.073,31.721,48.156,30.074,50.521,29.35z"/>
		<path fill="#8A6328" d="M55.588,31.635c-0.009,0.951-1.881,1.056-2.187,0.297C53.432,31.09,55.24,30.989,55.588,31.635z"/>
		<path fill="#8A6328" d="M41.183,28.257c2.691,1.174,5.612,2.493,8.049,4.272c2.333,1.704,4.737,3.836,5.265,7.252
			c-0.458,0.568-1.336,0.718-2.185,0.894c0.047,2.945-0.095,6.102-1.589,8.147c-1.954,2.667-6.824,5.548-11.129,5.861
			c-2.096,0.151-4.42-0.206-6.556-0.697c-2.07-0.476-4.156-0.845-5.762-1.488c-5.281-2.123-8.464-5.875-9.737-11.227
			c-3.855-0.142-7.879-0.66-9.835-2.682c-1-1.037-1.25-2.813-0.1-3.973c0.97-0.978,2.856-1.58,4.471-2.185
			c1.651-0.622,3.257-1.259,4.867-1.791c3.72-1.222,6.731-2.835,9.638-3.575c-2.139-0.962-5.306-2.181-7.252-3.776
			c-1.008-0.825-2.313-2.25-1.489-4.073c4.063-0.601,6.008,2.587,8.939,3.776c0.002-2.078,0.751-4.199,2.683-4.67
			c-1.437-0.884-3.763-0.875-4.471-2.485c0.748-0.109,1.454,0.351,2.185,0.597c6.889,2.32,16.21,3.479,25.533,2.88
			c1.651-0.105,3.026-0.274,4.471-0.597c0.273-0.06,0.767-0.454,0.993,0c-0.257,0.716-1.246,0.652-1.986,0.796
			c-1.336,0.259-2.892,0.455-4.57,0.496c0.313,1.208,0.917,3.094,0.397,4.471c-0.976,2.591-6.519,5.451-10.729,3.776
			C41.249,28.257,41.216,28.257,41.183,28.257z M27.472,22.894c1.784,0.654,4.005,2.831,6.259,2.78
			c2.576-0.055,3.747-2.774,4.173-5.464C35.019,18.546,26.585,16.628,27.472,22.894z M19.723,22.794
			c2.232,1.887,5.972,3.531,9.238,4.173c3.071,0.603,7.641,0.368,10.432,0.695c-1.059-0.529-1.578-1.6-2.681-2.084
			c-1.654,1.525-4.146,0.809-6.26,0c-2.537-0.971-4.466-2.272-6.557-3.578c-1.783-1.112-3.08-2.39-5.563-2.384
			C17.934,21.107,18.91,22.106,19.723,22.794z M37.904,22.794c-1.458,4.704,5.102,6.07,8.742,4.967
			c1.775-0.539,3.995-2.362,4.371-4.073c0.146-0.665,0.122-2.688-0.396-3.179c-0.604-0.572-3.152-0.445-4.471-0.498
			c-1.864-0.07-4.494-0.159-5.268,0C39.547,20.289,38.067,22.268,37.904,22.794z M43.468,29.946
			c-1.528-0.678-3.232-1.663-4.867-1.888c-1.52-0.208-3.399-0.023-5.167-0.099c-2.146-0.092-4.137-0.695-6.059-0.498
			c-3.051,0.316-6.025,2.375-9.142,3.479c-3.493,1.236-6.716,1.849-9.238,3.477c-2.974,1.917-0.885,4.277,1.588,5.266
			c3.803,1.518,9.518,1.33,13.711,0.694c0.796-0.119,1.744-0.615,2.285-0.098c-1.848,1.206-5.795,0.816-8.245,1.093
			c1.071,5.717,5.005,9.188,10.331,10.926c3.374,1.104,7.257,2.169,10.729,1.89c4.756-0.385,10.146-3.532,11.725-7.054
			c0.863-1.929,0.296-5.269,0.894-7.451c0.507,0.521,1.265,0.363,1.888,0C52.594,34.637,47.994,31.954,43.468,29.946z"/>
		<path fill="#FFFFFF" d="M17.239,32.629c0,0,0.061-0.177,4.906-1.073l-3.022,5.603L17.8,35.723L17.239,32.629z"/>
		<path fill="#FFFFFF" d="M33.631,31.039c0,0,1.006-0.006,4.094,0.413l-4.094,3.999l-0.324-0.179L33.631,31.039z"/>
		<path fill="#650F14" d="M11.478,36.105c1.131-1.947,3.356-2.803,5.761-3.476c0.404,1.516,0.791,3.05,1.689,4.073
			c0.695-1.727,0.395-3.876,1.888-4.77c0.788-0.47,2.591-0.477,3.975-0.596c2.715-0.233,5.901-0.62,8.841-0.297
			c-0.035,1.307-0.246,2.912,0,4.175c0.937-1.217,1.174-3.586,2.782-3.876c0.913-0.162,2.482,0.486,3.676,0.796
			c3.395,0.875,7.025,2.411,9.238,4.073c0.154,0.054,0.008,0.104-0.098,0.1c-4.371-0.81-9.577-1.958-14.11-0.696
			c-1.276,0.357-2.424,0.96-3.773,1.191c-1.386,0.24-2.776,0.379-4.271,0.597C21.447,38.216,15.233,39.336,11.478,36.105z"/>
		<path fill="#252259" d="M31.135,19.257c0.54,0,1.08,0,1.621,0c0.03,0.137,0.252,0.083,0.404,0.102
			c0.646,0.4,1.387,0.708,1.214,1.925c-0.118,0.016-0.083,0.185-0.101,0.303c-0.517,0.767-1.435,1.132-2.431,1.419
			c-0.731,0.055-1.222-0.128-1.824-0.203c-0.472-0.271-0.843-0.642-1.115-1.115c-0.072-0.544,0.114-0.83,0.204-1.215
			c0.342-0.333,0.752-0.598,1.114-0.912C30.593,19.527,30.854,19.384,31.135,19.257z M29.818,21.486
			c0.289,1.548,3.731,0.635,3.545-0.81c-0.125-0.97-1.441-0.903-2.33-0.607C30.102,20.379,29.676,20.722,29.818,21.486z"/>
		<path fill="#252259" d="M32.451,20.474c0.245,1.146-1.734,1.327-2.126,0.609C30.1,19.955,32.053,19.75,32.451,20.474z"/>
		<path fill="#252259" d="M41.341,20.383c0.175,0.009,0.314-0.023,0.404-0.101c1.857-0.204,2.8,0.51,3.344,1.62
			c0,0.033,0,0.067,0,0.101c0.16,1.512-0.635,2.067-1.419,2.634c-0.968,0.344-2.049,0.311-2.937-0.103
			c-0.657-0.524-1.185-1.18-1.014-2.532c0.118-0.017,0.109-0.16,0.101-0.303C40.256,21.189,40.712,20.699,41.341,20.383z
			 M40.327,22.105c-0.304,2.286,3.186,2.567,3.85,0.912c0.649-1.62-0.685-2.611-2.228-2.33
			C40.964,20.865,40.433,21.316,40.327,22.105z"/>
		<path fill="#252259" d="M43.163,21.598c0.617,1.602-2.05,2.172-2.228,0.912C40.806,21.586,42.307,20.852,43.163,21.598z"/>
		<path fill="#0C0F10" d="M26.717,17.18c-0.734-0.413-1.739-0.556-1.924-1.52c2.927,1.258,6.271,2.102,9.925,2.633
			c0.034,0,0.068,0,0.102,0c1.032,0.284,2.199,0.436,3.444,0.506c0.219,0.188,0.742,0.069,1.116,0.101
			c0.552,0.159,1.228,0.191,1.925,0.204c0.432,0.008,0.707,0.169,1.214,0.102c0.169,0,0.338,0,0.507,0
			c0.142,0.231,0.706,0.037,1.014,0.102c0.236,0,0.473,0,0.708,0c0.306,0.233,1.045,0.036,1.52,0.101c0.371,0,0.743,0,1.114,0
			c1.183,0.168,3.072,0.168,4.255,0c0.296,0.128,0.606-0.067,1.114,0c0.342-0.064,0.94,0.13,1.115-0.101
			c0.307-0.064,0.873,0.129,1.012-0.102c0.968-0.013,1.795-0.164,2.533-0.405c0.452,0.013,0.628-0.251,1.014-0.303
			c0.086,0.081,0.061,0.277,0.202,0.303c-0.974,0.749-2.688,0.754-4.152,1.013c-0.618-0.079-0.948,0.133-1.519,0.101
			c-0.635-0.062-1.072,0.077-1.621,0.102c2.468,4.594-1.986,8.274-5.976,8.813c-0.033,0-0.068,0-0.101,0c-0.475,0-0.946,0-1.42,0
			c-0.682-0.128-1.434-0.188-2.125-0.305c-0.926-0.29-1.966-0.465-2.635-1.013c-0.031,0-0.067,0-0.101,0
			c-0.74-0.847-1.698-1.475-1.721-3.038c-2.341,3.32-6.804,1.103-9.32-0.406c-0.499-0.298-1.195-0.652-1.215-1.114
			c-0.067-0.607,0.092-0.987,0.103-1.519c0.054-0.452,0.237-0.775,0.303-1.215c0.033,0,0.067,0,0.102,0
			c0.004-0.931,2.214-1.683,2.126-2.126c-0.002-0.014-0.185,0.01-0.202,0c-0.428-0.148-0.805-0.343-1.317-0.405
			C27.556,17.422,27.112,17.325,26.717,17.18z M27.731,23.155c0.468,0.377,1.009,0.68,1.62,0.911
			c0.386,0.391,0.965,0.588,1.519,0.81c0.376,0.233,0.828,0.39,1.317,0.507c0.086,0.149,0.255,0.218,0.507,0.204
			c0.445,0.264,1.379,0.264,1.823,0c0.517-0.092,0.923-0.294,1.216-0.608c0.477-0.166,0.731-0.551,0.912-1.013
			c0.571-0.743,0.854-1.778,1.213-2.734c0.225-0.43,0.182-1.463-0.404-1.418c-1.534-0.695-3.417-1.041-5.47-1.216
			c-0.407-0.167-1.516-0.167-1.924,0c-1.429,0.126-2.069,1.038-2.533,2.127c-0.29,0.016-0.185,0.423-0.205,0.708
			c-0.167,0.241-0.167,1.178,0,1.419C27.412,22.999,27.477,23.173,27.731,23.155z M38.568,20.826
			c0.574-0.303,1.046-0.708,1.418-1.215c-0.668,0.062-1.038-0.177-1.723-0.102C38.409,19.903,38.656,20.197,38.568,20.826z
			 M40.695,20.016c-0.254-0.018-0.316,0.155-0.405,0.304c-0.297,0.007-0.378,0.232-0.508,0.404
			c-0.471,0.271-0.887,0.599-1.114,1.115c-1.03,0.692-1.15,3.075-0.304,4.051c0.16,0.549,0.532,0.886,1.015,1.115
			c0.821,0.731,2.117,0.989,3.544,1.115c0.609,0.168,1.922,0.168,2.531,0c1.666-0.056,2.743-0.701,3.646-1.521
			c0.599-0.346,1.072-0.819,1.418-1.418c0.382-0.259,0.592-0.69,0.709-1.214c0.15-0.02,0.092-0.245,0.102-0.405
			c0.168-0.208,0.168-1.108,0-1.316c-0.063-0.275,0.127-0.802-0.102-0.912c-0.058-0.821-0.569-1.187-1.521-1.114
			c-0.239-0.233-0.908-0.036-1.317-0.101c-0.067,0-0.135,0-0.202,0c-0.573-0.235-1.585-0.035-2.329-0.102
			c-0.58,0.046-0.769-0.145-1.216,0C43.564,19.848,41.776,19.848,40.695,20.016z"/>
	</g>
</g>
</svg>
