<?xml version="1.0" encoding="utf-8"?>
<!-- Generator: Adobe Illustrator 15.1.0, SVG Export Plug-In . SVG Version: 6.00 Build 0)  -->
<!DOCTYPE svg PUBLIC "-//W3C//DTD SVG 1.1//EN" "http://www.w3.org/Graphics/SVG/1.1/DTD/svg11.dtd">
<svg version="1.1" id="Layer_1" xmlns="http://www.w3.org/2000/svg" xmlns:xlink="http://www.w3.org/1999/xlink" x="0px" y="0px"
	 width="70px" height="70px" viewBox="0 0 70 70" enable-background="new 0 0 70 70" xml:space="preserve">
<g>
	<g>
		<path fill-rule="evenodd" clip-rule="evenodd" fill="#E4D5B6" d="M29.59,3.01c0.395-0.21,1.18-0.031,1.725-0.091
			C30.92,3.129,30.136,2.951,29.59,3.01z"/>
		<path fill-rule="evenodd" clip-rule="evenodd" fill="#E4D5B6" d="M28.229,3.101c0.156-0.208,0.693-0.033,0.999-0.091
			C29.071,3.218,28.535,3.043,28.229,3.101z"/>
		<path fill-rule="evenodd" clip-rule="evenodd" fill="#D1BA68" d="M31.768,3.01c0.787,0.06,1.814-0.121,2.451,0.091
			C33.432,3.041,32.404,3.221,31.768,3.01z"/>
		<path fill-rule="evenodd" clip-rule="evenodd" fill="#D1BA68" d="M34.672,3.101c0.215-0.209,0.814-0.032,1.181-0.091
			c0,0.03,0,0.06,0,0.091C35.459,3.101,35.065,3.101,34.672,3.101z"/>
		<path fill-rule="evenodd" clip-rule="evenodd" fill="#E4D5B6" d="M35.853,3.101c0-0.031,0-0.061,0-0.091
			c1.119,0.06,2.479-0.121,3.448,0.091c-0.182,0-0.363,0-0.545,0C37.788,3.101,36.82,3.101,35.853,3.101z"/>
		<path fill-rule="evenodd" clip-rule="evenodd" fill="#D1BA68" d="M38.756,3.101c0.182,0,0.363,0,0.545,0
			c0.144,0.007,0.347-0.043,0.362,0.091C39.388,3.135,38.882,3.308,38.756,3.101z"/>
		<path fill-rule="evenodd" clip-rule="evenodd" fill="#D1BA68" d="M28.773,3.555c2.238-0.151,5.111-0.151,7.351,0
			c-0.241,0-0.483,0-0.726,0C33.189,3.555,30.982,3.555,28.773,3.555z"/>
		<path fill-rule="evenodd" clip-rule="evenodd" fill="#E9CF6C" d="M27.594,4.553c1.604-0.151,3.842-0.151,5.445,0
			c-0.695,0-1.393,0-2.088,0c-0.848,0-1.693,0-2.541,0C28.139,4.553,27.865,4.553,27.594,4.553z"/>
		<path fill-rule="evenodd" clip-rule="evenodd" fill="#D1BA68" d="M27.141,4.644c-0.016-0.197,0.321-0.042,0.453-0.091
			c0.271,0,0.545,0,0.816,0C28.166,4.762,27.535,4.585,27.141,4.644z"/>
		<path fill-rule="evenodd" clip-rule="evenodd" fill="#D1BA68" d="M30.951,4.553c0.695,0,1.393,0,2.088,0
			c0.275,0.057,0.781-0.116,0.907,0.091C32.979,4.583,31.769,4.764,30.951,4.553z"/>
		<path fill-rule="evenodd" clip-rule="evenodd" fill="#E9CF6C" d="M34.219,4.644c0.425-0.151,1.48-0.151,1.905,0
			c-0.212,0-0.423,0-0.635,0C35.065,4.644,34.643,4.644,34.219,4.644z"/>
		<path fill-rule="evenodd" clip-rule="evenodd" fill="#D1BA68" d="M35.489,4.644c0.212,0,0.423,0,0.635,0
			c0.133,0.049,0.47-0.106,0.454,0.09C36.242,4.677,35.674,4.852,35.489,4.644z"/>
		<path fill-rule="evenodd" clip-rule="evenodd" fill="#D1BA68" d="M28.41,5.007c0.848-0.151,2.328-0.151,3.176,0
			c-0.483,0-0.967,0-1.451,0c-0.303,0-0.605,0-0.907,0C28.955,5.007,28.683,5.007,28.41,5.007z"/>
		<path fill-rule="evenodd" clip-rule="evenodd" fill="#D1BA68" d="M48.467,5.46c-0.13,0.204-0.492,0.174-0.636,0.363
			C47.32,5.64,46.854,5.41,46.38,5.188C46.898,4.558,47.822,5.367,48.467,5.46z"/>
		<path fill-rule="evenodd" clip-rule="evenodd" fill="#D1BA68" d="M26.959,5.097c0.125-0.207,0.631-0.034,0.906-0.09
			c0,0.03,0,0.06,0,0.09c-0.09,0-0.182,0-0.271,0C27.383,5.097,27.17,5.097,26.959,5.097z"/>
		<path fill-rule="evenodd" clip-rule="evenodd" fill="#E9CF6C" d="M30.135,5.007c0.484,0,0.968,0,1.451,0c0.363,0,0.727,0,1.09,0
			c0,0.03,0,0.06,0,0.09C31.858,5.038,30.801,5.218,30.135,5.007z"/>
		<path fill-rule="evenodd" clip-rule="evenodd" fill="#D1BA68" d="M32.676,5.097c0-0.03,0-0.06,0-0.09
			c0.969,0.06,2.178-0.121,2.994,0.09c-0.242,0-0.483,0-0.726,0C34.188,5.097,33.432,5.097,32.676,5.097z"/>
		<path fill-rule="evenodd" clip-rule="evenodd" fill="#D1BA68" d="M50.371,6.277c-0.207,0.214-0.507,0.337-0.816,0.454
			c-0.246-0.269-0.627-0.4-0.998-0.545C49.02,5.559,49.835,5.998,50.371,6.277z"/>
		<path fill-rule="evenodd" clip-rule="evenodd" fill="#D1BA68" d="M52.551,7.366c-0.133,0.261-0.571,0.215-0.636,0.545
			c-0.46-0.327-1.101-0.473-1.544-0.817C50.872,6.15,51.974,7.057,52.551,7.366z"/>
		<path fill-rule="evenodd" clip-rule="evenodd" fill="#D1BA68" d="M55.182,8.728c-0.846,1.019-1.848-0.265-2.722-0.545
			C53.276,7.244,54.275,8.443,55.182,8.728z"/>
		<path fill-rule="evenodd" clip-rule="evenodd" fill="#D1BA68" d="M57.179,9.908c-0.359,0.248-0.566,0.905-0.907,0.907
			c-0.418,0.002-0.913-0.982-1.271-1.271C55.747,8.786,56.512,9.414,57.179,9.908z"/>
		<path fill-rule="evenodd" clip-rule="evenodd" fill="#D1BA68" d="M58.813,11.541c-0.517,0.149-0.679,0.652-0.907,1.089
			c0.013-0.27-1.276-1.052-1.271-1.361c0.007-0.402,0.766-0.535,1.089-0.907C58.11,10.73,58.576,11.021,58.813,11.541z"/>
		<path fill-rule="evenodd" clip-rule="evenodd" fill="#D1BA68" d="M59.447,12.085c0.323,0.463,0.788,0.785,0.999,1.362
			c-0.617,0.14-0.896,0.617-1.452,0.816c-0.121-0.455-0.438-0.713-0.727-0.998C58.621,12.832,58.48,11.905,59.447,12.085z"/>
		<path fill-rule="evenodd" clip-rule="evenodd" fill="#D1BA68" d="M60.81,13.9c0.425,0.149,0.464,0.685,0.815,0.907
			c-0.533,0.344-0.87,0.884-1.813,0.817c-0.046-0.378-0.318-0.529-0.364-0.907C59.92,14.463,60.252,14.069,60.81,13.9z"/>
		<path fill-rule="evenodd" clip-rule="evenodd" fill="#D1BA68" d="M62.532,16.804c-1.077,0.689-2.079,1.15-2.358-0.635
			c0.909,0.063,1.067-0.626,1.814-0.726C62.111,15.956,62.449,16.253,62.532,16.804z"/>
		<path fill-rule="evenodd" clip-rule="evenodd" fill="#D1BA68" d="M62.714,17.258c0.432,0.446,0.598,1.158,0.998,1.634
			c-0.535,0.341-1.227,0.528-1.814,0.816c-0.2-0.616-0.616-1.017-0.816-1.634C61.815,17.993,62.224,17.584,62.714,17.258z"/>
		<path fill-rule="evenodd" clip-rule="evenodd" fill="#D1BA68" d="M64.801,21.342c-0.564,0.282-1.084,0.609-1.814,0.727
			c-0.385-0.523-0.549-1.266-0.816-1.906c0.709-0.078,1.057-0.516,1.725-0.635C64.372,19.957,64.544,20.693,64.801,21.342z"/>
		<path fill-rule="evenodd" clip-rule="evenodd" fill="#D1BA68" d="M65.709,24.064c-0.89-0.043-1.486,0.207-2.087,0.454
			c-0.132-0.655-0.314-1.259-0.545-1.815c0.628-0.25,1.354-0.4,1.815-0.816C65.391,22.387,65.512,23.264,65.709,24.064z"/>
		<path fill-rule="evenodd" clip-rule="evenodd" fill="#D1BA68" d="M65.8,24.519c0.374,0.532,0.406,1.408,0.636,2.087
			c-0.625,0.162-1.507,0.066-2.27,0.091c-0.076-0.589-0.199-1.132-0.363-1.634C64.381,24.792,65.114,24.681,65.8,24.519z"/>
		<path fill-rule="evenodd" clip-rule="evenodd" fill="#D1BA68" d="M66.89,28.874c-0.849,0.06-1.486,0.329-2.179,0.545
			c-0.034-0.813-0.304-1.39-0.363-2.179c0.753,0.043,1.793-0.062,2.27,0C66.609,27.883,66.88,28.248,66.89,28.874z"/>
		<path fill-rule="evenodd" clip-rule="evenodd" fill="#D1BA68" d="M66.979,29.51c0.146,0.489,0.255,1.016,0.272,1.634
			c-0.434,0.147-1.504,0.165-2.087,0.181c-0.267-0.248-0.144-0.885-0.364-1.18C65.37,29.775,65.957,29.424,66.979,29.51z"/>
		<path fill-rule="evenodd" clip-rule="evenodd" fill="#D1BA68" d="M3.908,31.324c0,0.333,0,0.666,0,0.998c-0.031,0-0.061,0-0.092,0
			C3.874,32.018,3.699,31.48,3.908,31.324z"/>
		<path fill-rule="evenodd" clip-rule="evenodd" fill="#D1BA68" d="M67.343,31.688c0.146,0.641,0.185,1.39,0.272,2.087
			c-0.739,0.013-1.525,0.357-2.27,0.183c-0.056-0.67-0.14-1.313-0.181-1.998C65.83,31.809,66.736,31.897,67.343,31.688z"/>
		<path fill-rule="evenodd" clip-rule="evenodd" fill="#E9CF6C" d="M3.816,32.322c0.031,0,0.061,0,0.092,0
			c-0.061,0.576,0.119,1.391-0.092,1.815c0-0.332,0-0.665,0-0.999C3.816,32.867,3.816,32.595,3.816,32.322z"/>
		<path fill-rule="evenodd" clip-rule="evenodd" fill="#E9CF6C" d="M3.363,32.776c0,0.907,0,1.815,0,2.724c0,0.181,0,0.362,0,0.543
			C3.212,35.166,3.212,33.654,3.363,32.776z"/>
		<path fill-rule="evenodd" clip-rule="evenodd" fill="#D1BA68" d="M3.816,33.139c0,0.334,0,0.667,0,0.999c0,0.454,0,0.907,0,1.362
			C3.666,34.924,3.666,33.715,3.816,33.139z"/>
		<path fill-rule="evenodd" clip-rule="evenodd" fill="#D1BA68" d="M67.706,36.406c-0.672-0.129-1.512,0.462-2.27,0.091
			c0-0.635,0-1.271,0-1.905c0.818-0.004,1.47-0.211,2.27-0.182C67.706,35.076,67.706,35.741,67.706,36.406z"/>
		<path fill-rule="evenodd" clip-rule="evenodd" fill="#E4D5B6" d="M68.16,35.136c0.149,0.485,0.149,1.603,0,2.088
			C68.16,36.527,68.16,35.832,68.16,35.136z"/>
		<path fill-rule="evenodd" clip-rule="evenodd" fill="#D1BA68" d="M64.982,35.408c0.152,0.275,0.152,1.177,0,1.452
			C64.982,36.376,64.982,35.893,64.982,35.408z"/>
		<path fill-rule="evenodd" clip-rule="evenodd" fill="#D1BA68" d="M3.363,35.5c0.207,0.154,0.033,0.691,0.09,0.997
			c-0.029,0-0.061,0-0.09,0c0-0.151,0-0.303,0-0.454C3.363,35.862,3.363,35.681,3.363,35.5z"/>
		<path fill-rule="evenodd" clip-rule="evenodd" fill="#D1BA68" d="M63.35,35.771c0.151,0.156,0.151,0.933,0,1.089
			C63.35,36.497,63.35,36.135,63.35,35.771z"/>
		<path fill-rule="evenodd" clip-rule="evenodd" fill="#D1BA68" d="M3.816,36.043c0.208,0.155,0.033,0.693,0.092,0.999
			C3.699,36.886,3.874,36.35,3.816,36.043z"/>
		<path fill-rule="evenodd" clip-rule="evenodd" fill="#E9CF6C" d="M3.363,36.497c0.029,0,0.061,0,0.09,0c0,0.182,0,0.363,0,0.545
			C3.432,38.004,3.309,36.905,3.363,36.497z"/>
		<path fill-rule="evenodd" clip-rule="evenodd" fill="#D1BA68" d="M67.706,36.951c-0.018,0.769-0.223,1.349-0.272,2.087
			c-1.057-0.133-1.323,0.055-2.269-0.092c0.091-0.604,0.16-1.229,0.271-1.813C66.251,37.308,66.796,37.003,67.706,36.951z"/>
		<path fill-rule="evenodd" clip-rule="evenodd" fill="#D1BA68" d="M67.252,39.583c0.081,0.381-0.135,1.176-0.182,1.725
			c-0.577-0.209-1.373-0.201-2.178-0.182c-0.073-0.316,0.118-1.068,0.181-1.543C65.498,39.542,66.543,39.61,67.252,39.583z"/>
		<path fill-rule="evenodd" clip-rule="evenodd" fill="#D1BA68" d="M3.816,40.31c0.207,0.125,0.034,0.631,0.092,0.906
			C3.701,41.091,3.873,40.583,3.816,40.31z"/>
		<path fill-rule="evenodd" clip-rule="evenodd" fill="#D1BA68" d="M64.711,41.671c0.863-0.018,1.731-0.039,2.269,0.271
			c-0.211,0.574-0.287,1.285-0.544,1.814c-0.69-0.127-1.349-0.285-2.088-0.363C64.396,42.747,64.705,42.36,64.711,41.671z"/>
		<path fill-rule="evenodd" clip-rule="evenodd" fill="#D1BA68" d="M64.166,43.938c0.815,0.109,1.225,0.211,2.088,0.363
			c-0.046,0.59-0.273,0.996-0.363,1.543c-0.649-0.229-1.417-0.338-2.088-0.545C63.887,44.81,64.037,44.386,64.166,43.938z"/>
		<path fill-rule="evenodd" clip-rule="evenodd" fill="#D1BA68" d="M63.622,45.845c0.607,0.24,1.46,0.234,1.996,0.545
			c-0.084,0.883-0.521,1.414-0.726,2.178c-0.535-0.313-1.037-0.658-1.906-0.635C63.066,47.104,63.523,46.653,63.622,45.845z"/>
		<path fill-rule="evenodd" clip-rule="evenodd" fill="#D1BA68" d="M62.805,48.386c0.595,0.221,1.383,0.25,1.725,0.725
			c-0.184,0.725-0.683,1.133-0.907,1.816c-0.64-0.207-1.074-0.621-1.725-0.816C62.191,49.526,62.46,48.917,62.805,48.386z"/>
		<path fill-rule="evenodd" clip-rule="evenodd" fill="#D1BA68" d="M61.534,50.655c0.729,0.117,1.188,0.506,1.725,0.816
			c-0.223,0.412-0.468,0.801-0.727,1.18c-0.625-0.191-1.104-0.529-1.633-0.818C61.08,51.409,61.412,51.136,61.534,50.655z"/>
		<path fill-rule="evenodd" clip-rule="evenodd" fill="#D1BA68" d="M60.537,52.378c0.644,0.203,1.132,0.563,1.723,0.818
			c-0.3,0.455-0.555,0.955-0.907,1.361c-0.631-0.35-0.987-0.504-1.633-0.727C59.978,53.333,60.337,52.935,60.537,52.378z"/>
		<path fill-rule="evenodd" clip-rule="evenodd" fill="#D1BA68" d="M60.899,55.101c-0.148,0.428-0.531,0.617-0.726,0.998
			c-0.447-0.248-0.912-0.479-1.543-0.545c0.129-0.504,0.541-0.729,0.727-1.178C59.954,54.534,60.605,54.64,60.899,55.101z"/>
		<path fill-rule="evenodd" clip-rule="evenodd" fill="#D1BA68" d="M58.177,55.917c0.44,0.256,1.057,0.336,1.543,0.545
			c-0.2,0.436-0.586,0.684-0.816,1.09c-0.426-0.465-0.847-0.457-1.634-0.455C57.441,56.573,57.896,56.333,58.177,55.917z"/>
		<path fill-rule="evenodd" clip-rule="evenodd" fill="#D1BA68" d="M56.725,57.642c0.416,0.164,1.24-0.221,1.725,0.271
			c-0.177,0.609-0.695,0.879-1.089,1.271c-0.863,0.068-0.896-0.176-1.725-0.182C56.006,58.556,56.385,58.118,56.725,57.642z"/>
		<path fill-rule="evenodd" clip-rule="evenodd" fill="#D1BA68" d="M55.092,59.366c0.49,0.211,1.189,0.256,1.542,0.363
			c-0.277,0.418-0.828,0.563-1.271,0.816c-0.34-0.113-0.593-0.314-1.089-0.271C54.422,59.847,54.971,59.821,55.092,59.366z"/>
		<path fill-rule="evenodd" clip-rule="evenodd" fill="#D1BA68" d="M54.547,60.819c-0.54,0.457-1.463,0.533-1.996,0.998
			c-0.397,0.033-0.467-0.26-0.817-0.273C52.54,61.071,53.25,60.583,54.547,60.819z"/>
		<path fill-rule="evenodd" clip-rule="evenodd" fill="#D1BA68" d="M51.733,62.179c-0.375,0.23-0.706,0.504-1.18,0.637
			c-0.178-0.188-0.308-0.42-0.636-0.455C50.355,61.819,51.13,61.743,51.733,62.179z"/>
		<path fill-rule="evenodd" clip-rule="evenodd" fill="#D1BA68" d="M50.009,63.179c-0.413,0.131-0.776,0.311-1.089,0.543
			c-0.246-0.115-0.322-0.402-0.726-0.361C48.62,62.843,49.642,62.304,50.009,63.179z"/>
		<path fill-rule="evenodd" clip-rule="evenodd" fill="#D1BA68" d="M48.284,63.905c-0.706,0.502-1.502,0.914-2.54,1.088
			c0.001-0.242-0.287-0.197-0.272-0.453C46.416,64.278,47.215,63.241,48.284,63.905z"/>
		<path fill-rule="evenodd" clip-rule="evenodd" fill="#D1BA68" d="M45.199,65.175c-0.909,0.543-2.235,0.668-3.448,0.908
			C42.888,65.88,44.225,64.657,45.199,65.175z"/>
		<path fill-rule="evenodd" clip-rule="evenodd" fill="#D1BA68" d="M32.676,65.085c0.365,0.057,0.965-0.119,1.18,0.09
			C33.49,65.116,32.891,65.294,32.676,65.085z"/>
		<path fill-rule="evenodd" clip-rule="evenodd" fill="#E9CF6C" d="M34.037,65.175c0.155-0.207,0.693-0.035,0.998-0.09
			c0,0.029,0,0.059,0,0.09C34.703,65.175,34.369,65.175,34.037,65.175z"/>
		<path fill-rule="evenodd" clip-rule="evenodd" fill="#D1BA68" d="M35.035,65.175c0-0.031,0-0.061,0-0.09c0.333,0,0.666,0,0.999,0
			C35.878,65.292,35.341,65.116,35.035,65.175z"/>
		<path fill-rule="evenodd" clip-rule="evenodd" fill="#E9CF6C" d="M33.311,65.628c-0.741,0.072-1.368-0.127-0.271-0.09
			c0.09,0,0.182,0,0.271,0C33.311,65.567,33.311,65.599,33.311,65.628z"/>
		<path fill-rule="evenodd" clip-rule="evenodd" fill="#D1BA68" d="M33.311,65.628c0-0.029,0-0.061,0-0.09c0.787,0,1.573,0,2.359,0
			c0.016,0.197-0.321,0.041-0.453,0.09c-0.393,0-0.787,0-1.18,0C33.795,65.628,33.553,65.628,33.311,65.628z"/>
		<path fill-rule="evenodd" clip-rule="evenodd" fill="#E9CF6C" d="M34.037,65.628c0.393,0,0.787,0,1.18,0
			C35.031,65.778,34.223,65.778,34.037,65.628z"/>
		<path fill-rule="evenodd" clip-rule="evenodd" fill="#D1BA68" d="M33.492,66.536c0.424,0,0.848,0,1.271,0c0.271,0,0.544,0,0.816,0
			C35.094,66.687,33.979,66.687,33.492,66.536z"/>
		<path fill-rule="evenodd" clip-rule="evenodd" fill="#E4D5B6" d="M33.311,66.989c1.029,0.061,2.299-0.121,3.176,0.092
			C35.459,67.021,34.189,67.2,33.311,66.989z"/>
		<path fill-rule="evenodd" clip-rule="evenodd" fill="#E4D5B6" d="M37.122,67.081c0.365-0.211,1.118-0.033,1.634-0.092
			C38.391,67.2,37.639,67.021,37.122,67.081z"/>
		<path fill-rule="evenodd" clip-rule="evenodd" fill="#D1BA68" d="M10.714,12.902c0.354-0.431,0.748-0.824,1.18-1.18
			C11.539,12.153,11.145,12.547,10.714,12.902z"/>
		<path fill-rule="evenodd" clip-rule="evenodd" fill="#E4D5B6" d="M41.842,66.628c0.354-0.162,0.813-0.217,1.271-0.273
			C42.775,66.532,42.329,66.601,41.842,66.628z"/>
		<path fill-rule="evenodd" clip-rule="evenodd" fill="#E4D5B6" d="M47.469,64.993c0.312-0.232,0.675-0.414,1.088-0.545
			C48.245,64.681,47.881,64.862,47.469,64.993z"/>
		<path fill-rule="evenodd" clip-rule="evenodd" fill="#E4D5B6" d="M51.188,63.179c0.187-0.299,0.622-0.348,0.908-0.545
			C51.91,62.931,51.476,62.979,51.188,63.179z"/>
		<path fill-rule="evenodd" clip-rule="evenodd" fill="#E4D5B6" d="M52.188,62.634c0.245-0.33,0.743-0.406,1.089-0.637
			C53.031,62.327,52.533,62.403,52.188,62.634z"/>
		<path fill-rule="evenodd" clip-rule="evenodd" fill="#E4D5B6" d="M57.542,59.819c0.295-0.369,0.627-0.703,0.998-0.998
			C58.245,59.192,57.912,59.524,57.542,59.819z"/>
		<path fill-rule="evenodd" clip-rule="evenodd" fill="#D1BA68" d="M57.451,59.819c0.354-0.432,0.749-0.824,1.18-1.18
			c-0.018,0.074-0.091,0.092-0.091,0.182c-0.371,0.295-0.703,0.629-0.998,0.998C57.512,59.819,57.48,59.819,57.451,59.819z"/>
		<path fill-rule="evenodd" clip-rule="evenodd" fill="#E4D5B6" d="M58.631,58.64c0.339-0.355,0.578-0.813,0.998-1.088
			C59.309,57.927,59.051,58.364,58.631,58.64z"/>
		<path fill-rule="evenodd" clip-rule="evenodd" fill="#E4D5B6" d="M59.629,57.37c0.507-0.369,0.854-0.9,1.361-1.271
			c-0.415,0.492-0.869,0.947-1.361,1.361C59.629,57.431,59.629,57.399,59.629,57.37z"/>
		<path fill-rule="evenodd" clip-rule="evenodd" fill="#E4D5B6" d="M60.99,56.009c0.053-0.189,0.19-0.293,0.272-0.455
			c0.113-0.189,0.264-0.34,0.453-0.453C61.442,55.372,61.284,55.757,60.99,56.009z"/>
		<path fill-rule="evenodd" clip-rule="evenodd" fill="#E4D5B6" d="M61.716,55.011c0.192-0.322,0.353-0.678,0.636-0.908
			C62.16,54.425,62,54.78,61.716,55.011z"/>
		<path fill-rule="evenodd" clip-rule="evenodd" fill="#E4D5B6" d="M64.075,51.108c0.281-0.447,0.458-0.994,0.817-1.361
			C64.636,50.216,64.449,50.755,64.075,51.108z"/>
		<path fill-rule="evenodd" clip-rule="evenodd" fill="#E4D5B6" d="M64.893,20.071c-0.304-0.392-0.474-0.919-0.727-1.361
			C64.517,19.057,64.693,19.574,64.893,20.071z"/>
		<path fill-rule="evenodd" clip-rule="evenodd" fill="#E4D5B6" d="M63.712,17.803c-0.286-0.227-0.408-0.621-0.544-0.999
			C63.413,17.074,63.521,17.481,63.712,17.803z"/>
		<path fill-rule="evenodd" clip-rule="evenodd" fill="#E4D5B6" d="M62.986,16.26c-0.329-0.246-0.405-0.744-0.635-1.09
			C62.682,15.416,62.757,15.915,62.986,16.26z"/>
		<path fill-rule="evenodd" clip-rule="evenodd" fill="#E4D5B6" d="M61.807,14.172c-0.664-0.757-1.281-1.562-1.905-2.359
			C60.623,12.513,61.219,13.339,61.807,14.172z"/>
		<path fill-rule="evenodd" clip-rule="evenodd" fill="#D1BA68" d="M58.631,10.452c0.533,0.344,0.979,0.777,1.271,1.361
			c-0.468-0.379-0.758-0.937-1.271-1.27C58.631,10.512,58.631,10.482,58.631,10.452z"/>
		<path fill-rule="evenodd" clip-rule="evenodd" fill="#E4D5B6" d="M58.631,10.452c-0.355-0.34-0.776-0.615-1.089-0.998
			C57.945,9.746,58.345,10.042,58.631,10.452z"/>
		<path fill-rule="evenodd" clip-rule="evenodd" fill="#E4D5B6" d="M54.909,8.001c-0.377-0.136-0.771-0.257-0.998-0.544
			C54.233,7.65,54.64,7.758,54.909,8.001z"/>
		<path fill-rule="evenodd" clip-rule="evenodd" fill="#E4D5B6" d="M53.821,7.457c-0.346-0.229-0.844-0.306-1.09-0.636
			C53.078,7.051,53.576,7.127,53.821,7.457z"/>
		<path fill-rule="evenodd" clip-rule="evenodd" fill="#D1BA68" d="M47.469,4.553c1.455,0.39,2.793,0.896,3.901,1.633
			c-1.279-0.534-2.452-1.178-3.901-1.542C47.469,4.613,47.469,4.583,47.469,4.553z"/>
		<path fill-rule="evenodd" clip-rule="evenodd" fill="#D1BA68" d="M59.629,57.37c0.564-0.586,1.07-1.229,1.634-1.816
			c-0.082,0.162-0.22,0.266-0.272,0.455c0,0.029,0,0.061,0,0.09C60.483,56.47,60.136,57.001,59.629,57.37z"/>
		<path fill-rule="evenodd" clip-rule="evenodd" fill="#E9CF6C" d="M13.346,10.815c0.416-0.553,0.834-1.101,1.452-1.452
			C14.352,9.885,13.867,10.369,13.346,10.815z"/>
		<path fill-rule="evenodd" clip-rule="evenodd" fill="#D1BA68" d="M12.438,11.722c0.266-0.34,0.567-0.643,0.908-0.907
			c0,0.03,0,0.06,0,0.091C12.989,11.123,12.795,11.504,12.438,11.722z"/>
		<path fill-rule="evenodd" clip-rule="evenodd" fill="#E9CF6C" d="M12.166,12.085c0.026-0.185,0.246-0.178,0.271-0.363
			c0.357-0.218,0.552-0.599,0.908-0.816C12.99,11.337,12.598,11.73,12.166,12.085z"/>
		<path fill-rule="evenodd" clip-rule="evenodd" fill="#D1BA68" d="M10.714,13.628c0.486-0.513,0.88-1.116,1.452-1.543
			C11.672,12.589,11.28,13.196,10.714,13.628z"/>
		<path fill-rule="evenodd" clip-rule="evenodd" fill="#D1BA68" d="M10.895,56.915c0.613,0.568,1.229,1.133,1.816,1.725
			C12.037,58.134,11.438,57.554,10.895,56.915z"/>
		<path fill-rule="evenodd" clip-rule="evenodd" fill="#D1BA68" d="M47.469,63.087c0.186-0.297,0.621-0.348,0.906-0.545
			c0.074-0.016,0.091-0.09,0.182-0.09C48.312,62.78,47.813,62.858,47.469,63.087z"/>
		<path fill-rule="evenodd" clip-rule="evenodd" fill="#E9CF6C" d="M54.456,59.366c0.295-0.371,0.628-0.703,0.998-0.998
			C55.193,58.772,54.917,59.161,54.456,59.366z"/>
		<path fill-rule="evenodd" clip-rule="evenodd" fill="#D1BA68" d="M55.454,58.368c0.086-0.277,0.441-0.285,0.454-0.635
			c0.211-0.063,0.243-0.301,0.454-0.363C56.063,57.706,55.847,58.124,55.454,58.368z"/>
		<path fill-rule="evenodd" clip-rule="evenodd" fill="#D1BA68" d="M56.362,57.278c0.061-0.209,0.302-0.242,0.362-0.453
			c0-0.029,0-0.061,0-0.092c0.327-0.186,0.49-0.537,0.817-0.725C57.139,56.421,56.813,56.913,56.362,57.278z"/>
		<path fill-rule="evenodd" clip-rule="evenodd" fill="#D1BA68" d="M60.537,18.074c-0.319-0.285-0.469-0.742-0.636-1.179
			C60.175,17.227,60.313,17.693,60.537,18.074z"/>
		<path fill-rule="evenodd" clip-rule="evenodd" fill="#D1BA68" d="M57.36,12.811c-0.363-0.272-0.594-0.677-0.908-0.998
			c-0.43-0.567-1.021-0.975-1.451-1.542C55.874,11.03,56.66,11.878,57.36,12.811z"/>
		<path fill-rule="evenodd" clip-rule="evenodd" fill="#D1BA68" d="M52.188,8.637c-0.405-0.26-0.966-0.366-1.271-0.726
			C51.321,8.171,51.883,8.276,52.188,8.637z"/>
		<path fill-rule="evenodd" clip-rule="evenodd" fill="#F9E274" d="M37.213,3.646c5.606,0.383,9.876,2.103,13.703,4.266
			c0.306,0.36,0.866,0.465,1.271,0.726c0.623,0.406,1.509,0.549,1.996,1.089c-0.25-0.071,0.714,0.654,0.998,0.907
			c0.469,0.418,0.918,0.896,1.271,1.18c0.314,0.321,0.545,0.726,0.908,0.998c0.92,1.289,1.969,2.448,2.541,4.084
			c0.167,0.437,0.316,0.894,0.636,1.179c2.642,4.619,3.94,10.58,4.445,17.334c0,0.484,0,0.968,0,1.452
			c-0.481,4.328-1.357,8.262-2.813,11.615c-0.092-0.086-0.802,1.225-0.454,1c-1.033,1.688-1.926,3.518-3.085,5.082
			c-0.658,0.703-1.256,1.467-1.906,2.176c0,0.031,0,0.063,0,0.092c-0.359,0.215-0.538,0.611-0.816,0.908
			c-0.013,0.35-0.368,0.357-0.454,0.635c-0.37,0.295-0.703,0.627-0.998,0.998c-1.37,1.322-3.665,1.719-5.264,2.813
			c0.222-0.336-0.704,0.168-0.817,0.363c-0.285,0.197-0.721,0.248-0.906,0.545c-3.054,1.637-6.458,2.92-10.71,3.357
			c-0.636,0.061-1.511-0.119-1.995,0.092c-0.424,0-0.848,0-1.271,0c-3.383,0.107-5.642-1.252-8.168-2.178
			c-4.396-1.613-8.754-3.357-12.613-5.719c-0.588-0.592-1.203-1.156-1.816-1.725c-1.353-2.336-3.544-3.836-4.627-6.441
			c-0.184-0.666-0.625-1.555-0.908-1.816c-3.326-4.994-4.09-14.813-2.178-22.052c1.46-5.529,4.693-9.509,7.532-12.978
			c0.566-0.432,0.958-1.039,1.452-1.543c0.432-0.355,0.824-0.748,1.18-1.179c0-0.031,0-0.061,0-0.091
			c0.521-0.446,1.006-0.93,1.452-1.452c3.695-2.899,7.368-5.82,13.976-5.808c2.209,0,4.416,0,6.625,0
			C35.822,3.765,36.638,3.586,37.213,3.646z M27.594,4.553c-0.132,0.049-0.469-0.106-0.453,0.091
			c-2.289,0.07-4.078,0.641-5.719,1.361c-0.377,0.136-0.771,0.258-0.998,0.544c-0.537,0.127-0.843,0.488-1.27,0.726
			c-0.416,0.25-0.856,0.475-1.181,0.817c-1.065,0.598-1.987,1.34-2.903,2.087c-0.092,0-0.108,0.073-0.182,0.091
			c-0.401,0.325-0.765,0.688-1.09,1.089c0.001,0.091-0.072,0.108-0.09,0.181c-0.371,0.295-0.704,0.627-0.998,0.999
			c-0.102,0.444-0.551,0.538-0.727,0.908c-0.787,0.907-1.553,1.836-2.269,2.813c-0.368,0.237-0.556,0.655-0.817,0.998
			c0.066,0.248-0.18,0.184-0.182,0.363c-2.91,3.926-5.158,8.516-5.354,15.155c-0.151,0.878-0.151,2.39,0,3.267
			c0,0.151,0,0.303,0,0.454c-0.055,0.408,0.068,1.507,0.09,0.545c0.172,1.039,0.089,2.332,0.363,3.268
			c0.057,0.273-0.115,0.781,0.092,0.906c0.005,1.084,0.273,1.904,0.453,2.813c0.064,0.391,0.148,0.762,0.363,0.998
			c0.311,0.719,0.578,1.479,0.907,2.18c0.101,0.354,0.251,0.656,0.454,0.906c0.297,0.611,0.494,1.322,0.816,1.906
			c0.26,0.617,0.496,1.258,0.908,1.725c0.477,1.057,1.389,1.738,2.086,2.633c0.689,0.881,1.177,1.949,1.997,2.721
			c2.344,2.205,5.745,2.852,8.894,4.357c0.391,0.305,0.953,0.438,1.452,0.635c0.03,0,0.06,0,0.091,0
			c0.286,0.229,0.693,0.336,1.09,0.453c0.122,0.029,0.172,0.129,0.362,0.092c0.378,0.287,0.96,0.371,1.452,0.545
			c1.53,0.494,2.934,1.119,4.355,1.725c-0.055,0.004-0.107,0.012-0.09,0.09c0.459,0.086,0.742,0.346,1.361,0.271
			c0.715,0.102,1.527,0.105,2.178,0.273c-1.097-0.037-0.47,0.162,0.271,0.09c0.242,0,0.484,0,0.727,0c0.186,0.15,0.994,0.15,1.18,0
			c0.132-0.049,0.469,0.107,0.453-0.09c2.032-0.057,3.597-0.58,5.264-0.998c0.563-0.104,1.19-0.141,1.544-0.455
			c-0.031,0-0.061,0-0.091,0c0.015-0.105,0.144-0.098,0.271-0.09c0.462-0.145,0.938-0.273,1.271-0.545c0.03,0,0.061,0,0.092,0
			c0.509-0.004,0.774-0.254,1.088-0.453c-0.03,0-0.061,0-0.09,0c0.23-0.254,0.646-0.322,0.998-0.455
			c0.447-0.098,0.698-0.391,1.18-0.453c0.496-0.199,1.016-0.375,1.36-0.727c0.286-0.197,0.722-0.246,0.908-0.543
			c1.932-0.822,4.054-1.453,5.264-2.996c0.956-1.102,2.245-2.352,2.904-3.447c-0.051,0.131-0.142,0.221-0.272,0.271
			c1.31-1.533,2.217-3.471,3.268-5.264c0.282-0.324,0.703-0.988,0.635-1.361c1.325-3.061,2.136-6.637,2.449-10.708
			c0.297-0.251,0.229-1.344,0.091-1.725c-0.486-5.441-0.978-10.879-2.722-15.064c0.12,0.001,0.083,0.158,0.182,0.182
			c-0.078-0.32-0.293-0.975-0.453-0.908c-0.524-1.02-1.044-2.041-1.634-2.995c0.337,0.221-0.166-0.704-0.363-0.816
			c-0.054-0.189-0.191-0.293-0.272-0.454c-0.1-0.324-0.386-0.46-0.453-0.816c-1.237-1.457-2.328-3.058-3.994-4.084
			c-0.347-0.108-0.575-0.332-0.907-0.454c-0.031,0-0.061,0-0.091,0c-0.39-0.458-1.047-0.647-1.634-0.908
			c-0.337-0.057-0.53-0.255-0.817-0.363c-0.577-0.239-0.993-0.641-1.633-0.817c-0.372-0.263-0.796-0.474-1.271-0.635
			c-3.1-1.529-6.834-2.422-11.162-2.723c0.016-0.197-0.321-0.041-0.454-0.09c-0.425-0.151-1.48-0.151-1.905,0
			c-0.091,0-0.182,0-0.272,0c-0.126-0.207-0.632-0.034-0.907-0.091C31.436,4.402,29.197,4.402,27.594,4.553z"/>
		<path fill-rule="evenodd" clip-rule="evenodd" fill="#E9CF6C" d="M56.452,11.813c-0.353-0.284-0.802-0.762-1.271-1.18
			c-0.284-0.253-1.248-0.978-0.998-0.907c0.385,0.069,0.529,0.378,0.817,0.544C55.432,10.838,56.022,11.246,56.452,11.813z"/>
		<path fill-rule="evenodd" clip-rule="evenodd" fill="#E9CF6C" d="M61.716,49.476c-0.348,0.225,0.362-1.086,0.454-1
			C62.081,48.872,61.855,49.13,61.716,49.476z"/>
		<path fill-rule="evenodd" clip-rule="evenodd" fill="#E9CF6C" d="M56.725,56.733c0.65-0.709,1.248-1.473,1.906-2.176
			c-0.233,0.613-0.731,0.961-1.089,1.451C57.215,56.196,57.052,56.548,56.725,56.733z"/>
		<path fill-rule="evenodd" clip-rule="evenodd" fill="#E9CF6C" d="M55.908,57.733c0.278-0.297,0.457-0.693,0.816-0.908
			c-0.061,0.211-0.302,0.244-0.362,0.453c0,0.031,0,0.061,0,0.092C56.151,57.433,56.119,57.671,55.908,57.733z"/>
		<path fill-rule="evenodd" clip-rule="evenodd" fill="#E9CF6C" d="M48.375,62.542c0.113-0.195,1.039-0.699,0.817-0.363
			c-0.228,0.076-0.356,0.25-0.636,0.273C48.466,62.452,48.449,62.526,48.375,62.542z"/>
		<path fill-rule="evenodd" clip-rule="evenodd" fill="#E9CF6C" d="M5.359,48.657c0.283,0.262,0.725,1.15,0.908,1.816
			C5.914,49.919,5.611,49.313,5.359,48.657z"/>
		<path fill-rule="evenodd" clip-rule="evenodd" fill="#D1BA68" d="M43.021,4.1c-0.448,0.054,0.095-0.267,0.091,0
			c0.978,0.082,2.3,0.299,2.723,0.635C45.098,5.039,43.904,4.251,43.021,4.1z"/>
		<path fill-rule="evenodd" clip-rule="evenodd" fill="#E9CF6C" d="M13.799,11.359c0.325-0.401,0.688-0.764,1.09-1.089
			C14.563,10.671,14.201,11.034,13.799,11.359z"/>
		<path fill-rule="evenodd" clip-rule="evenodd" fill="#D1BA68" d="M13.709,11.541c0.018-0.073,0.091-0.09,0.09-0.181
			c0.402-0.325,0.765-0.688,1.09-1.089c0.073-0.018,0.09-0.091,0.182-0.091C14.654,10.671,14.201,11.125,13.709,11.541z"/>
		<path fill-rule="evenodd" clip-rule="evenodd" fill="#E9CF6C" d="M12.711,12.539c0.294-0.371,0.627-0.704,0.998-0.999
			c-0.027,0.185-0.246,0.178-0.273,0.363C13.139,12.061,13.008,12.382,12.711,12.539z"/>
		<path fill-rule="evenodd" clip-rule="evenodd" fill="#E9CF6C" d="M8.898,17.258c0.262-0.343,0.449-0.76,0.817-0.998
			c0.043,0.285-0.245,0.24-0.272,0.454C9.156,16.79,9.186,17.182,8.898,17.258z"/>
		<path fill-rule="evenodd" clip-rule="evenodd" fill="#E9CF6C" d="M30.861,65.265c-0.619,0.074-0.902-0.186-1.361-0.271
			c-0.018-0.078,0.035-0.086,0.09-0.09c0.503,0.01,0.7,0.326,1.271,0.271C30.861,65.204,30.861,65.235,30.861,65.265z"/>
		<path fill-rule="evenodd" clip-rule="evenodd" fill="#E9CF6C" d="M40.934,64.54c0.4-0.234,0.935-0.336,1.453-0.455
			c0.03,0,0.06,0,0.091,0C42.124,64.399,41.497,64.437,40.934,64.54z"/>
		<path fill-rule="evenodd" clip-rule="evenodd" fill="#E9CF6C" d="M45.019,62.997c0.029,0,0.06,0,0.09,0
			c-0.313,0.199-0.579,0.449-1.088,0.453C44.276,63.224,44.628,63.091,45.019,62.997z"/>
		<path fill-rule="evenodd" clip-rule="evenodd" fill="#E9CF6C" d="M47.196,62.089c0.392-0.305,0.918-0.473,1.36-0.727
			C48.212,61.714,47.692,61.89,47.196,62.089z"/>
		<path fill-rule="evenodd" clip-rule="evenodd" fill="#E9CF6C" d="M57.36,54.647c0.131-0.051,0.222-0.141,0.272-0.271
			c-0.659,1.096-1.948,2.346-2.904,3.447C55.481,56.64,56.504,55.728,57.36,54.647z"/>
		<path fill-rule="evenodd" clip-rule="evenodd" fill="#E9CF6C" d="M60.628,49.384c0.149-0.516,0.434-0.896,0.635-1.361
			C61.331,48.396,60.91,49.06,60.628,49.384z"/>
		<path fill-rule="evenodd" clip-rule="evenodd" fill="#E9CF6C" d="M60.81,19.799c0.16-0.066,0.375,0.588,0.453,0.908
			c-0.099-0.023-0.062-0.181-0.182-0.182C60.968,20.307,60.855,20.084,60.81,19.799z"/>
		<path fill-rule="evenodd" clip-rule="evenodd" fill="#E9CF6C" d="M58.813,15.988c0.197,0.113,0.7,1.038,0.363,0.816
			C59.102,16.485,58.811,16.383,58.813,15.988z"/>
		<path fill-rule="evenodd" clip-rule="evenodd" fill="#E9CF6C" d="M58.087,14.717c-0.186-0.027-0.179-0.246-0.364-0.272
			c0-0.03,0-0.061,0-0.091c-1.124-1.326-2.217-2.683-3.63-3.721C55.759,11.66,56.85,13.261,58.087,14.717z"/>
		<path fill-rule="evenodd" clip-rule="evenodd" fill="#E9CF6C" d="M51.461,9.272c0.587,0.26,1.244,0.45,1.634,0.908
			c-0.304-0.15-0.604-0.304-0.907-0.454C52.022,9.497,51.626,9.501,51.461,9.272z"/>
		<path fill-rule="evenodd" clip-rule="evenodd" fill="#D1BA68" d="M47.74,7.457c0.475,0.161,0.898,0.373,1.271,0.635
			C48.536,7.931,48.113,7.72,47.74,7.457z"/>
		<path fill-rule="evenodd" clip-rule="evenodd" fill="#D1BA68" d="M50.644,8.909c0.287,0.107,0.48,0.306,0.817,0.363
			c0.165,0.229,0.562,0.225,0.727,0.454C51.631,9.496,51.05,9.29,50.644,8.909z"/>
		<path fill-rule="evenodd" clip-rule="evenodd" fill="#D1BA68" d="M53.186,10.18c0.332,0.122,0.561,0.346,0.907,0.454
			c1.413,1.038,2.506,2.395,3.63,3.721c-1.466-1.407-2.562-3.185-4.537-4.083C53.186,10.24,53.186,10.21,53.186,10.18z"/>
		<path fill-rule="evenodd" clip-rule="evenodd" fill="#D1BA68" d="M57.723,14.445c0.186,0.027,0.179,0.246,0.364,0.272
			c0.067,0.356,0.354,0.493,0.453,0.816C58.196,15.242,58.031,14.772,57.723,14.445z"/>
		<path fill-rule="evenodd" clip-rule="evenodd" fill="#D1BA68" d="M46.017,62.542c1.103-0.621,2.329-1.119,3.448-1.723
			c-0.187,0.297-0.622,0.346-0.908,0.543c-0.442,0.254-0.969,0.422-1.36,0.727C46.715,62.151,46.464,62.444,46.017,62.542z"/>
		<path fill-rule="evenodd" clip-rule="evenodd" fill="#D1BA68" d="M42.658,63.995c0.349-0.258,0.834-0.377,1.271-0.545
			C43.596,63.722,43.12,63.851,42.658,63.995z"/>
		<path fill-rule="evenodd" clip-rule="evenodd" fill="#D1BA68" d="M25.234,63.179c-0.492-0.174-1.074-0.258-1.452-0.545
			C24.273,62.808,24.855,62.892,25.234,63.179z"/>
		<path fill-rule="evenodd" clip-rule="evenodd" fill="#D1BA68" d="M23.42,62.542c-0.396-0.117-0.804-0.225-1.09-0.453
			C22.726,62.208,23.133,62.315,23.42,62.542z"/>
		<path fill-rule="evenodd" clip-rule="evenodd" fill="#D1BA68" d="M22.239,62.089c-0.499-0.197-1.062-0.33-1.452-0.635
			C21.285,61.649,21.848,61.784,22.239,62.089z"/>
		<path fill-rule="evenodd" clip-rule="evenodd" fill="#D1BA68" d="M7.811,51.743c-0.412-0.467-0.648-1.107-0.908-1.725
			C7.266,50.532,7.497,51.179,7.811,51.743z"/>
		<path fill-rule="evenodd" clip-rule="evenodd" fill="#D1BA68" d="M5.632,47.206c0.202,0.25,0.353,0.555,0.454,0.906
			C5.883,47.862,5.732,47.56,5.632,47.206z"/>
		<path fill-rule="evenodd" clip-rule="evenodd" fill="#D1BA68" d="M4.361,44.028c0.188,0.268,0.253,0.654,0.363,0.998
			C4.51,44.79,4.426,44.419,4.361,44.028z"/>
		<path fill-rule="evenodd" clip-rule="evenodd" fill="#D1BA68" d="M8.717,17.621c0.002-0.18,0.248-0.115,0.182-0.363
			c0.287-0.076,0.258-0.468,0.545-0.544c-0.189,0.325-0.446,0.581-0.635,0.907C8.777,17.621,8.748,17.621,8.717,17.621z"/>
		<path fill-rule="evenodd" clip-rule="evenodd" fill="#D1BA68" d="M11.984,13.447c0.176-0.37,0.625-0.464,0.727-0.908
			c0.297-0.157,0.428-0.479,0.725-0.636C12.95,12.416,12.557,13.021,11.984,13.447z"/>
		<path fill-rule="evenodd" clip-rule="evenodd" fill="#D1BA68" d="M17.974,8.092c0.324-0.342,0.765-0.566,1.181-0.817
			C18.83,7.617,18.389,7.842,17.974,8.092z"/>
		<path fill-rule="evenodd" clip-rule="evenodd" fill="#D1BA68" d="M20.424,6.549c0.228-0.287,0.621-0.408,0.998-0.544
			C21.152,6.249,20.746,6.356,20.424,6.549z"/>
		<path fill-rule="evenodd" clip-rule="evenodd" fill="#D1BA68" d="M20.334,7.094c0.186-0.298,0.621-0.346,0.907-0.544
			C21.055,6.847,20.619,6.896,20.334,7.094z"/>
		<path fill-rule="evenodd" clip-rule="evenodd" fill="#D1BA68" d="M17.974,8.637c0.235-0.34,0.645-0.505,0.999-0.726
			C18.715,8.228,18.293,8.381,17.974,8.637z"/>
		<path fill-rule="evenodd" clip-rule="evenodd" fill="#D1BA68" d="M13.436,12.448c0.266-0.34,0.568-0.643,0.908-0.908
			C14.08,11.881,13.777,12.184,13.436,12.448z"/>
		<path fill-rule="evenodd" clip-rule="evenodd" fill="#E9CF6C" d="M13.255,12.72c-0.05-0.201,0.173-0.128,0.181-0.272
			c0.342-0.264,0.645-0.567,0.908-0.908c0.17-0.375,0.441-0.647,0.816-0.816C14.537,11.401,13.978,12.143,13.255,12.72z"/>
		<path fill-rule="evenodd" clip-rule="evenodd" fill="#D1BA68" d="M12.075,13.991c0.385-0.432,0.698-0.936,1.18-1.271
			C12.85,13.131,12.545,13.644,12.075,13.991z"/>
		<path fill-rule="evenodd" clip-rule="evenodd" fill="#D1BA68" d="M8.082,19.346c0.282-0.443,0.505-0.947,0.908-1.271
			c0,0.031,0,0.062,0,0.092c-0.318,0.258-0.471,0.68-0.727,0.998C8.223,19.244,8.184,19.326,8.082,19.346z"/>
		<path fill-rule="evenodd" clip-rule="evenodd" fill="#D1BA68" d="M6.268,47.567c0.202,0.252,0.353,0.557,0.453,0.908
			C6.518,48.226,6.367,47.921,6.268,47.567z"/>
		<path fill-rule="evenodd" clip-rule="evenodd" fill="#D1BA68" d="M6.812,48.749c0.278,0.387,0.44,0.891,0.636,1.361
			C7.154,49.737,6.979,49.245,6.812,48.749z"/>
		<path fill-rule="evenodd" clip-rule="evenodd" fill="#D1BA68" d="M14.525,58.278c0.383,0.221,0.849,0.361,1.18,0.635
			C15.268,58.745,14.813,58.597,14.525,58.278z"/>
		<path fill-rule="evenodd" clip-rule="evenodd" fill="#D1BA68" d="M46.743,61.726c0.227-0.256,0.68-0.287,0.906-0.545
			c0.163,0.012,0.191-0.109,0.363-0.09C47.64,61.353,47.217,61.565,46.743,61.726z"/>
		<path fill-rule="evenodd" clip-rule="evenodd" fill="#D1BA68" d="M48.467,60.909c0.245-0.328,0.743-0.406,1.088-0.635
			C49.31,60.604,48.812,60.681,48.467,60.909z"/>
		<path fill-rule="evenodd" clip-rule="evenodd" fill="#D1BA68" d="M54.638,57.188c0.239-0.395,0.636-0.635,0.816-1.09
			c0.543-0.395,0.913-0.961,1.362-1.451c0-0.031,0-0.061,0-0.09c0.185-0.027,0.177-0.246,0.362-0.273
			C56.377,55.298,55.523,56.259,54.638,57.188z"/>
		<path fill-rule="evenodd" clip-rule="evenodd" fill="#D1BA68" d="M59.992,19.254c0.286,0.229,0.408,0.621,0.545,0.999
			C60.292,19.982,60.185,19.576,59.992,19.254z"/>
		<path fill-rule="evenodd" clip-rule="evenodd" fill="#D1BA68" d="M58.449,16.351c0.319,0.286,0.467,0.743,0.636,1.18
			C58.811,17.199,58.673,16.733,58.449,16.351z"/>
		<path fill-rule="evenodd" clip-rule="evenodd" fill="#D1BA68" d="M57.542,14.808c-0.16-0.082-0.281-0.203-0.363-0.363
			c-1.031-1.177-2.016-2.401-3.268-3.358C55.389,12.061,56.42,13.479,57.542,14.808z"/>
		<path fill-rule="evenodd" clip-rule="evenodd" fill="#D1BA68" d="M53.367,10.815c-0.405-0.17-0.725-0.426-1.18-0.544
			c-0.022-0.099-0.181-0.062-0.182-0.182C52.502,10.288,53.021,10.465,53.367,10.815z"/>
		<path fill-rule="evenodd" clip-rule="evenodd" fill="#D1BA68" d="M51.279,9.816c-0.285-0.108-0.48-0.306-0.816-0.363
			c-0.018-0.074-0.092-0.091-0.092-0.182c0.322,0.193,0.729,0.3,0.999,0.544C51.341,9.816,51.311,9.816,51.279,9.816z"/>
		<path fill-rule="evenodd" clip-rule="evenodd" fill="#D1BA68" d="M49.918,9.09c-0.185-0.086-0.359-0.185-0.545-0.272
			c-0.071-0.048-0.146-0.095-0.271-0.091c-0.017-0.074-0.092-0.09-0.091-0.181C49.297,8.744,49.732,8.793,49.918,9.09z"/>
		<path fill-rule="evenodd" clip-rule="evenodd" fill="#E9CF6C" d="M49.102,8.728c-0.542-0.366-1.659-0.639-1.905-0.999
			c0.725,0.153,1.19,0.564,1.814,0.817C49.01,8.637,49.085,8.654,49.102,8.728z"/>
		<path fill-rule="evenodd" clip-rule="evenodd" fill="#E9CF6C" d="M49.373,8.818c0.186,0.087,0.36,0.186,0.545,0.272
			c0.226-0.014,0.281,0.143,0.453,0.182c0,0.091,0.074,0.108,0.092,0.182C50.118,9.224,49.62,9.147,49.373,8.818z"/>
		<path fill-rule="evenodd" clip-rule="evenodd" fill="#E9CF6C" d="M51.279,9.816c0.031,0,0.062,0,0.091,0
			c0.27,0.033,0.461,0.145,0.636,0.272c0.001,0.12,0.159,0.083,0.182,0.182C51.834,10.17,51.53,10.019,51.279,9.816z"/>
		<path fill-rule="evenodd" clip-rule="evenodd" fill="#F9E274" d="M52.188,10.271c0.455,0.119,0.774,0.375,1.18,0.544
			c0.212,0.03,0.391,0.092,0.454,0.272c-0.251,0.002,0.725,0.566,0.907,0.726c0.822,0.725,1.65,2.002,2.45,2.632
			c0.082,0.16,0.203,0.281,0.363,0.363c0.156,0.54,0.598,0.793,0.816,1.271c-0.255-0.021,0.435,1.218,0.727,1.542
			c0.409,0.438,0.551,1.143,0.907,1.633c0.192,0.322,0.3,0.729,0.545,0.999c1.76,4.351,2.288,9.933,2.813,15.519
			c0,0.363,0,0.726,0,1.089c-0.479,6.992-2.626,12.316-5.717,16.699c0.064-0.342-0.577,0.758-0.816,0.998c0,0.029,0,0.059,0,0.09
			c-0.532,0.406-0.896,0.98-1.362,1.451c-0.181,0.455-0.577,0.695-0.816,1.09c-1.103,1.619-3.195,2.25-5.083,3.086
			c-0.345,0.229-0.843,0.307-1.088,0.635c-0.29-0.078-0.281,0.143-0.454,0.182c-0.172-0.02-0.2,0.102-0.363,0.09
			c-0.396,0.15-1.136,0.436-1.179,0.637c-0.152,0.242-0.627,0.16-0.817,0.361c-0.436-0.01-1.01,0.318-0.998,0.455
			c-2.032,0.992-4.421,1.629-6.897,2.178c-0.409-0.074-1.838,0.141-0.999,0.182c-0.067,0.205-0.508,0.035-0.725,0.092
			c-0.333,0-0.666,0-0.999,0c-0.305,0.055-0.843-0.117-0.998,0.09c-0.061,0-0.121,0-0.182,0c-0.215-0.209-0.814-0.033-1.18-0.09
			c-3.303-0.299-5.256-1.943-8.168-2.633c-0.061-0.258-1.283-0.611-0.816-0.273c-2.604-1.146-5.323-2.178-7.986-3.266
			c-0.331-0.273-0.797-0.414-1.18-0.635c-3.029-1.479-4.439-4.576-6.534-6.988c0.337,0.221-0.165-0.705-0.363-0.816
			c-0.047-0.135-0.134-0.23-0.181-0.363c-0.195-0.471-0.357-0.975-0.636-1.361c0.026-0.148-0.086-0.156-0.091-0.273
			c-0.101-0.352-0.251-0.656-0.453-0.908c-1.545-2.75-2.059-6.531-2.359-10.525c-0.059-0.306,0.116-0.844-0.092-0.999
			c0-0.181,0-0.362,0-0.543c0-0.455,0-0.908,0-1.362c0.211-0.425,0.031-1.239,0.092-1.815c0-0.332,0-0.665,0-0.998
			c0.351-5.033,2.029-8.738,4.174-11.979c0.102-0.02,0.141-0.102,0.182-0.182c0.34-0.234,0.505-0.645,0.727-0.998
			c0-0.03,0-0.061,0-0.092c0.758-0.875,1.438-1.829,2.086-2.813c0.295-0.462,0.743-0.77,0.999-1.271
			c0.47-0.348,0.774-0.86,1.18-1.271c0.723-0.578,1.282-1.319,1.905-1.996c0.891-0.744,1.826-1.442,2.813-2.087
			c0.319-0.256,0.741-0.409,0.999-0.726c0.515-0.211,0.887-0.564,1.361-0.817c0.285-0.198,0.721-0.247,0.907-0.544
			c1.522-0.563,3.04-1.134,4.9-1.361c0.456-0.059,1.147,0.119,1.452-0.091c0.09,0,0.182,0,0.271,0
			c0.426-0.059,1.088,0.119,1.362-0.09c0.302,0,0.604,0,0.907,0c0.666,0.211,1.724,0.031,2.541,0.09c0.756,0,1.513,0,2.269,0
			c0.395,0.211,1.179,0.032,1.725,0.091c4.05,0.307,7.584,1.128,10.527,2.541c0.246,0.36,1.363,0.632,1.905,0.999
			c0.125-0.004,0.2,0.042,0.271,0.091c0.247,0.329,0.745,0.406,1.09,0.635c0.336,0.057,0.531,0.255,0.816,0.363
			C51.53,10.019,51.834,10.17,52.188,10.271z"/>
		<path fill-rule="evenodd" clip-rule="evenodd" fill="#E9CF6C" d="M57.179,14.445c-0.8-0.629-1.628-1.907-2.45-2.632
			c-0.183-0.16-1.158-0.724-0.907-0.726c0.03,0,0.06,0,0.09,0C55.163,12.044,56.147,13.268,57.179,14.445z"/>
		<path fill-rule="evenodd" clip-rule="evenodd" fill="#E9CF6C" d="M59.085,17.621c-0.292-0.324-0.981-1.564-0.727-1.542
			c0.048,0.073,0.095,0.147,0.091,0.272c0.224,0.382,0.361,0.848,0.636,1.18C59.085,17.561,59.085,17.591,59.085,17.621z"/>
		<path fill-rule="evenodd" clip-rule="evenodd" fill="#E9CF6C" d="M56.816,54.558c0.239-0.24,0.881-1.34,0.816-0.998
			c-0.055,0.338-0.317,0.467-0.454,0.725C56.993,54.312,57.001,54.53,56.816,54.558z"/>
		<path fill-rule="evenodd" clip-rule="evenodd" fill="#E9CF6C" d="M55.454,56.099c0.466-0.471,0.83-1.045,1.362-1.451
			C56.367,55.138,55.997,55.704,55.454,56.099z"/>
		<path fill-rule="evenodd" clip-rule="evenodd" fill="#E9CF6C" d="M46.471,61.817c0.043-0.201,0.782-0.486,1.179-0.637
			c-0.227,0.258-0.68,0.289-0.906,0.545C46.669,61.774,46.595,61.821,46.471,61.817z"/>
		<path fill-rule="evenodd" clip-rule="evenodd" fill="#E9CF6C" d="M44.655,62.634c-0.012-0.137,0.563-0.465,0.998-0.455
			C45.406,62.417,45.009,62.503,44.655,62.634z"/>
		<path fill-rule="evenodd" clip-rule="evenodd" fill="#E9CF6C" d="M36.759,64.993c-0.839-0.041,0.59-0.256,0.999-0.182
			C37.51,64.956,37.158,64.999,36.759,64.993z"/>
		<path fill-rule="evenodd" clip-rule="evenodd" fill="#E9CF6C" d="M23.691,62.179c-0.467-0.338,0.756,0.016,0.816,0.273
			C24.213,62.384,23.946,62.288,23.691,62.179z"/>
		<path fill-rule="evenodd" clip-rule="evenodd" fill="#E9CF6C" d="M7.628,50.474c0.198,0.111,0.7,1.037,0.363,0.816
			C7.883,51.003,7.686,50.81,7.628,50.474z"/>
		<path fill-rule="evenodd" clip-rule="evenodd" fill="#E9CF6C" d="M8.264,19.164c0.256-0.318,0.408-0.74,0.727-0.998
			C8.769,18.52,8.604,18.93,8.264,19.164z"/>
		<path fill-rule="evenodd" clip-rule="evenodd" fill="#E9CF6C" d="M11.076,15.262c-0.648,0.983-1.328,1.938-2.086,2.813
			C9.589,17.041,10.279,16.098,11.076,15.262z"/>
		<path fill-rule="evenodd" clip-rule="evenodd" fill="#E9CF6C" d="M36.124,3.555c0.336,0.058,0.904-0.118,1.089,0.091
			c-0.575-0.06-1.391,0.119-1.814-0.091C35.641,3.555,35.883,3.555,36.124,3.555z"/>
		<path fill-rule="evenodd" clip-rule="evenodd" fill="#BE9954" d="M36.578,4.734c4.328,0.3,8.063,1.193,11.162,2.723
			c0.373,0.263,0.796,0.474,1.271,0.635c0.64,0.176,1.056,0.578,1.633,0.817c0.406,0.38,0.987,0.587,1.544,0.817
			c0.303,0.15,0.604,0.303,0.907,0.454c0.03,0,0.06,0,0.091,0c0,0.03,0,0.06,0,0.091c1.976,0.898,3.071,2.677,4.537,4.083
			c0,0.03,0,0.061,0,0.091c0.309,0.327,0.474,0.797,0.817,1.089c0.081,0.161,0.219,0.265,0.272,0.454
			c-0.002,0.396,0.289,0.497,0.363,0.816c0.59,0.954,1.109,1.975,1.634,2.995c0.046,0.285,0.158,0.508,0.271,0.727
			c1.744,4.186,2.235,9.623,2.722,15.064c0.056,0.66-0.069,1.14-0.091,1.725c-0.313,4.071-1.124,7.647-2.449,10.708
			c-0.201,0.465-0.485,0.846-0.635,1.361c-1.051,1.793-1.958,3.73-3.268,5.264c-0.856,1.08-1.879,1.992-2.632,3.176
			c-1.21,1.543-3.332,2.174-5.264,2.996c-1.119,0.604-2.346,1.102-3.448,1.723c-0.353,0.133-0.768,0.201-0.998,0.455
			c-0.391,0.094-0.742,0.227-0.998,0.453c-0.031,0-0.062,0-0.092,0c-0.437,0.168-0.922,0.287-1.271,0.545
			c-0.128-0.008-0.257-0.016-0.271,0.09c-0.519,0.119-1.053,0.221-1.453,0.455c-1.667,0.418-3.231,0.941-5.264,0.998
			c-0.786,0-1.572,0-2.359,0c-0.09,0-0.182,0-0.271,0c-0.65-0.168-1.463-0.172-2.178-0.273c0-0.029,0-0.061,0-0.09
			c-0.571,0.055-0.769-0.262-1.271-0.271c-1.422-0.605-2.825-1.23-4.355-1.725c-0.379-0.287-0.961-0.371-1.452-0.545
			c-0.19,0.037-0.24-0.063-0.362-0.092c-0.287-0.227-0.694-0.334-1.09-0.453c-0.031,0-0.061,0-0.091,0
			c-0.392-0.305-0.954-0.439-1.452-0.635c-3.148-1.506-6.55-2.152-8.894-4.357c-0.82-0.771-1.308-1.84-1.997-2.721
			c-0.697-0.895-1.609-1.576-2.086-2.633c-0.313-0.564-0.545-1.211-0.908-1.725c-0.322-0.584-0.52-1.295-0.816-1.906
			c-0.102-0.352-0.252-0.656-0.454-0.906c-0.329-0.701-0.597-1.461-0.907-2.18c-0.11-0.344-0.176-0.73-0.363-0.998
			c-0.18-0.908-0.448-1.729-0.453-2.813c-0.058-0.275,0.115-0.781-0.092-0.906c-0.274-0.936-0.191-2.229-0.363-3.268
			c0-0.182,0-0.363,0-0.545c-0.057-0.306,0.117-0.843-0.09-0.997c0-0.908,0-1.816,0-2.724c0.195-6.64,2.443-11.229,5.354-15.155
			c0.031,0,0.061,0,0.092,0c0.188-0.326,0.445-0.582,0.635-0.907c0.027-0.214,0.315-0.169,0.272-0.454
			c0.716-0.978,1.481-1.907,2.269-2.813c0.572-0.426,0.966-1.031,1.451-1.543c0.027-0.185,0.246-0.178,0.273-0.363
			c0.492-0.416,0.945-0.87,1.361-1.361c0.916-0.747,1.838-1.489,2.903-2.087c0.415-0.25,0.856-0.475,1.181-0.817
			c0.427-0.238,0.732-0.599,1.27-0.726c0.322-0.193,0.729-0.3,0.998-0.544c1.641-0.72,3.43-1.291,5.719-1.361
			c0.395-0.059,1.025,0.118,1.27-0.091c0.848,0,1.693,0,2.541,0c0.817,0.211,2.027,0.03,2.995,0.091c0.091,0,0.182,0,0.272,0
			c0.424,0,0.847,0,1.271,0C35.674,4.852,36.242,4.677,36.578,4.734z M28.41,5.007c-0.339-0.008-0.258-0.102-0.545,0
			c-0.275,0.057-0.781-0.116-0.906,0.09c-0.246,0.056-0.721-0.115-0.817,0.091c-1.86,0.227-3.378,0.798-4.9,1.361
			c-0.286,0.198-0.722,0.247-0.907,0.544c-0.475,0.253-0.847,0.606-1.361,0.817c-0.354,0.221-0.764,0.385-0.999,0.726
			c-0.987,0.646-1.923,1.344-2.813,2.087c-0.375,0.169-0.646,0.442-0.816,0.816c-0.34,0.265-0.643,0.567-0.908,0.908
			c-0.008,0.144-0.23,0.071-0.181,0.272c-0.481,0.335-0.795,0.839-1.18,1.271c-0.256,0.5-0.704,0.809-0.999,1.271
			c-0.797,0.836-1.487,1.779-2.086,2.813c-0.403,0.324-0.626,0.828-0.908,1.271c-2.145,3.24-3.823,6.945-4.174,11.979
			c-0.209,0.156-0.034,0.693-0.092,0.998c0,0.272,0,0.545,0,0.816c-0.15,0.576-0.15,1.785,0,2.361c0,0.181,0,0.362,0,0.543
			c0.058,0.307-0.117,0.843,0.092,0.999c0.301,3.994,0.814,7.775,2.359,10.525c0.1,0.354,0.25,0.658,0.453,0.908
			c0.005,0.117,0.117,0.125,0.091,0.273c0.168,0.496,0.343,0.988,0.636,1.361c0.047,0.133,0.134,0.229,0.181,0.363
			c0.058,0.336,0.255,0.529,0.363,0.816c2.095,2.412,3.505,5.51,6.534,6.988c0.287,0.318,0.742,0.467,1.18,0.635
			c2.663,1.088,5.383,2.119,7.986,3.266c0.255,0.109,0.521,0.205,0.816,0.273c2.912,0.689,4.865,2.334,8.168,2.633
			c0.215,0.209,0.814,0.031,1.18,0.09c0.061,0,0.121,0,0.182,0c0.332,0,0.666,0,0.998,0c0.306-0.059,0.843,0.117,0.999-0.09
			c0.217-0.057,0.657,0.113,0.725-0.092c0.399,0.006,0.751-0.037,0.999-0.182c2.477-0.549,4.865-1.186,6.897-2.178
			c0.354-0.131,0.751-0.217,0.998-0.455c0.19-0.201,0.665-0.119,0.817-0.361c0.124,0.004,0.198-0.043,0.272-0.092
			c0.474-0.16,0.896-0.373,1.27-0.635c0.173-0.039,0.164-0.26,0.454-0.182c0.345-0.229,0.843-0.305,1.088-0.635
			c1.888-0.836,3.98-1.467,5.083-3.086c0.886-0.93,1.739-1.891,2.541-2.904c0.137-0.258,0.399-0.387,0.454-0.725
			c3.091-4.383,5.237-9.707,5.717-16.699c0.151-0.156,0.151-0.933,0-1.089c-0.524-5.586-1.053-11.168-2.813-15.519
			c-0.137-0.378-0.259-0.771-0.545-0.999c-0.356-0.49-0.498-1.195-0.907-1.633c0-0.03,0-0.061,0-0.09
			c-0.169-0.438-0.316-0.895-0.636-1.18c0.004-0.125-0.043-0.2-0.091-0.272c-0.219-0.478-0.66-0.731-0.816-1.271
			c-1.122-1.329-2.153-2.747-3.631-3.721c-0.03,0-0.06,0-0.09,0c-0.063-0.18-0.242-0.242-0.454-0.272
			c-0.347-0.35-0.865-0.527-1.361-0.726c-0.175-0.128-0.366-0.24-0.636-0.272c-0.271-0.244-0.677-0.351-0.999-0.544
			c-0.172-0.039-0.228-0.195-0.453-0.182c-0.186-0.297-0.621-0.347-0.907-0.544c-0.624-0.253-1.09-0.665-1.814-0.817
			c-2.943-1.413-6.478-2.234-10.527-2.541c-0.155-0.208-0.692-0.033-0.999-0.091c-0.816-0.211-2.025-0.03-2.994-0.09
			c-0.363,0-0.727,0-1.09,0C30.738,4.855,29.258,4.855,28.41,5.007z"/>
		<path fill-rule="evenodd" clip-rule="evenodd" fill="#E9CF6C" d="M35.67,5.097c0.307,0.058,0.844-0.117,0.999,0.091
			c-0.546-0.059-1.33,0.12-1.725-0.091C35.187,5.097,35.428,5.097,35.67,5.097z"/>
		<path fill-rule="evenodd" clip-rule="evenodd" fill="#E9CF6C" d="M63.803,35.59c0.138,0.381,0.206,1.474-0.091,1.725
			C63.733,36.729,63.858,36.25,63.803,35.59z"/>
		<path fill-rule="evenodd" clip-rule="evenodd" fill="#E9CF6C" d="M34.764,66.536c0.484-0.211,1.359-0.031,1.995-0.092
			c-0.214,0.209-0.813,0.033-1.179,0.092C35.308,66.536,35.035,66.536,34.764,66.536z"/>
		<path fill-rule="evenodd" clip-rule="evenodd" fill="#E9CF6C" d="M27.865,5.097c0-0.03,0-0.06,0-0.09
			c0.287-0.102,0.206-0.008,0.545,0c0.272,0,0.545,0,0.817,0C28.953,5.216,28.291,5.039,27.865,5.097z"/>
		<path fill-rule="evenodd" clip-rule="evenodd" fill="#E9CF6C" d="M26.142,5.188c0.097-0.206,0.571-0.035,0.817-0.091
			c0.211,0,0.424,0,0.635,0C27.289,5.307,26.598,5.129,26.142,5.188z"/>
		<path fill-rule="evenodd" clip-rule="evenodd" fill="#BE9954" d="M29.228,3.01c0.12,0,0.241,0,0.362,0
			c0.546-0.06,1.33,0.119,1.725-0.091c0.105,0.076,0.243,0.12,0.453,0.091c0.637,0.211,1.664,0.031,2.451,0.091
			c0.15,0,0.302,0,0.453,0c0.394,0,0.787,0,1.181,0c0.968,0,1.936,0,2.903,0c0.126,0.207,0.632,0.034,0.907,0.091
			c2.886,0.17,5.45,0.66,7.806,1.361c0,0.03,0,0.06,0,0.091c1.449,0.364,2.622,1.008,3.901,1.542
			c0.561,0.105,0.811,0.521,1.361,0.635c0.246,0.33,0.744,0.406,1.09,0.636c0.03,0,0.06,0,0.09,0
			c0.228,0.287,0.621,0.408,0.998,0.544c0.821,0.541,1.87,0.852,2.633,1.452c0.313,0.383,0.733,0.658,1.089,0.998
			c0,0.03,0,0.061,0,0.091c0.513,0.333,0.803,0.891,1.271,1.27c0.624,0.798,1.241,1.603,1.905,2.359
			c0.116,0.398,0.392,0.638,0.545,0.998c0.229,0.346,0.306,0.844,0.635,1.09c0.03,0.212,0.11,0.375,0.182,0.544
			c0.136,0.377,0.258,0.772,0.544,0.999c0.056,0.398,0.329,0.579,0.454,0.907c0.253,0.442,0.423,0.97,0.727,1.361
			c1.729,4.382,2.909,9.313,3.268,15.064c0,0.696,0,1.392,0,2.088c-0.545,4.719-1.587,8.939-3.268,12.523
			c-0.359,0.367-0.536,0.914-0.817,1.361c-0.697,1.076-1.036,1.982-1.724,2.994c-0.283,0.23-0.443,0.586-0.636,0.908
			c0,0.029,0,0.061,0,0.09c-0.189,0.113-0.34,0.264-0.453,0.453c-0.563,0.588-1.069,1.23-1.634,1.816c0,0.029,0,0.061,0,0.09
			c0,0.031,0,0.063,0,0.092c-0.42,0.275-0.659,0.732-0.998,1.088c-0.431,0.355-0.825,0.748-1.18,1.18
			c-1.09,1.027-2.703,1.533-4.175,2.178c-0.346,0.23-0.844,0.307-1.089,0.637c-0.03,0-0.061,0-0.091,0
			c-0.286,0.197-0.722,0.246-0.908,0.545c-0.951,0.348-1.767,0.834-2.632,1.27c-0.413,0.131-0.776,0.313-1.088,0.545
			c-1.358,0.549-2.8,1.012-4.356,1.361c-0.458,0.057-0.917,0.111-1.271,0.273c-1.051,0.098-2.025,0.273-3.086,0.361
			c-0.516,0.059-1.269-0.119-1.634,0.092c-0.211,0-0.423,0-0.636,0c-0.877-0.213-2.146-0.031-3.176-0.092
			c-3.163,0.107-5.099-1.008-7.623-1.996c-2.982-1.168-5.845-2.344-8.621-3.539c-2.162-0.932-4.281-1.852-5.809-3.359
			c-0.793-0.781-1.388-1.959-2.178-2.994c-0.755-0.988-1.738-1.734-2.359-2.723c-0.732-1.162-1.316-2.557-1.996-3.902
			c-0.67-1.324-1.494-2.666-1.906-3.992c-0.416-1.342-0.516-2.969-0.726-4.537c-0.626-4.68-0.485-9.859,0.726-14.066
			c1.555-5.4,4.819-9.261,7.896-12.978c0.431-0.355,0.825-0.749,1.18-1.18c3.928-4.339,8.612-8.377,16.335-8.621
			C28.535,3.043,29.071,3.218,29.228,3.01z M28.773,3.555c-6.607-0.012-10.28,2.909-13.976,5.808
			c-0.618,0.351-1.036,0.899-1.452,1.452c-0.341,0.264-0.643,0.567-0.908,0.907c-0.025,0.185-0.245,0.178-0.271,0.363
			c-0.572,0.427-0.966,1.03-1.452,1.543c-2.839,3.469-6.072,7.448-7.532,12.978C1.27,33.844,2.033,43.663,5.359,48.657
			c0.252,0.656,0.555,1.262,0.908,1.816c1.083,2.605,3.274,4.105,4.627,6.441c0.543,0.639,1.143,1.219,1.816,1.725
			c3.859,2.361,8.218,4.105,12.613,5.719c2.526,0.926,4.785,2.285,8.168,2.178c0.486,0.15,1.602,0.15,2.088,0
			c0.365-0.059,0.965,0.117,1.179-0.092c4.252-0.438,7.656-1.721,10.71-3.357c0.345-0.229,0.843-0.307,1.088-0.635
			c0.279-0.023,0.408-0.197,0.636-0.273c1.599-1.094,3.894-1.49,5.264-2.813c0.461-0.205,0.737-0.594,0.998-0.998
			c0.393-0.244,0.608-0.662,0.908-0.998c0-0.031,0-0.061,0-0.092c0.45-0.365,0.776-0.857,1.18-1.27
			c0.357-0.49,0.855-0.838,1.089-1.451c1.159-1.564,2.052-3.395,3.085-5.082c0.14-0.346,0.365-0.604,0.454-1
			c1.455-3.354,2.331-7.287,2.813-11.615c0.152-0.275,0.152-1.177,0-1.452c-0.505-6.754-1.804-12.715-4.445-17.334
			c-0.224-0.381-0.362-0.848-0.636-1.179c-0.572-1.637-1.621-2.796-2.541-4.084c-0.7-0.933-1.486-1.781-2.359-2.541
			c-0.288-0.167-0.433-0.476-0.817-0.544c-0.487-0.541-1.373-0.684-1.996-1.089c-0.305-0.36-0.866-0.466-1.271-0.726
			c-3.827-2.163-8.097-3.882-13.703-4.266c-0.185-0.208-0.753-0.033-1.089-0.091C33.885,3.403,31.012,3.403,28.773,3.555z
			 M45.835,4.734C45.412,4.399,44.09,4.181,43.112,4.1c0.004-0.267-0.539,0.054-0.091,0C43.904,4.251,45.098,5.039,45.835,4.734z
			 M46.38,5.188c0.474,0.222,0.94,0.452,1.451,0.635c0.144-0.189,0.506-0.16,0.636-0.363C47.822,5.367,46.898,4.558,46.38,5.188z
			 M48.557,6.186c0.371,0.145,0.752,0.276,0.998,0.545c0.31-0.116,0.609-0.239,0.816-0.454C49.835,5.998,49.02,5.559,48.557,6.186z
			 M50.371,7.094c0.443,0.345,1.084,0.49,1.544,0.817c0.064-0.33,0.503-0.284,0.636-0.545C51.974,7.057,50.872,6.15,50.371,7.094z
			 M52.46,8.183c0.874,0.28,1.876,1.564,2.722,0.545C54.275,8.443,53.276,7.244,52.46,8.183z M55.001,9.544
			c0.357,0.289,0.853,1.272,1.271,1.271c0.341-0.002,0.548-0.66,0.907-0.907C56.512,9.414,55.747,8.786,55.001,9.544z
			 M57.723,10.361c-0.323,0.373-1.082,0.505-1.089,0.907c-0.005,0.31,1.284,1.091,1.271,1.361c0.229-0.438,0.391-0.94,0.907-1.089
			C58.576,11.021,58.11,10.73,57.723,10.361z M58.268,13.265c0.289,0.285,0.605,0.543,0.727,0.998
			c0.557-0.199,0.835-0.676,1.452-0.816c-0.211-0.577-0.676-0.898-0.999-1.362C58.48,11.905,58.621,12.832,58.268,13.265z
			 M59.447,14.717c0.046,0.378,0.318,0.529,0.364,0.907c0.943,0.067,1.28-0.473,1.813-0.817c-0.352-0.222-0.391-0.758-0.815-0.907
			C60.252,14.069,59.92,14.463,59.447,14.717z M61.988,15.443c-0.747,0.1-0.905,0.789-1.814,0.726
			c0.279,1.785,1.281,1.324,2.358,0.635C62.449,16.253,62.111,15.956,61.988,15.443z M61.081,18.074
			c0.2,0.617,0.616,1.018,0.816,1.634c0.588-0.288,1.279-0.476,1.814-0.816c-0.4-0.476-0.566-1.188-0.998-1.634
			C62.224,17.584,61.815,17.993,61.081,18.074z M63.895,19.527c-0.668,0.119-1.016,0.557-1.725,0.635
			c0.268,0.641,0.432,1.383,0.816,1.906c0.73-0.117,1.25-0.444,1.814-0.727C64.544,20.693,64.372,19.957,63.895,19.527z
			 M64.893,21.887c-0.461,0.416-1.188,0.566-1.815,0.816c0.23,0.557,0.413,1.16,0.545,1.815c0.601-0.247,1.197-0.497,2.087-0.454
			C65.512,23.264,65.391,22.387,64.893,21.887z M63.803,25.063c0.164,0.502,0.287,1.045,0.363,1.634
			c0.763-0.024,1.645,0.071,2.27-0.091c-0.229-0.679-0.262-1.555-0.636-2.087C65.114,24.681,64.381,24.792,63.803,25.063z
			 M66.617,27.24c-0.477-0.062-1.517,0.043-2.27,0c0.06,0.789,0.329,1.366,0.363,2.179c0.692-0.216,1.33-0.485,2.179-0.545
			C66.88,28.248,66.609,27.883,66.617,27.24z M64.801,30.145c0.221,0.295,0.098,0.932,0.364,1.18
			c0.583-0.016,1.653-0.033,2.087-0.181c-0.018-0.618-0.126-1.145-0.272-1.634C65.957,29.424,65.37,29.775,64.801,30.145z
			 M65.165,31.959c0.041,0.685,0.125,1.328,0.181,1.998c0.744,0.175,1.53-0.17,2.27-0.183c-0.088-0.697-0.126-1.446-0.272-2.087
			C66.736,31.897,65.83,31.809,65.165,31.959z M67.706,34.41c-0.8-0.029-1.451,0.178-2.27,0.182c0,0.635,0,1.271,0,1.905
			c0.758,0.371,1.598-0.22,2.27-0.091C67.706,35.741,67.706,35.076,67.706,34.41z M65.437,37.133
			c-0.111,0.584-0.181,1.21-0.271,1.813c0.945,0.146,1.212-0.041,2.269,0.092c0.05-0.738,0.255-1.318,0.272-2.087
			C66.796,37.003,66.251,37.308,65.437,37.133z M65.073,39.583c-0.063,0.475-0.254,1.227-0.181,1.543
			c0.805-0.02,1.601-0.027,2.178,0.182c0.047-0.549,0.263-1.344,0.182-1.725C66.543,39.61,65.498,39.542,65.073,39.583z
			 M64.348,43.394c0.739,0.078,1.397,0.236,2.088,0.363c0.257-0.529,0.333-1.24,0.544-1.814c-0.537-0.311-1.405-0.289-2.269-0.271
			C64.705,42.36,64.396,42.747,64.348,43.394z M63.803,45.3c0.671,0.207,1.438,0.316,2.088,0.545
			c0.09-0.547,0.317-0.953,0.363-1.543c-0.863-0.152-1.272-0.254-2.088-0.363C64.037,44.386,63.887,44.81,63.803,45.3z
			 M62.986,47.933c0.869-0.023,1.371,0.322,1.906,0.635c0.204-0.764,0.642-1.295,0.726-2.178c-0.536-0.311-1.389-0.305-1.996-0.545
			C63.523,46.653,63.066,47.104,62.986,47.933z M61.897,50.11c0.65,0.195,1.085,0.609,1.725,0.816
			c0.225-0.684,0.724-1.092,0.907-1.816c-0.342-0.475-1.13-0.504-1.725-0.725C62.46,48.917,62.191,49.526,61.897,50.11z
			 M60.899,51.833c0.529,0.289,1.008,0.627,1.633,0.818c0.259-0.379,0.504-0.768,0.727-1.18c-0.536-0.311-0.995-0.699-1.725-0.816
			C61.412,51.136,61.08,51.409,60.899,51.833z M59.72,53.831c0.646,0.223,1.002,0.377,1.633,0.727
			c0.353-0.406,0.607-0.906,0.907-1.361c-0.591-0.256-1.079-0.615-1.723-0.818C60.337,52.935,59.978,53.333,59.72,53.831z
			 M59.357,54.376c-0.186,0.449-0.598,0.674-0.727,1.178c0.631,0.066,1.096,0.297,1.543,0.545c0.194-0.381,0.577-0.57,0.726-0.998
			C60.605,54.64,59.954,54.534,59.357,54.376z M57.27,57.097c0.787-0.002,1.208-0.01,1.634,0.455c0.23-0.406,0.616-0.654,0.816-1.09
			c-0.486-0.209-1.103-0.289-1.543-0.545C57.896,56.333,57.441,56.573,57.27,57.097z M55.636,59.003
			c0.828,0.006,0.861,0.25,1.725,0.182c0.394-0.393,0.912-0.662,1.089-1.271c-0.484-0.492-1.309-0.107-1.725-0.271
			C56.385,58.118,56.006,58.556,55.636,59.003z M54.274,60.274c0.496-0.043,0.749,0.158,1.089,0.271
			c0.442-0.254,0.993-0.398,1.271-0.816c-0.353-0.107-1.052-0.152-1.542-0.363C54.971,59.821,54.422,59.847,54.274,60.274z
			 M51.733,61.544c0.351,0.014,0.42,0.307,0.817,0.273c0.533-0.465,1.456-0.541,1.996-0.998
			C53.25,60.583,52.54,61.071,51.733,61.544z M49.918,62.36c0.328,0.035,0.458,0.268,0.636,0.455
			c0.474-0.133,0.805-0.406,1.18-0.637C51.13,61.743,50.355,61.819,49.918,62.36z M48.194,63.36
			c0.403-0.041,0.479,0.246,0.726,0.361c0.313-0.232,0.676-0.412,1.089-0.543C49.642,62.304,48.62,62.843,48.194,63.36z
			 M45.472,64.54c-0.015,0.256,0.273,0.211,0.272,0.453c1.038-0.174,1.834-0.586,2.54-1.088
			C47.215,63.241,46.416,64.278,45.472,64.54z M41.751,66.083c1.213-0.24,2.539-0.365,3.448-0.908
			C44.225,64.657,42.888,65.88,41.751,66.083z"/>
	</g>
	<g>
		<g>
			<path fill="#C7A45A" d="M26.262,55.447l-1.071,2.061c-0.384,0.74-1.158,0.808-2.32,0.204l-0.577,1.109l-1.585-0.823l2.636-5.073
				l2.537,1.317L26.262,55.447z M23.89,53.812l-1.565,3.013l0.159,0.083l0.875,0.253l1.318-2.537l-0.152-0.481L23.89,53.812z"/>
			<path fill="#C7A45A" d="M27.856,55.076l0.5,0.132l2.471,0.833l-0.088,0.334L30.262,57.5l-1.88-1.03l-0.334-0.089l-0.423,0.247
				l-0.088,0.334l2.283,2.216l0.07,1.092c-0.206,0.783-1.649,0.82-4.33,0.113l0.088-0.335l0.479-1.129l1.629,0.611
				c0.578,0.152,0.958,0.072,1.137-0.239c-1.699-1.257-2.427-2.344-2.184-3.263C26.85,55.493,27.232,55.176,27.856,55.076z"/>
			<path fill="#C7A45A" d="M35.063,56.692l-0.047,1.422c-0.081,0.353-0.501,0.516-1.26,0.49l-0.012,0.357
				c1.066,0.035,1.58,0.645,1.541,1.827l-0.018,0.536c-0.008,0.235-0.19,0.348-0.547,0.336l-3.38,0.066l0.188-5.685l2.489,0.083
				C34.724,56.224,35.073,56.413,35.063,56.692z M31.948,59.435l-0.029,0.89l0.345,0.365l1.421,0.047l0.895-0.146l0.018-0.535
				c-0.107-0.359-0.458-0.548-1.05-0.567L31.948,59.435z M32.4,56.604l-0.053,1.6l1.064,0.035l0.012-0.356l0.179,0.006l-0.173-0.181
				l0.036-1.068L32.4,56.604z"/>
			<path fill="#C7A45A" d="M38.376,55.721l0.361-0.071c0.96-0.188,1.628,0.678,2.006,2.599l0.283,1.439
				c0.165,0.84-0.474,1.401-1.915,1.685l-0.898,0.177c-0.84,0.165-1.366-0.293-1.578-1.374l-0.177-0.898
				c-0.378-1.921-0.327-2.929,0.152-3.022L38.376,55.721z M37.574,59.243l0.247,1.26l0.43,0.292l1.26-0.248l0.005-0.938
				c-0.354-1.799-0.831-2.64-1.433-2.521l-0.179,0.035C37.425,57.217,37.314,57.924,37.574,59.243z"/>
			<path fill="#C7A45A" d="M44.09,54.255l0.586,1.296c0.083,0.352-0.221,0.685-0.912,0.997l0.147,0.326
				c0.972-0.44,1.702-0.121,2.19,0.957l0.221,0.488c0.098,0.215-0.017,0.396-0.342,0.543l-3.002,1.556l-2.347-5.181L42.9,54.21
				C43.577,53.984,43.974,54,44.09,54.255z M41.662,55.354l0.66,1.458l0.97-0.438l-0.147-0.326l0.163-0.073l-0.235-0.086
				l-0.44-0.973L41.662,55.354z M42.51,58.093l0.367,0.811l0.471,0.175l1.296-0.587l0.738-0.526l-0.222-0.488
				c-0.255-0.274-0.652-0.289-1.192-0.044L42.51,58.093z"/>
		</g>
	</g>
	<g>
		<polygon fill="#FFFFFF" points="29.372,19.23 28.078,19.857 26.716,21.182 26.549,22.827 26.549,24.058 28.303,25.063 
			32.297,26.79 34.511,26.063 35.408,25.608 36.553,26.79 37.469,27.625 38.761,28.41 40.844,28.813 42.719,28.813 44.535,28.727 
			46.303,27.625 47.761,26.438 48.576,24.631 48.576,23.187 48.386,21.342 47.844,21.182 43.844,20.855 39.511,20.73 35.178,20.188 
			30.361,19.23 		"/>
		<polygon fill-rule="evenodd" clip-rule="evenodd" fill="#E7B2A2" points="26.032,27.73 19.574,30.167 15.616,31.709 
			10.741,33.459 8.387,35.584 8.574,37.479 11.345,39.313 15.157,40.167 17.949,40.375 18.762,43.063 20.74,46.416 24.845,49.666 
			27.074,50.688 29.053,51.313 31.381,51.813 32.949,52.229 35.115,52.541 36.887,52.625 39.99,52.208 42.512,51.313 45.053,49.875 
			47.178,48.146 48.679,45.771 49.157,42.875 49.157,40.178 49.303,39.688 51.24,39.146 49.928,36.25 47.615,33.583 44.012,31.229 
			40.116,29.271 37.782,28.41 35.595,28.125 27.032,27.625 		"/>
		<path fill-rule="evenodd" clip-rule="evenodd" fill="#8A6328" d="M46.931,16.157c0.081,0.606-1.128,0.404-1.725,0.454
			c-2.266,0.188-5.748-0.323-7.352-1.18c0.089-0.003,0.07-0.111,0.091-0.182c0.073-0.018,0.09-0.091,0.182-0.091
			c1.992,0.613,4.851,1.172,7.441,0.998C45.988,16.129,46.626,15.827,46.931,16.157z"/>
		<path fill-rule="evenodd" clip-rule="evenodd" fill="#8A6328" d="M37.219,16.883c1.643,0.438,4.074,0.988,6.263,0.998
			c1.314,0.004,2.504-0.439,3.631-0.273c-0.396,0.604-1.71,0.668-2.633,0.727c-2.525,0.16-5.525-0.451-7.441-0.998
			C37.077,17.165,37.233,17.109,37.219,16.883z"/>
		<path fill-rule="evenodd" clip-rule="evenodd" fill="#6C5EA9" d="M30.322,20.512c1.371-0.211,2.739,0.113,2.813,1.361
			c0.139,2.338-4.986,2.822-5.082,0.545C28.007,21.307,28.978,20.719,30.322,20.512z"/>
		<path fill-rule="evenodd" clip-rule="evenodd" fill="#6C5EA9" d="M39.942,21.42c2.009-0.369,2.918,0.615,2.994,1.814
			c0.2,3.166-5.645,3.223-4.991-0.182C38.093,22.29,38.832,21.624,39.942,21.42z"/>
		<path fill-rule="evenodd" clip-rule="evenodd" fill="#8A6328" d="M52.193,28.772c0.073,0.943-1.482,0.998-1.996,0.545
			C50.026,28.622,51.698,27.987,52.193,28.772z"/>
		<path fill-rule="evenodd" clip-rule="evenodd" fill="#8A6328" d="M47.838,29.678c0.748-0.229,1.341-0.031,1.361,0.545
			C49.255,31.844,45.677,30.34,47.838,29.678z"/>
		<path fill-rule="evenodd" clip-rule="evenodd" fill="#8A6328" d="M52.466,31.766c-0.008,0.869-1.718,0.965-1.997,0.271
			C50.496,31.268,52.149,31.176,52.466,31.766z"/>
		<path fill-rule="evenodd" clip-rule="evenodd" fill="#8A6328" d="M39.307,28.68c2.459,1.072,5.127,2.277,7.352,3.902
			c2.131,1.557,4.328,3.505,4.81,6.625c-0.419,0.52-1.221,0.656-1.996,0.816c0.043,2.691-0.086,5.574-1.452,7.443
			c-1.785,2.436-6.233,5.068-10.165,5.354c-1.914,0.139-4.037-0.188-5.989-0.637c-1.891-0.434-3.797-0.771-5.263-1.359
			c-4.824-1.939-7.732-5.367-8.895-10.256c-3.521-0.129-7.197-0.602-8.984-2.449c-0.915-0.947-1.142-2.57-0.091-3.63
			c0.885-0.893,2.609-1.443,4.084-1.996c1.509-0.568,2.976-1.15,4.446-1.635c3.398-1.117,6.148-2.59,8.804-3.266
			c-1.955-0.879-4.847-1.992-6.625-3.449c-0.921-0.754-2.112-2.055-1.361-3.721c3.711-0.549,5.489,2.363,8.167,3.449
			c0.002-1.898,0.686-3.836,2.451-4.266c-1.313-0.807-3.438-0.799-4.084-2.27c0.682-0.1,1.328,0.32,1.996,0.545
			c6.292,2.119,14.807,3.178,23.323,2.631c1.509-0.096,2.765-0.25,4.084-0.545c0.25-0.055,0.7-0.414,0.907,0
			c-0.234,0.654-1.138,0.596-1.815,0.727c-1.22,0.236-2.641,0.416-4.174,0.453c0.286,1.104,0.838,2.826,0.363,4.084
			c-0.891,2.367-5.955,4.98-9.802,3.449C39.367,28.68,39.337,28.68,39.307,28.68z M26.783,23.78c1.63,0.598,3.659,2.586,5.718,2.541
			c2.353-0.051,3.422-2.535,3.812-4.992C33.677,19.809,25.972,18.057,26.783,23.78z M19.704,23.69
			c2.039,1.723,5.455,3.225,8.439,3.811c2.805,0.551,6.979,0.336,9.529,0.635c-0.967-0.484-1.441-1.461-2.449-1.904
			c-1.51,1.393-3.788,0.738-5.718,0c-2.318-0.887-4.08-2.076-5.989-3.268c-1.629-1.016-2.814-2.184-5.082-2.178
			C18.07,22.149,18.962,23.061,19.704,23.69z M36.313,23.69c-1.333,4.297,4.66,5.545,7.985,4.537
			c1.622-0.492,3.649-2.158,3.993-3.721c0.134-0.607,0.111-2.455-0.362-2.904c-0.552-0.523-2.879-0.406-4.084-0.455
			c-1.702-0.064-4.105-0.145-4.811,0C37.813,21.401,36.461,23.209,36.313,23.69z M41.394,30.223
			c-1.396-0.619-2.953-1.52-4.446-1.725c-1.388-0.189-3.104-0.021-4.72-0.09c-1.961-0.084-3.779-0.635-5.535-0.455
			c-2.787,0.289-5.504,2.17-8.35,3.178c-3.191,1.129-6.135,1.689-8.439,3.176c-2.716,1.751-0.809,3.908,1.452,4.81
			c3.473,1.387,8.694,1.215,12.524,0.635c0.727-0.109,1.592-0.563,2.087-0.09c-1.687,1.102-5.294,0.746-7.532,0.998
			c0.979,5.223,4.573,8.393,9.438,9.98c3.082,1.01,6.628,1.982,9.801,1.727c4.343-0.352,9.268-3.227,10.71-6.443
			c0.788-1.762,0.27-4.813,0.816-6.807c0.463,0.477,1.156,0.332,1.724,0C49.731,34.508,45.529,32.057,41.394,30.223z"/>
		<path fill-rule="evenodd" clip-rule="evenodd" fill="#FFFFFF" d="M17.436,32.674c0,0,0.055-0.162,4.481-0.98l-2.761,5.119
			L17.948,35.5L17.436,32.674z"/>
		<path fill-rule="evenodd" clip-rule="evenodd" fill="#FFFFFF" d="M32.409,31.221c0,0,0.919-0.006,3.739,0.376l-3.739,3.653
			l-0.295-0.163L32.409,31.221z"/>
		<path fill-rule="evenodd" clip-rule="evenodd" fill="#650F14" d="M12.173,35.85c1.033-1.779,3.065-2.561,5.263-3.176
			c0.369,1.385,0.722,2.787,1.543,3.72c0.635-1.578,0.36-3.541,1.724-4.357c0.72-0.43,2.367-0.436,3.631-0.545
			c2.48-0.213,5.391-0.566,8.076-0.271c-0.031,1.193-0.224,2.66,0,3.813c0.855-1.111,1.073-3.275,2.541-3.541
			c0.834-0.148,2.268,0.445,3.358,0.727c3.1,0.799,6.417,2.203,8.439,3.721c0.141,0.049,0.007,0.095-0.09,0.091
			c-3.993-0.74-8.748-1.789-12.888-0.636c-1.166,0.326-2.215,0.878-3.448,1.089c-1.266,0.219-2.536,0.346-3.901,0.545
			C21.28,37.777,15.604,38.801,12.173,35.85z"/>
		<path fill-rule="evenodd" clip-rule="evenodd" fill="#252259" d="M30.129,20.459c0.493,0,0.986,0,1.48,0
			c0.028,0.125,0.231,0.076,0.37,0.093c0.59,0.365,1.266,0.646,1.109,1.758c-0.108,0.015-0.077,0.169-0.092,0.277
			c-0.473,0.7-1.31,1.034-2.221,1.296c-0.667,0.05-1.116-0.118-1.665-0.186c-0.432-0.247-0.771-0.586-1.019-1.018
			c-0.065-0.497,0.105-0.758,0.186-1.11c0.313-0.304,0.688-0.546,1.018-0.833C29.634,20.705,29.873,20.574,30.129,20.459z
			 M28.926,22.495c0.263,1.414,3.408,0.58,3.238-0.74c-0.114-0.886-1.317-0.825-2.128-0.555
			C29.186,21.484,28.796,21.797,28.926,22.495z"/>
		<path fill-rule="evenodd" clip-rule="evenodd" fill="#252259" d="M31.331,21.57c0.223,1.047-1.584,1.212-1.942,0.556
			C29.184,21.096,30.968,20.908,31.331,21.57z"/>
		<path fill-rule="evenodd" clip-rule="evenodd" fill="#252259" d="M39.451,21.487c0.161,0.008,0.288-0.021,0.37-0.092
			c1.697-0.186,2.557,0.466,3.054,1.48c0,0.03,0,0.061,0,0.092c0.146,1.38-0.58,1.889-1.296,2.406
			c-0.883,0.314-1.872,0.284-2.683-0.094c-0.6-0.479-1.081-1.078-0.926-2.313c0.108-0.016,0.101-0.146,0.093-0.277
			C38.46,22.223,38.877,21.776,39.451,21.487z M38.526,23.06c-0.278,2.089,2.91,2.345,3.516,0.833
			c0.593-1.48-0.625-2.385-2.035-2.129C39.107,21.928,38.622,22.34,38.526,23.06z"/>
		<path fill-rule="evenodd" clip-rule="evenodd" fill="#252259" d="M41.116,22.597c0.563,1.463-1.873,1.984-2.035,0.833
			C38.963,22.586,40.334,21.915,41.116,22.597z"/>
		<path fill-rule="evenodd" clip-rule="evenodd" fill="#0C0F10" d="M26.094,18.561c-0.671-0.377-1.589-0.508-1.758-1.388
			c2.674,1.149,5.729,1.92,9.066,2.405c0.031,0,0.063,0,0.093,0c0.942,0.26,2.008,0.398,3.146,0.463
			c0.199,0.172,0.678,0.063,1.019,0.092c0.504,0.145,1.121,0.174,1.758,0.186c0.394,0.007,0.646,0.154,1.11,0.093
			c0.153,0,0.308,0,0.462,0c0.129,0.211,0.645,0.034,0.926,0.093c0.216,0,0.432,0,0.647,0c0.279,0.213,0.954,0.032,1.388,0.092
			c0.339,0,0.679,0,1.018,0c1.08,0.154,2.806,0.154,3.886,0c0.271,0.117,0.554-0.061,1.018,0c0.312-0.059,0.859,0.119,1.019-0.092
			c0.28-0.059,0.797,0.118,0.925-0.093c0.883-0.012,1.639-0.15,2.313-0.37c0.413,0.012,0.574-0.229,0.926-0.277
			c0.079,0.074,0.055,0.253,0.185,0.277c-0.889,0.684-2.456,0.689-3.793,0.926c-0.565-0.072-0.866,0.121-1.388,0.092
			c-0.58-0.056-0.979,0.07-1.48,0.093c2.254,4.196-1.815,7.558-5.459,8.05c-0.03,0-0.062,0-0.092,0c-0.433,0-0.864,0-1.296,0
			c-0.624-0.117-1.31-0.172-1.942-0.278c-0.846-0.265-1.796-0.425-2.406-0.925c-0.03,0-0.062,0-0.092,0
			c-0.677-0.773-1.552-1.348-1.573-2.775c-2.137,3.033-6.214,1.008-8.512-0.371c-0.456-0.273-1.092-0.596-1.11-1.018
			c-0.062-0.555,0.084-0.902,0.093-1.388c0.049-0.413,0.217-0.708,0.277-1.11c0.03,0,0.062,0,0.093,0
			c0.003-0.85,2.022-1.537,1.942-1.942c-0.002-0.013-0.169,0.009-0.185,0c-0.39-0.135-0.735-0.313-1.203-0.37
			C26.859,18.782,26.454,18.694,26.094,18.561z M27.019,24.02c0.428,0.344,0.922,0.62,1.48,0.832
			c0.353,0.357,0.882,0.537,1.388,0.74c0.343,0.213,0.755,0.356,1.203,0.463c0.078,0.137,0.232,0.199,0.463,0.186
			c0.406,0.242,1.259,0.242,1.665,0c0.472-0.084,0.842-0.269,1.11-0.556c0.435-0.151,0.668-0.503,0.833-0.925
			c0.523-0.679,0.781-1.624,1.109-2.498c0.205-0.393,0.166-1.336-0.37-1.295c-1.401-0.635-3.12-0.951-4.996-1.111
			c-0.372-0.153-1.385-0.153-1.758,0c-1.304,0.115-1.889,0.948-2.313,1.943c-0.265,0.014-0.169,0.386-0.186,0.647
			c-0.153,0.22-0.153,1.075,0,1.296C26.729,23.877,26.787,24.036,27.019,24.02z M36.919,21.892c0.524-0.277,0.955-0.647,1.295-1.11
			c-0.611,0.057-0.948-0.162-1.573-0.093C36.774,21.049,36.999,21.317,36.919,21.892z M38.861,21.152
			c-0.231-0.016-0.289,0.142-0.37,0.277c-0.271,0.007-0.344,0.212-0.463,0.37c-0.431,0.248-0.81,0.547-1.018,1.018
			c-0.942,0.632-1.051,2.809-0.277,3.701c0.146,0.501,0.486,0.809,0.926,1.018c0.75,0.668,1.934,0.903,3.237,1.018
			c0.557,0.154,1.757,0.154,2.313,0c1.522-0.05,2.506-0.64,3.331-1.388c0.547-0.316,0.979-0.748,1.295-1.296
			c0.349-0.236,0.541-0.631,0.647-1.109c0.138-0.018,0.085-0.224,0.093-0.37c0.153-0.19,0.153-1.013,0-1.203
			c-0.058-0.251,0.117-0.733-0.093-0.833c-0.052-0.75-0.519-1.084-1.388-1.018c-0.219-0.213-0.83-0.033-1.203-0.092
			c-0.062,0-0.123,0-0.185,0c-0.525-0.215-1.448-0.032-2.128-0.093c-0.53,0.042-0.702-0.132-1.11,0
			C41.482,20.998,39.849,20.998,38.861,21.152z"/>
	</g>
</g>
</svg>
