<?xml version="1.0"?>
<svg width="1000" height="270" xmlns="http://www.w3.org/2000/svg" xmlns:svg="http://www.w3.org/2000/svg">
 <g class="layer">
  <title>Layer 1</title>
  <g id="svg_110">
   <g id="svg_1">
    <path d="m13.4,245.38c3.14,-7.38 26.83,-62.68 42.59,-88.97l-8.28,5.38l9.62,-20.82l26.6,-61.03c4.86,-11.14 15.87,-18.33 28.04,-18.33c5.48,0 10.75,1.44 15.37,4.16l10.43,-14.9c19.24,-27.45 50.74,-43.84 84.25,-43.84c2.79,0 5.62,0.12 8.41,0.35l20.24,1.65l5.91,0l0.48,6.16l1.66,20.5c2.47,30.15 -8.39,59.72 -29.76,81.12l-0.04,0.04c-4.24,4.24 -8.85,8.1 -13.7,11.51l-14.92,10.45c3.68,6.28 5.03,13.77 3.65,21.1c-1.88,9.93 -8.53,18.27 -17.8,22.3l-81.35,35.46l5.46,-8.4c-2.5,1.24 -5.33,2.47 -8.5,3.72l-28.56,13.53c-23.64,12.14 -50.19,27.12 -50.45,27.27l-17.02,9.6l7.65,-17.98l0,-0.01z" fill="#dabc64" id="svg_2"/>
    <g id="svg_3">
     <path d="m96.28,92.16s0.07,-0.07 0.11,-0.11c-0.04,0.04 -0.07,0.07 -0.11,0.11z" fill="none" id="svg_4"/>
     <path d="m81.24,111.2c0.11,-0.17 0.23,-0.34 0.34,-0.51c-0.06,0.1 -0.12,0.18 -0.18,0.28c-0.05,0.07 -0.1,0.16 -0.14,0.23l-0.01,0z" fill="none" id="svg_5"/>
     <path d="m109.37,81.26s-0.11,0.07 -0.17,0.11c0.06,-0.04 0.11,-0.07 0.17,-0.11z" fill="none" id="svg_6"/>
     <path d="m117.05,77.3c-0.14,0.06 -0.29,0.12 -0.43,0.18c0.14,-0.06 0.29,-0.12 0.43,-0.18z" fill="none" id="svg_7"/>
     <path d="m116.76,149.39s0.04,0.04 0.05,0.05c0,0 0,0 0,0l2.59,-2.59l-0.05,-0.05l-2.59,2.59z" fill="none" id="svg_8"/>
     <path d="m124.09,75.38c1.99,-0.26 3.41,-0.2 4.14,-0.13l0,0c-0.73,-0.08 -2.15,-0.13 -4.13,0.13l-0.01,0z" fill="none" id="svg_9"/>
     <path d="m88.01,101.73s-0.01,0.02 -0.02,0.04c0,0 0.01,-0.02 0.02,-0.04z" fill="none" id="svg_10"/>
     <path d="m105.92,83.63s-0.1,0.06 -0.13,0.1c0.05,-0.04 0.1,-0.06 0.13,-0.1z" fill="none" id="svg_11"/>
     <path d="m114.16,78.57c-0.12,0.06 -0.25,0.12 -0.37,0.19c0.13,-0.06 0.25,-0.12 0.37,-0.19z" fill="none" id="svg_12"/>
     <path d="m90.26,98.92c-0.06,0.07 -0.12,0.14 -0.18,0.22c0.06,-0.07 0.12,-0.14 0.18,-0.22z" fill="none" id="svg_13"/>
     <path d="m85.97,104.42c-0.08,0.11 -0.16,0.22 -0.24,0.31c0.08,-0.11 0.16,-0.22 0.24,-0.31z" fill="none" id="svg_14"/>
     <path d="m112.62,79.36c-0.07,0.04 -0.13,0.07 -0.2,0.11c0.07,-0.04 0.13,-0.07 0.2,-0.11z" fill="none" id="svg_15"/>
     <path d="m77.32,117.36c-0.23,0.39 -0.47,0.77 -0.7,1.16c0.23,-0.39 0.47,-0.77 0.7,-1.16z" fill="none" id="svg_16"/>
     <path d="m79.24,114.28c-0.06,0.1 -0.13,0.2 -0.19,0.3c0.06,-0.1 0.13,-0.2 0.19,-0.3z" fill="none" id="svg_17"/>
     <path d="m98.42,90.02s-0.08,0.08 -0.13,0.12c0.05,-0.05 0.08,-0.08 0.13,-0.12z" fill="none" id="svg_18"/>
     <path d="m83.63,107.69s-0.01,0.01 -0.02,0.02c0,0 0.01,-0.01 0.02,-0.02z" fill="none" id="svg_19"/>
     <path d="m115.66,77.87c-0.08,0.04 -0.17,0.07 -0.26,0.11c0.08,-0.04 0.18,-0.07 0.26,-0.11z" fill="none" id="svg_20"/>
     <path d="m92.27,96.54s-0.04,0.05 -0.06,0.06c0.02,-0.02 0.04,-0.05 0.06,-0.06z" fill="none" id="svg_21"/>
     <path d="m102.26,86.54s-0.08,0.07 -0.13,0.11c0.05,-0.04 0.08,-0.07 0.13,-0.11z" fill="none" id="svg_22"/>
     <path d="m122.02,75.76c-0.18,0.04 -0.36,0.08 -0.55,0.12c0.18,-0.05 0.37,-0.08 0.55,-0.12z" fill="none" id="svg_23"/>
     <path d="m121.04,76c-0.25,0.06 -0.52,0.13 -0.78,0.2c0.26,-0.07 0.53,-0.14 0.78,-0.2z" fill="none" id="svg_24"/>
     <path d="m245.43,16.64c-0.06,0.01 -0.12,0.02 -0.19,0.04c0.06,-0.01 0.13,-0.02 0.19,-0.04z" fill="none" id="svg_25"/>
     <path d="m244.19,16.9c-0.26,0.06 -0.53,0.11 -0.81,0.17c0.28,-0.06 0.54,-0.12 0.81,-0.17z" fill="none" id="svg_26"/>
     <path d="m124.09,75.4c-0.2,0.02 -0.41,0.06 -0.61,0.1c0.22,-0.04 0.42,-0.06 0.61,-0.1z" fill="none" id="svg_27"/>
     <path d="m107.68,82.38c-0.08,0.06 -0.18,0.12 -0.26,0.18c0.08,-0.06 0.18,-0.12 0.26,-0.18z" fill="none" id="svg_28"/>
     <path d="m94.41,94.13s-0.1,0.11 -0.14,0.16c0.05,-0.06 0.1,-0.11 0.14,-0.16z" fill="none" id="svg_29"/>
     <path d="m111.04,80.25c-0.11,0.06 -0.22,0.13 -0.32,0.19c0.11,-0.06 0.22,-0.13 0.32,-0.19z" fill="none" id="svg_30"/>
     <path d="m104.1,85.02c-0.07,0.06 -0.14,0.11 -0.22,0.17c0.07,-0.06 0.14,-0.11 0.22,-0.17z" fill="none" id="svg_31"/>
     <path d="m241.16,17.58c0.55,-0.13 1.07,-0.24 1.59,-0.36c-0.29,0.06 -0.55,0.12 -0.84,0.19c-0.24,0.06 -0.49,0.11 -0.73,0.17l-0.01,0z" fill="none" id="svg_32"/>
     <path d="m123.44,75.49c-0.36,0.06 -0.73,0.13 -1.13,0.22c0.4,-0.08 0.77,-0.16 1.13,-0.22z" fill="none" id="svg_33"/>
     <path d="m100.34,88.24s-0.11,0.1 -0.16,0.14c0.05,-0.05 0.11,-0.1 0.16,-0.14z" fill="none" id="svg_34"/>
     <path d="m119.68,76.38c-0.16,0.05 -0.32,0.1 -0.48,0.16c0.16,-0.05 0.32,-0.11 0.48,-0.16z" fill="none" id="svg_35"/>
     <path d="m118.46,76.78c-0.17,0.06 -0.34,0.12 -0.51,0.18c0.17,-0.06 0.34,-0.12 0.51,-0.18z" fill="none" id="svg_36"/>
     <path d="m114.09,152.16s-0.07,0 -0.1,0l-21.11,21.11l14.23,-21.04c-8.45,0.84 -18.99,4.62 -29.8,15.43c0,0 8.36,-12.53 17.1,-20.24c0,0 -25.88,10.8 -29.81,39.42c0,0 0,0 0,-0.04c-0.16,-0.46 -2.61,-8.05 -0.79,-16.58l-37.97,71.45l73.36,-34.73l0.04,0c7.75,-3.04 14.21,-6.35 17.62,-9.76c11.64,-11.64 12.97,-29.63 4.08,-42.77l-27.96,18.91l21.16,-21.16l-0.04,0.01z" fill="#0b182f" id="svg_37"/>
     <path d="m63.8,170.22c-1.82,8.52 0.65,16.13 0.79,16.58c0,0.02 0,0.04 0,0.04c3.94,-28.62 29.81,-39.42 29.81,-39.42c-8.74,7.71 -17.1,20.24 -17.1,20.24c10.82,-10.82 21.36,-14.59 29.8,-15.43l4.69,-6.93c-13.13,-8.86 -31.11,-7.49 -42.74,4.13c-13.19,13.19 -49.54,98.63 -49.54,98.63c0,0 57.35,-32.38 79.65,-41.11l-73.36,34.73l37.97,-71.45l0.01,-0.01z" fill="#dabc64" id="svg_38"/>
     <path d="m116.76,149.39l-2.77,2.77s0.07,0 0.1,0l2.72,-2.72s0,0 0,0c-0.01,-0.01 -0.04,-0.04 -0.05,-0.05z" fill="#dabc64" id="svg_39"/>
     <path d="m175.08,30.06l-0.57,-0.57l3.47,-3.47l1.53,1.53c15.98,-8.48 34.3,-12.44 52.96,-10.92l9.42,0.77c0.3,-0.07 0.57,-0.12 0.84,-0.19c0.22,-0.05 0.43,-0.1 0.65,-0.14c0.28,-0.06 0.54,-0.12 0.81,-0.17c0.36,-0.07 0.71,-0.16 1.05,-0.22c0.06,-0.01 0.13,-0.02 0.19,-0.04c2.92,-0.59 4.71,-0.85 4.98,-0.9l-20.52,-1.67c-34.07,-2.79 -67.06,12.71 -86.68,40.7l-14.41,20.57l0,0l-33.33,47.59l2.56,2.56l47.73,-68.16c7.87,-11.23 17.91,-20.45 29.29,-27.28l0.01,0z" fill="#0b182f" id="svg_40"/>
     <path d="m186.55,41.52l-11.46,-11.46c-11.39,6.84 -21.41,16.06 -29.29,27.28l-47.73,68.16l13.77,13.77l23.32,-41.64c12.69,-22.65 30.35,-41.8 51.39,-56.1l0,-0.01z" fill="#dabc64" id="svg_41"/>
     <path d="m232.47,16.64c-18.65,-1.53 -36.97,2.43 -52.96,10.92l11.22,11.22c15.35,-9.76 32.35,-16.99 50.43,-21.19c0.24,-0.06 0.49,-0.11 0.73,-0.17l-9.42,-0.77z" fill="#dabc64" id="svg_42"/>
     <path d="m250.47,15.78l0,-0.04l-0.04,0l0.04,0.04z" fill="#0b182f" id="svg_43"/>
     <path d="m245.43,16.64c-0.06,0.01 -0.12,0.02 -0.19,0.04c-0.32,0.07 -0.69,0.14 -1.05,0.22c-0.26,0.06 -0.53,0.11 -0.81,0.17c-0.2,0.05 -0.43,0.1 -0.65,0.14c-0.51,0.11 -1.02,0.23 -1.59,0.36c-18.08,4.2 -35.08,11.43 -50.43,21.19l5.75,5.75l-3.47,3.47l-6.48,-6.48c-21.04,14.3 -38.71,33.45 -51.39,56.1l-23.32,41.64l2.42,2.42l22.02,-32.57c5.26,-7.79 16.06,-9.12 23.07,-3.15l0.05,-0.05c0.16,0.16 0.28,0.32 0.43,0.48c0.16,0.14 0.32,0.28 0.48,0.43l-0.05,0.05c5.97,7.02 4.63,17.8 -3.15,23.07l-32.57,22.02l18.76,18.76l33.1,-23.18l14.48,-10.15l0,0s0,0 0,0l20.57,-14.41c4.63,-3.24 8.89,-6.85 12.82,-10.76l0.02,-0.02c19.79,-19.79 30.18,-47.47 27.86,-75.91l-1.67,-20.52l-0.04,-0.04l0,0c-0.28,0.05 -2.05,0.3 -4.98,0.9l-0.01,0z" fill="#0b182f" id="svg_44"/>
     <polygon fill="#0b182f" id="svg_45" points="119.41207122802734,146.84942626953125 121.59046173095703,144.61083984375 119.35188293457031,146.7892608642578 119.41207122802734,146.84942626953125 "/>
     <path d="m243.4,17.07c-0.22,0.05 -0.43,0.1 -0.65,0.14c0.22,-0.05 0.45,-0.1 0.65,-0.14z" fill="#0b182f" id="svg_46"/>
     <path d="m250.43,15.75c-0.29,0.05 -2.06,0.3 -4.98,0.9c2.94,-0.59 4.71,-0.85 4.98,-0.9z" fill="#0b182f" id="svg_47"/>
     <path d="m245.25,16.67c-0.34,0.07 -0.69,0.14 -1.05,0.22c0.36,-0.07 0.72,-0.16 1.05,-0.22z" fill="#0b182f" id="svg_48"/>
     <path d="m177.99,26.03l-3.47,3.47l0.57,0.57c1.46,-0.88 2.94,-1.71 4.44,-2.5l-1.53,-1.53l-0.01,0z" fill="#0b182f" id="svg_49"/>
     <path d="m175.08,30.06l11.46,11.46c1.38,-0.94 2.78,-1.85 4.19,-2.74l-11.22,-11.22c-1.5,0.79 -2.98,1.62 -4.44,2.5l0.01,0z" fill="#0b182f" id="svg_50"/>
     <path d="m193.02,47.99l3.47,-3.47l-5.75,-5.75c-1.41,0.89 -2.8,1.81 -4.19,2.74l6.48,6.48z" fill="#0b182f" id="svg_51"/>
     <path d="m119.35,146.79l-5.12,-5.12l-2.44,3.62c1.75,1.18 3.42,2.54 4.97,4.08l2.59,-2.59z" fill="#dabc64" id="svg_52"/>
     <path d="m107.11,152.23l-14.23,21.04l21.11,-21.11c-2.08,-0.16 -4.39,-0.17 -6.9,0.08l0.01,-0.01z" fill="#dabc64" id="svg_53"/>
     <path d="m114,152.16l2.77,-2.77c-1.55,-1.54 -3.21,-2.9 -4.97,-4.08l-4.69,6.93c2.5,-0.25 4.81,-0.24 6.9,-0.08z" fill="#dabc64" id="svg_54"/>
     <path d="m121.59,144.61l37.74,-38.65c-7.02,-5.97 -17.8,-4.63 -23.07,3.15l-22.02,32.57l5.12,5.12l2.24,-2.18l0,-0.01z" fill="#dabc64" id="svg_55"/>
     <path d="m160.3,106.82c-0.16,-0.16 -0.32,-0.28 -0.48,-0.43c0.14,0.16 0.29,0.31 0.42,0.48l0.05,-0.05l0.01,0z" fill="#dabc64" id="svg_56"/>
     <path d="m116.81,149.44c1.16,1.16 2.21,2.37 3.17,3.65c0.32,0.43 0.6,0.89 0.9,1.32l3.63,-2.46l-5.12,-5.12l-2.59,2.59l0,0.01z" fill="#0b182f" id="svg_57"/>
     <path d="m114.09,152.16l-21.16,21.16l27.96,-18.91c-0.3,-0.45 -0.58,-0.89 -0.9,-1.32c-1.64,-0.4 -3.63,-0.75 -5.89,-0.93l-0.01,0z" fill="#0b182f" id="svg_58"/>
     <path d="m119.99,153.08c-0.95,-1.28 -2.01,-2.49 -3.17,-3.65l-2.72,2.72c2.25,0.18 4.25,0.53 5.89,0.93z" fill="#0b182f" id="svg_59"/>
     <path d="m159.38,105.91l-0.05,0.05c0.16,0.13 0.32,0.28 0.48,0.42c-0.14,-0.16 -0.28,-0.32 -0.43,-0.48l0,0.01z" fill="#0b182f" id="svg_60"/>
     <path d="m160.24,106.87l-38.65,37.74l-2.18,2.24l5.12,5.12l32.57,-22.02c7.79,-5.26 9.12,-16.06 3.15,-23.07l-0.01,0z" fill="#0b182f" id="svg_61"/>
     <path d="m160.24,106.87c-0.13,-0.16 -0.28,-0.32 -0.42,-0.48c-0.16,-0.14 -0.31,-0.29 -0.48,-0.42l-37.74,38.65l38.65,-37.74z" fill="#0b182f" id="svg_62"/>
     <path d="m128.23,75.25l0,0c-0.73,-0.07 -2.14,-0.14 -4.14,0.13c0,0 0,0 0,0c-0.2,0.02 -0.41,0.06 -0.61,0.1c0,0 -0.02,0 -0.04,0c-0.36,0.06 -0.73,0.13 -1.13,0.22c-0.1,0.02 -0.19,0.04 -0.29,0.06c-0.18,0.04 -0.36,0.08 -0.55,0.12c-0.14,0.04 -0.29,0.07 -0.43,0.11c-0.25,0.06 -0.52,0.13 -0.78,0.2c-0.19,0.06 -0.39,0.11 -0.59,0.17c-0.16,0.05 -0.32,0.1 -0.48,0.16c-0.24,0.07 -0.48,0.16 -0.73,0.24c-0.17,0.06 -0.34,0.12 -0.51,0.18c-0.3,0.11 -0.59,0.22 -0.9,0.34c-0.14,0.06 -0.29,0.12 -0.43,0.18c-0.31,0.13 -0.64,0.26 -0.95,0.41c-0.08,0.04 -0.17,0.07 -0.26,0.11c-0.4,0.18 -0.82,0.37 -1.23,0.58c-0.12,0.06 -0.25,0.12 -0.37,0.19c-0.39,0.19 -0.77,0.39 -1.16,0.6c-0.07,0.04 -0.13,0.07 -0.2,0.11c-0.46,0.25 -0.93,0.51 -1.4,0.78c-0.11,0.06 -0.22,0.13 -0.32,0.19c-0.43,0.26 -0.88,0.53 -1.32,0.82c-0.06,0.04 -0.11,0.07 -0.17,0.11c-0.51,0.32 -1.02,0.66 -1.54,1.02c-0.08,0.06 -0.18,0.12 -0.26,0.18c-0.49,0.34 -0.99,0.7 -1.49,1.07c-0.05,0.04 -0.1,0.06 -0.13,0.1c-0.55,0.41 -1.12,0.84 -1.68,1.3c-0.07,0.06 -0.14,0.11 -0.22,0.17c-0.54,0.43 -1.08,0.88 -1.62,1.34c-0.05,0.04 -0.08,0.07 -0.13,0.11c-0.59,0.51 -1.19,1.04 -1.81,1.59c-0.05,0.05 -0.11,0.1 -0.16,0.14c-0.58,0.53 -1.17,1.07 -1.76,1.65c-0.05,0.05 -0.08,0.08 -0.13,0.12c-0.63,0.61 -1.26,1.25 -1.91,1.9c-0.04,0.04 -0.07,0.07 -0.11,0.11c-0.61,0.64 -1.24,1.29 -1.87,1.97c-0.05,0.06 -0.1,0.11 -0.14,0.16c-0.66,0.72 -1.32,1.47 -2,2.24c-0.02,0.02 -0.04,0.05 -0.06,0.06c-0.65,0.75 -1.3,1.53 -1.96,2.32c-0.06,0.07 -0.12,0.14 -0.18,0.22c-0.69,0.83 -1.37,1.7 -2.07,2.59c0,0 -0.01,0.02 -0.02,0.04c-0.66,0.85 -1.34,1.76 -2.02,2.67c-0.08,0.11 -0.16,0.22 -0.24,0.31c-0.7,0.95 -1.4,1.93 -2.11,2.94c0,0 -0.01,0.01 -0.02,0.02c-0.67,0.96 -1.36,1.96 -2.03,2.98c-0.11,0.17 -0.23,0.34 -0.34,0.51c-0.66,1 -1.32,2.02 -2,3.08c-0.06,0.1 -0.13,0.2 -0.19,0.3c-0.57,0.9 -1.14,1.83 -1.72,2.77c-0.23,0.39 -0.47,0.77 -0.7,1.16c-0.47,0.77 -0.93,1.56 -1.4,2.36c-0.19,0.34 -0.4,0.67 -0.59,1.01c-0.61,1.07 -1.23,2.17 -1.85,3.29c-0.23,0.41 -0.46,0.84 -0.69,1.25c-0.47,0.85 -0.94,1.72 -1.41,2.61c-0.2,0.4 -0.42,0.78 -0.63,1.19c-0.65,1.24 -1.3,2.5 -1.95,3.79c-0.14,0.29 -0.29,0.59 -0.45,0.89c-0.55,1.1 -1.1,2.21 -1.65,3.36c-0.19,0.39 -0.37,0.77 -0.57,1.17c-0.69,1.43 -1.37,2.88 -2.06,4.37l32.1,-20.86l33.33,-47.59s-0.2,-0.04 -0.59,-0.08l0.05,0.01z" fill="#0b182f" id="svg_63"/>
     <polygon fill="#0b182f" id="svg_64" points="128.82371520996094,75.33526611328125 95.48574829101562,122.92312622070312 128.82371520996094,75.33526611328125 128.82371520996094,75.33526611328125 "/>
     <path d="m143.29,170.73l-20.86,32.09l61.09,-26.62c15.44,-6.73 19.26,-26.89 7.35,-38.79l-14.48,10.15l-33.1,23.19l-0.01,-0.01z" fill="#0b182f" id="svg_65"/>
     <polygon fill="#0b182f" id="svg_66" points="190.86602783203125,137.38963317871094 176.3874969482422,147.5354461669922 190.86602783203125,137.38963317871094 190.86602783203125,137.38963317871094 190.86602783203125,137.38963317871094 "/>
     <path d="m66.02,138.24c0.55,-1.14 1.11,-2.25 1.65,-3.36c0.14,-0.29 0.29,-0.59 0.45,-0.89c0.65,-1.29 1.3,-2.55 1.95,-3.79c0.2,-0.4 0.42,-0.79 0.63,-1.19c0.47,-0.88 0.94,-1.76 1.41,-2.61c0.23,-0.42 0.46,-0.84 0.69,-1.25c0.61,-1.12 1.24,-2.21 1.85,-3.29c0.19,-0.35 0.4,-0.67 0.59,-1.01c0.47,-0.81 0.93,-1.59 1.4,-2.36c0.23,-0.39 0.47,-0.77 0.7,-1.16c0.58,-0.94 1.14,-1.87 1.72,-2.77c0.06,-0.1 0.13,-0.2 0.19,-0.3c0.67,-1.06 1.34,-2.07 2,-3.08c0.05,-0.07 0.1,-0.16 0.14,-0.23l11.2,-25.72c6.17,-14.14 23.6,-18.53 35.64,-10l0,0c0.39,0.05 0.59,0.1 0.59,0.1l0,0c-11.9,-11.9 -32.06,-8.09 -38.8,7.35l-26.62,61.09c0.69,-1.49 1.37,-2.94 2.06,-4.37c0.19,-0.4 0.37,-0.78 0.57,-1.17l0.01,0z" fill="#0b182f" id="svg_67"/>
     <path d="m128.23,75.25l0,0c0.39,0.04 0.59,0.08 0.59,0.08l0,0s-0.2,-0.05 -0.59,-0.08z" fill="#0b182f" id="svg_68"/>
     <path d="m76.63,118.52c-0.47,0.77 -0.93,1.56 -1.4,2.36c0.47,-0.81 0.93,-1.59 1.4,-2.36z" fill="#0b182f" id="svg_69"/>
     <path d="m79.05,114.58c-0.57,0.9 -1.14,1.83 -1.72,2.77c0.58,-0.94 1.14,-1.88 1.72,-2.77z" fill="#0b182f" id="svg_70"/>
     <path d="m81.24,111.2c-0.66,1 -1.32,2.02 -2,3.08c0.67,-1.06 1.34,-2.08 2,-3.08z" fill="#0b182f" id="svg_71"/>
     <path d="m128.22,75.25c-12.04,-8.52 -29.46,-4.14 -35.64,10l-11.2,25.72c0.06,-0.1 0.12,-0.18 0.18,-0.28c0.69,-1.02 1.36,-2.02 2.03,-2.98c0,0 0.01,-0.01 0.02,-0.02c0.71,-1.01 1.41,-1.99 2.11,-2.94c0.08,-0.11 0.16,-0.22 0.24,-0.31c0.67,-0.91 1.35,-1.81 2.02,-2.67c0,0 0.01,-0.02 0.02,-0.04c0.7,-0.89 1.38,-1.76 2.07,-2.59c0.06,-0.07 0.12,-0.14 0.18,-0.22c0.66,-0.79 1.31,-1.58 1.96,-2.32c0.02,-0.02 0.04,-0.05 0.06,-0.06c0.67,-0.77 1.34,-1.52 2,-2.24c0.05,-0.06 0.1,-0.11 0.14,-0.16c0.63,-0.69 1.25,-1.34 1.87,-1.97c0.04,-0.04 0.07,-0.07 0.11,-0.11c0.64,-0.66 1.28,-1.3 1.91,-1.9c0.05,-0.05 0.08,-0.08 0.13,-0.12c0.59,-0.57 1.18,-1.12 1.76,-1.65c0.05,-0.05 0.11,-0.1 0.16,-0.14c0.6,-0.55 1.2,-1.08 1.81,-1.59c0.05,-0.04 0.08,-0.07 0.13,-0.11c0.55,-0.47 1.1,-0.91 1.62,-1.34c0.07,-0.06 0.14,-0.11 0.22,-0.17c0.57,-0.45 1.13,-0.88 1.68,-1.3c0.05,-0.04 0.1,-0.06 0.13,-0.1c0.51,-0.37 1,-0.72 1.49,-1.07c0.08,-0.06 0.18,-0.12 0.26,-0.18c0.52,-0.36 1.04,-0.7 1.54,-1.02c0.06,-0.04 0.11,-0.07 0.17,-0.11c0.45,-0.29 0.89,-0.55 1.32,-0.82c0.11,-0.06 0.22,-0.13 0.32,-0.19c0.47,-0.28 0.94,-0.54 1.4,-0.78c0.07,-0.04 0.13,-0.07 0.2,-0.11c0.4,-0.2 0.78,-0.41 1.16,-0.6c0.13,-0.06 0.25,-0.12 0.37,-0.19c0.42,-0.2 0.83,-0.4 1.23,-0.58c0.08,-0.04 0.17,-0.07 0.26,-0.11c0.32,-0.14 0.64,-0.28 0.95,-0.41c0.14,-0.06 0.29,-0.12 0.43,-0.18c0.3,-0.12 0.6,-0.23 0.9,-0.34c0.17,-0.06 0.34,-0.12 0.51,-0.18c0.25,-0.08 0.49,-0.17 0.73,-0.24c0.17,-0.05 0.32,-0.11 0.48,-0.16c0.2,-0.06 0.4,-0.12 0.59,-0.17c0.26,-0.07 0.53,-0.14 0.78,-0.2c0.14,-0.04 0.3,-0.07 0.43,-0.11c0.19,-0.05 0.37,-0.08 0.55,-0.12c0.1,-0.02 0.19,-0.04 0.29,-0.06c0.4,-0.08 0.77,-0.16 1.13,-0.22c0,0 0.02,0 0.04,0c0.22,-0.04 0.42,-0.06 0.61,-0.1c0,0 0,0 0,0c1.97,-0.26 3.39,-0.22 4.13,-0.14l-0.04,-0.01z" fill="#dabc64" id="svg_72"/>
     <path d="m107.4,82.57c-0.49,0.34 -0.99,0.7 -1.49,1.07c0.51,-0.37 1,-0.72 1.49,-1.07z" fill="#dabc64" id="svg_73"/>
     <path d="m110.71,80.44c-0.43,0.26 -0.88,0.53 -1.32,0.82c0.45,-0.29 0.89,-0.55 1.32,-0.82z" fill="#dabc64" id="svg_74"/>
     <path d="m109.22,81.35c-0.51,0.32 -1.02,0.66 -1.54,1.02c0.52,-0.36 1.04,-0.7 1.54,-1.02z" fill="#dabc64" id="svg_75"/>
     <path d="m117.94,76.96c-0.3,0.11 -0.59,0.22 -0.9,0.34c0.3,-0.12 0.6,-0.23 0.9,-0.34z" fill="#dabc64" id="svg_76"/>
     <path d="m123.47,75.48s-0.02,0 -0.04,0c0,0 0.02,0 0.04,0z" fill="#dabc64" id="svg_77"/>
     <path d="m122.31,75.7c-0.1,0.02 -0.19,0.04 -0.29,0.06c0.1,-0.02 0.19,-0.04 0.29,-0.06z" fill="#dabc64" id="svg_78"/>
     <path d="m121.48,75.89c-0.14,0.04 -0.29,0.07 -0.43,0.11c0.14,-0.04 0.29,-0.07 0.43,-0.11z" fill="#dabc64" id="svg_79"/>
     <path d="m124.09,75.38s0,0 0,0c0,0 0,0 0,0z" fill="#dabc64" id="svg_80"/>
     <path d="m112.43,79.46c-0.46,0.25 -0.93,0.51 -1.4,0.78c0.47,-0.28 0.94,-0.54 1.4,-0.78z" fill="#dabc64" id="svg_81"/>
     <path d="m116.61,77.47c-0.31,0.13 -0.64,0.26 -0.95,0.41c0.32,-0.14 0.64,-0.28 0.95,-0.41z" fill="#dabc64" id="svg_82"/>
     <path d="m120.25,76.2c-0.19,0.06 -0.39,0.11 -0.59,0.17c0.2,-0.06 0.4,-0.12 0.59,-0.17z" fill="#dabc64" id="svg_83"/>
     <path d="m115.39,78c-0.4,0.18 -0.82,0.37 -1.23,0.58c0.42,-0.2 0.83,-0.4 1.23,-0.58z" fill="#dabc64" id="svg_84"/>
     <path d="m119.18,76.53c-0.24,0.07 -0.48,0.16 -0.73,0.24c0.25,-0.08 0.49,-0.17 0.73,-0.24z" fill="#dabc64" id="svg_85"/>
     <path d="m113.78,78.75c-0.39,0.19 -0.77,0.39 -1.16,0.6c0.4,-0.2 0.78,-0.41 1.16,-0.6z" fill="#dabc64" id="svg_86"/>
     <path d="m87.99,101.76c-0.66,0.85 -1.34,1.76 -2.02,2.67c0.67,-0.91 1.35,-1.81 2.02,-2.67z" fill="#dabc64" id="svg_87"/>
     <path d="m92.21,96.6c-0.65,0.75 -1.3,1.53 -1.96,2.32c0.66,-0.79 1.31,-1.58 1.96,-2.32z" fill="#dabc64" id="svg_88"/>
     <path d="m85.74,104.75c-0.7,0.95 -1.4,1.93 -2.11,2.94c0.71,-1.01 1.41,-1.99 2.11,-2.94z" fill="#dabc64" id="svg_89"/>
     <path d="m90.08,99.14c-0.69,0.83 -1.37,1.7 -2.07,2.59c0.7,-0.89 1.38,-1.76 2.07,-2.59z" fill="#dabc64" id="svg_90"/>
     <path d="m96.38,92.05c0.64,-0.66 1.28,-1.3 1.91,-1.9c-0.63,0.61 -1.26,1.25 -1.91,1.9z" fill="#dabc64" id="svg_91"/>
     <path d="m83.61,107.71c-0.67,0.96 -1.36,1.96 -2.03,2.98c0.69,-1.02 1.36,-2.02 2.03,-2.98z" fill="#dabc64" id="svg_92"/>
     <path d="m105.78,83.74c-0.55,0.41 -1.12,0.84 -1.68,1.3c0.57,-0.45 1.13,-0.88 1.68,-1.3z" fill="#dabc64" id="svg_93"/>
     <path d="m100.18,88.38c-0.58,0.53 -1.17,1.07 -1.76,1.65c0.59,-0.57 1.18,-1.12 1.76,-1.65z" fill="#dabc64" id="svg_94"/>
     <path d="m102.13,86.65c-0.59,0.51 -1.19,1.04 -1.81,1.59c0.6,-0.55 1.2,-1.08 1.81,-1.59z" fill="#dabc64" id="svg_95"/>
     <path d="m103.89,85.19c-0.54,0.43 -1.08,0.88 -1.62,1.34c0.55,-0.47 1.1,-0.91 1.62,-1.34z" fill="#dabc64" id="svg_96"/>
     <path d="m96.28,92.16c-0.61,0.64 -1.24,1.29 -1.87,1.97c0.63,-0.69 1.25,-1.34 1.87,-1.97z" fill="#dabc64" id="svg_97"/>
     <path d="m94.27,94.29c-0.66,0.72 -1.32,1.47 -2,2.24c0.67,-0.77 1.34,-1.52 2,-2.24z" fill="#dabc64" id="svg_98"/>
    </g>
   </g>
   <g id="svg_99">
    <path d="m314.89,91.52l0,4.21l19.38,0l0,13.18l-18.85,0l0,56.67l-16.48,0l0,-56.67l-11.6,0l0,-13.18l11.6,0l0,-4.48c0,-14.77 8.83,-24.38 25.18,-24.38c5.67,0 11.2,1.19 14.89,3.83l-4.61,12.38c-2.5,-1.71 -5.67,-2.9 -9.1,-2.9c-6.85,0 -10.41,3.83 -10.41,11.34z" fill="#dbbd65" id="svg_100"/>
    <path d="m396.6,94.42l0,15.68c-1.44,-0.26 -2.64,-0.4 -3.83,-0.4c-12.52,0 -20.42,7.38 -20.42,21.75l0,34.13l-16.48,0l0,-70.38l15.68,0l0,10.28c4.74,-7.38 13.31,-11.07 25.05,-11.07l0,0.01z" fill="#dbbd65" id="svg_101"/>
    <path d="m475.82,135.68l-55.23,0c1.97,10.28 10.54,16.87 22.81,16.87c7.91,0 14.11,-2.5 19.11,-7.64l8.83,10.15c-6.33,7.51 -16.21,11.47 -28.33,11.47c-23.59,0 -38.89,-15.15 -38.89,-36.12s15.42,-35.99 36.38,-35.99s35.59,14.37 35.59,36.38c0,1.31 -0.13,3.3 -0.26,4.87l-0.01,0zm-55.36,-10.94l39.93,0c-1.32,-10.15 -9.1,-17.14 -19.91,-17.14s-18.45,6.85 -20.04,17.14l0.01,0z" fill="#dbbd65" id="svg_102"/>
    <path d="m483.84,158.61l6.33,-12.52c6.2,4.09 15.68,6.98 24.52,6.98c10.41,0 14.77,-2.9 14.77,-7.77c0,-13.44 -43.5,-0.79 -43.5,-28.86c0,-13.31 12,-22.01 30.98,-22.01c9.36,0 20.04,2.24 26.36,6.07l-6.33,12.52c-6.72,-3.96 -13.44,-5.27 -20.16,-5.27c-10.01,0 -14.77,3.3 -14.77,7.91c0,14.24 43.5,1.58 43.5,29.13c0,13.18 -12.13,21.75 -31.89,21.75c-11.73,0 -23.46,-3.43 -29.79,-7.91l-0.01,0z" fill="#dbbd65" id="svg_103"/>
    <path d="m629.1,125.27l0,40.33l-16.48,0l0,-38.22c0,-12.52 -6.2,-18.58 -16.74,-18.58c-11.73,0 -19.64,7.11 -19.64,21.22l0,35.59l-16.48,0l0,-97.8l16.48,0l0,35.59c5.4,-5.8 13.71,-8.97 23.46,-8.97c16.87,0 29.39,9.62 29.39,30.85l0.01,0z" fill="#dbbd65" id="svg_104"/>
    <path d="m644.9,130.41c0,-21.09 15.81,-35.99 38.09,-35.99c13.71,0 24.65,5.67 30.05,16.34l-12.65,7.38c-4.21,-6.72 -10.54,-9.75 -17.54,-9.75c-12.13,0 -21.35,8.44 -21.35,22.01s9.23,22.01 21.35,22.01c6.98,0 13.31,-3.03 17.54,-9.75l12.65,7.38c-5.4,10.54 -16.34,16.48 -30.05,16.48c-22.28,0 -38.09,-15.02 -38.09,-36.12z" fill="#dbbd65" id="svg_105"/>
    <path d="m720.42,130.41c0,-21.09 15.81,-35.99 37.43,-35.99s37.56,14.9 37.56,35.99s-15.68,36.12 -37.56,36.12s-37.43,-15.02 -37.43,-36.12zm58.38,0c0,-13.44 -8.97,-22.01 -20.95,-22.01s-20.82,8.57 -20.82,22.01s8.97,22.01 20.82,22.01s20.95,-8.57 20.95,-22.01z" fill="#dbbd65" id="svg_106"/>
    <path d="m808.99,73.73c0,-5.54 4.48,-9.88 10.54,-9.88s10.54,4.09 10.54,9.5c0,5.8 -4.34,10.28 -10.54,10.28s-10.54,-4.34 -10.54,-9.88l0,-0.01zm2.24,21.48l16.48,0l0,70.38l-16.48,0l0,-70.38z" fill="#dbbd65" id="svg_107"/>
    <path d="m918.64,125.27l0,40.33l-16.48,0l0,-38.22c0,-12.52 -6.2,-18.58 -16.74,-18.58c-11.73,0 -19.64,7.11 -19.64,21.22l0,35.59l-16.48,0l0,-70.38l15.68,0l0,9.1c5.4,-6.46 13.97,-9.88 24.25,-9.88c16.87,0 29.39,9.62 29.39,30.85l0.01,-0.01z" fill="#dbbd65" id="svg_108"/>
    <path d="m931.56,158.61l6.33,-12.52c6.2,4.09 15.68,6.98 24.52,6.98c10.41,0 14.77,-2.9 14.77,-7.77c0,-13.44 -43.5,-0.79 -43.5,-28.86c0,-13.31 12,-22.01 30.98,-22.01c9.36,0 20.04,2.24 26.36,6.07l-6.33,12.52c-6.73,-3.96 -13.44,-5.27 -20.17,-5.27c-10.01,0 -14.77,3.3 -14.77,7.91c0,14.24 43.5,1.58 43.5,29.13c0,13.18 -12.13,21.75 -31.89,21.75c-11.73,0 -23.46,-3.43 -29.79,-7.91z" fill="#dbbd65" id="svg_109"/>
   </g>
  </g>
 </g>
</svg>