<?xml version="1.0" encoding="iso-8859-1"?>
<!-- Generator: Adobe Illustrator 27.0.0, SVG Export Plug-In . SVG Version: 6.00 Build 0)  -->
<svg version="1.1" id="Layer_1" xmlns="http://www.w3.org/2000/svg" xmlns:xlink="http://www.w3.org/1999/xlink" x="0px" y="0px"
	 viewBox="0 0 500 500" style="enable-background:new 0 0 500 500;" xml:space="preserve">
<g>
</g>
<g>
	<defs>
		<rect id="SVGID_1_" x="25" y="25" width="500" height="500"/>
	</defs>
	<clipPath id="SVGID_00000132064572567663012310000006733521573152838277_">
		<use xlink:href="#SVGID_1_"  style="overflow:visible;"/>
	</clipPath>
	<path style="clip-path:url(#SVGID_00000132064572567663012310000006733521573152838277_);fill:#FDEAF1;" d="M247.666,36.471h4.599
		c41.359,0.361,82.481,13.406,116.408,37.08c35.69,24.66,63.337,60.739,77.786,101.653c16.782,47.138,15.809,100.376-2.835,146.834
		c-15.656,39.414-43.72,73.742-79.174,96.999c-33.788,22.353-74.216,34.357-114.713,34.218h-0.764
		c-40.414-0.098-80.676-12.324-114.283-34.788c-35.649-23.631-63.712-58.489-79.092-98.417
		c-17.657-45.36-18.574-96.971-2.708-142.985c14.268-41.693,42.22-78.508,78.48-103.543
		C165.268,49.892,206.348,36.847,247.666,36.471 M381.44,139.015c-2.778,10.406-5.848,20.741-8.794,31.091
		c-8.058,3.029-16.352,5.432-24.313,8.711c8.044,3.084,16.213,5.779,24.27,8.822c3.405,9.266,5.363,19.089,9.462,28.064
		c2.821-9.184,5.488-18.436,8.711-27.481c7.488-4.181,16.352-5.973,24.34-9.308c-7.447-3.376-15.421-5.377-23.02-8.349
		c-1.793-0.514-1.793-2.668-2.376-4.099c-1.764-6.78-3.918-13.448-5.668-20.228C383.343,143.779,383.052,141.085,381.44,139.015
		 M168.491,167.689c-4.265,2.46-2.292,9.434,2.445,9.67c16.421,0.139,32.856,0.139,49.278,0c5.835-0.333,6.294-9.683,0.458-10.503
		c-15.198-0.445-30.424,0.028-45.624-0.208C172.895,166.87,170.297,166.203,168.491,167.689 M276.91,167.481
		c-4.682,2.376-2.653,10.003,2.473,9.919c15.199,0.167,30.397-0.069,45.596,0.098c2.418-0.042,5.419,0.18,6.933-2.154
		c2.959-3.112,0.111-8.739-4.043-8.599c-14.837-0.181-29.688,0.069-44.54-0.097C281.217,166.87,278.771,166.244,276.91,167.481
		 M188.094,194.238c-4.765,1.778-8.113,6.683-7.822,11.809c-0.028,14.796-0.028,29.605,0,44.416
		c-0.403,6.321,4.988,12.407,11.392,12.448c6.752,0.598,13.06-5.683,12.379-12.462c-0.084-15.338,0.056-30.661-0.069-45.985
		C203.903,196.836,195.04,191.362,188.094,194.238 M303.321,196.92c-4.904,1.611-8.586,6.585-8.238,11.822
		c0.055,15.227-0.042,30.467,0.055,45.694c-0.042,5.196,4.029,9.835,8.988,11.058c6.877,2.014,14.727-3.793,14.727-10.989
		c0.167-13.851-0.056-27.716,0.083-41.567c-0.028-3.82,0.347-8.058-2.069-11.309C314.005,197.309,308.266,195.28,303.321,196.92
		 M131.036,224.803c-10.267,1.876-19.076,9.878-21.882,19.936c-3.126,10.1,0.125,21.798,8.03,28.813
		c8.906,8.683,23.785,10.017,34.204,3.293c9.697-5.863,15.101-17.838,13.018-28.994
		C162.156,232.653,146.082,221.468,131.036,224.803 M357.545,224.775c-11.295,1.986-20.77,11.516-22.687,22.812
		c-2.182,10.724,2.764,22.27,11.725,28.438c9.809,7.099,24.202,6.71,33.634-0.889c9.101-6.863,13.157-19.436,9.878-30.342
		C386.372,231.11,371.479,221.816,357.545,224.775 M192.109,302.421c-4.932,2.737-5.362,10.35-0.57,13.448
		c13.199,9.948,29.592,15.033,45.916,16.589c24.007,2.111,48.138-4.181,69.478-14.962c4.126-1.723,6.306-7.142,3.945-11.086
		c-1.958-3.96-7.196-5.585-11.031-3.349c-17.13,8.517-36.065,14.227-55.348,13.67c-15.241-0.361-30.661-4.639-43.151-13.544
		C198.75,301.102,194.957,300.421,192.109,302.421"/>
	<path style="clip-path:url(#SVGID_00000132064572567663012310000006733521573152838277_);fill:#F95192;" d="M381.44,139.014
		c1.612,2.07,1.904,4.766,2.612,7.224c1.751,6.78,3.904,13.449,5.668,20.228c0.584,1.431,0.584,3.585,2.376,4.099
		c7.6,2.974,15.574,4.974,23.02,8.349c-7.987,3.335-16.852,5.127-24.34,9.309c-3.223,9.044-5.891,18.297-8.711,27.48
		c-4.098-8.975-6.057-18.797-9.461-28.063c-8.059-3.043-16.227-5.738-24.27-8.822c7.961-3.279,16.254-5.683,24.312-8.711
		C375.591,159.757,378.661,149.42,381.44,139.014"/>
	<path style="clip-path:url(#SVGID_00000132064572567663012310000006733521573152838277_);fill:#F95192;" d="M168.491,167.689
		c1.805-1.486,4.404-0.82,6.557-1.042c15.198,0.237,30.425-0.236,45.624,0.209c5.835,0.82,5.377,10.17-0.458,10.503
		c-16.421,0.139-32.857,0.139-49.278,0C166.199,177.122,164.226,170.148,168.491,167.689"/>
	<path style="clip-path:url(#SVGID_00000132064572567663012310000006733521573152838277_);fill:#F95192;" d="M276.91,167.481
		c1.861-1.237,4.306-0.611,6.419-0.833c14.852,0.167,29.703-0.084,44.54,0.097c4.154-0.139,7.002,5.487,4.043,8.6
		c-1.514,2.335-4.514,2.111-6.933,2.154c-15.199-0.167-30.397,0.069-45.596-0.098C274.257,177.483,272.229,169.857,276.91,167.481"
		/>
	<path style="clip-path:url(#SVGID_00000132064572567663012310000006733521573152838277_);fill:#F95192;" d="M188.094,194.238
		c6.946-2.875,15.809,2.598,15.88,10.225c0.125,15.324-0.014,30.648,0.069,45.985c0.681,6.78-5.627,13.059-12.379,12.461
		c-6.404-0.041-11.795-6.126-11.392-12.447c-0.028-14.81-0.028-29.62,0-44.416C179.98,200.921,183.328,196.017,188.094,194.238"/>
	<path style="clip-path:url(#SVGID_00000132064572567663012310000006733521573152838277_);fill:#F95192;" d="M303.321,196.92
		c4.945-1.64,10.684,0.389,13.546,4.71c2.416,3.251,2.041,7.488,2.07,11.309c-0.139,13.851,0.083,27.716-0.084,41.567
		c0,7.196-7.85,13.003-14.726,10.989c-4.96-1.223-9.032-5.863-8.989-11.058c-0.097-15.227,0-30.467-0.055-45.694
		C294.735,203.505,298.416,198.532,303.321,196.92"/>
	<path style="clip-path:url(#SVGID_00000132064572567663012310000006733521573152838277_);fill:#F95192;" d="M131.036,224.803
		c15.045-3.334,31.12,7.85,33.37,23.048c2.084,11.156-3.32,23.132-13.018,28.994c-10.419,6.724-25.299,5.39-34.204-3.293
		c-7.906-7.016-11.156-18.714-8.03-28.813C111.962,234.68,120.769,226.678,131.036,224.803"/>
	<path style="clip-path:url(#SVGID_00000132064572567663012310000006733521573152838277_);fill:#F95192;" d="M357.545,224.775
		c13.934-2.959,28.827,6.335,32.55,20.02c3.28,10.906-0.778,23.479-9.878,30.342c-9.432,7.6-23.825,7.988-33.634,0.889
		c-8.961-6.169-13.907-17.714-11.725-28.438C336.775,236.291,346.25,226.761,357.545,224.775"/>
	<path style="clip-path:url(#SVGID_00000132064572567663012310000006733521573152838277_);fill:#F95192;" d="M192.109,302.421
		c2.848-2.001,6.641-1.319,9.238,0.765c12.49,8.905,27.911,13.183,43.151,13.544c19.283,0.557,38.219-5.153,55.348-13.67
		c3.835-2.237,9.073-0.611,11.031,3.349c2.362,3.945,0.181,9.364-3.945,11.086c-21.34,10.781-45.472,17.074-69.478,14.962
		c-16.324-1.556-32.718-6.641-45.916-16.589C186.746,312.771,187.177,305.158,192.109,302.421"/>
</g>
</svg>
