<svg version="1.2" xmlns="http://www.w3.org/2000/svg" viewBox="0 0 2336 641" width="2336" height="641">
	<title>raydium-svg</title>
	<defs>
		<linearGradient id="g1" x2="1" gradientUnits="userSpaceOnUse" gradientTransform="matrix(-585.834,233.027,-228.206,-573.713,568.529,204.585)">
			<stop offset="0" stop-color="#c200fb"/>
			<stop offset=".49" stop-color="#3773fe"/>
			<stop offset="1" stop-color="#5ac4be"/>
		</linearGradient>
		<linearGradient id="g2" x2="1" gradientUnits="userSpaceOnUse" gradientTransform="matrix(-585.833,233.028,-222.653,-559.75,557.349,176.481)">
			<stop offset="0" stop-color="#c200fb"/>
			<stop offset=".49" stop-color="#3773fe"/>
			<stop offset="1" stop-color="#5ac4be"/>
		</linearGradient>
		<linearGradient id="g3" x2="1" gradientUnits="userSpaceOnUse" gradientTransform="matrix(-585.833,233.027,-388.616,-976.986,615.685,323.143)">
			<stop offset="0" stop-color="#c200fb"/>
			<stop offset=".49" stop-color="#3773fe"/>
			<stop offset="1" stop-color="#5ac4be"/>
		</linearGradient>
		<linearGradient id="g4" x2="1" gradientUnits="userSpaceOnUse" gradientTransform="matrix(-585.832,233.027,-219.11,-550.843,552.937,165.504)">
			<stop offset="0" stop-color="#c200fb"/>
			<stop offset=".49" stop-color="#3773fe"/>
			<stop offset="1" stop-color="#5ac4be"/>
		</linearGradient>
	</defs>
	<style>
		.s0 { fill: #ffffff } 
		.s1 { fill: url(#g1) } 
		.s2 { fill: url(#g2) } 
		.s3 { fill: url(#g3) } 
		.s4 { fill: url(#g4) } 
	</style>
	<path id="Layer" fill-rule="evenodd" class="s0" d="m802.9 396l-28.8-50h-42.1v50h-24.8v-150.2h74.7c9.1-0.1 18.1 2.4 25.9 7.1 7.8 4.7 14.2 11.4 18.5 19.5 4.3 8.1 6.2 17.2 5.7 26.3-0.5 9.1-3.5 18-8.7 25.5-5.4 8-13 14.2-21.9 17.9l30.6 53.9zm-21.1-124.7h-49.8v49.9h49.9c3.3 0 6.5-0.7 9.5-2 3-1.3 5.7-3.2 7.9-5.6 3.4-3.5 5.8-7.9 6.7-12.8 0.9-4.8 0.4-9.8-1.4-14.4-1.9-4.5-5-8.4-9.1-11.2-4.1-2.8-8.8-4.3-13.7-4.3zm340.2 124.7h-27.8l-46.9-94.1-47 94.1h-27.8l74.9-150.2zm179.3-71.3v71.3h-24.8v-70.1l-62.4-80.1h31.8l42.4 55.4 42.6-55.4h31.7zm238.1-78.9c19.8 0.1 38.7 8.1 52.6 22.2 14 14 21.9 33.1 22 52.9-0.1 19.9-8 38.9-22 53-14 14.1-32.9 22-52.7 22.1h-49.7v-150.2zm0 124.7c13.2 0 25.8-5.3 35.1-14.7 9.3-9.4 14.6-22.1 14.6-35.3-0.2-13.2-5.4-25.9-14.7-35.2-9.3-9.3-21.9-14.7-35-14.8h-25.1v100zm240.5 25.5h-24.8v-150.2h24.8zm265.4-62.7c0.1 8.3-1.4 16.5-4.6 24.1-3.1 7.6-7.8 14.5-13.8 20.2-8.7 8.8-19.8 14.7-31.9 17.1-12.1 2.4-24.6 1.2-36-3.6-11.4-4.7-21.1-12.8-27.9-23.1-6.8-10.3-10.4-22.4-10.4-34.8v-87.4h24.8v87.4c0 10 3.9 19.5 11 26.5 7 7 16.5 11 26.4 11 9.9 0 19.4-4 26.4-11 7-7 10.9-16.6 10.9-26.5v-87.4h25v87.5zm141 62.7v-150.2l74.7 75.1 75-75.1v150.2h-25.2v-89.8l-49.8 50.1-50-50.1v89.8z"/>
	<path id="Layer" class="s1" d="m522.9 241.1v223.3l-247.1 143.4-247.2-143.4v-286.8l247.3-143.6 189.9 110.3 28.7-16.6-218.6-126.9-275.9 160.1v320.1l275.9 160.1 275.9-160.1v-256.5z"/>
	<path id="Layer" class="s2" d="m206.7 464.6h-41.3v-139.4h137.8c13-0.1 25.5-5.4 34.7-14.8 9.2-9.3 14.3-21.9 14.4-35 0.1-6.5-1.2-12.9-3.7-18.9-2.5-6-6.2-11.4-10.8-15.9-4.5-4.6-9.9-8.3-15.8-10.8-5.9-2.5-12.3-3.8-18.8-3.7h-137.8v-42.4h137.9c24.1 0.1 47.3 9.9 64.3 27 17.1 17.2 26.7 40.4 26.9 64.7 0.1 18.6-5.5 36.7-16.1 51.9-9.8 14.5-23.6 25.9-39.7 32.7-16 5.1-32.6 7.6-49.3 7.5h-82.7z"/>
	<path id="Layer" class="s3" d="m393.5 461.1h-48.2l-37.2-65.2c14.7-0.9 29.2-3.9 43.1-8.9z"/>
	<path id="Layer" class="s4" d="m494.1 194.7l28.5 15.9 28.5-15.9v-33.7l-28.5-16.6-28.5 16.6z"/>
</svg>