<svg version="1.2" xmlns="http://www.w3.org/2000/svg" viewBox="0 0 552 641" width="552" height="641">
	<title>raydium-svg</title>
	<style>
		.s0 { fill: #000000 } 
	</style>
	<path id="Layer" class="s0" d="m522.9 241.1v223.3l-247.1 143.4-247.2-143.4v-286.8l247.3-143.6 189.9 110.3 28.7-16.6-218.6-126.9-275.9 160.1v320.1l275.9 160.1 275.9-160.1v-256.5z"/>
	<path id="Layer" class="s0" d="m206.7 464.6h-41.3v-139.4h137.8c13-0.1 25.5-5.4 34.7-14.8 9.2-9.3 14.3-21.9 14.4-35 0.1-6.5-1.2-12.9-3.7-18.9-2.5-6-6.2-11.4-10.8-15.9-4.5-4.6-9.9-8.3-15.8-10.8-5.9-2.5-12.3-3.8-18.8-3.7h-137.8v-42.4h137.9c24.1 0.1 47.3 9.9 64.3 27 17.1 17.2 26.7 40.4 26.9 64.7 0.1 18.6-5.5 36.7-16.1 51.9-9.8 14.5-23.6 25.9-39.7 32.7-16 5.1-32.6 7.6-49.3 7.5h-82.7z"/>
	<path id="Layer" class="s0" d="m393.5 461.1h-48.2l-37.2-65.2c14.7-0.9 29.2-3.9 43.1-8.9z"/>
	<path id="Layer" class="s0" d="m494.1 194.7l28.5 15.9 28.5-15.9v-33.7l-28.5-16.6-28.5 16.6z"/>
</svg>